%TF.GenerationSoftware,KiCad,Pcbnew,9.0.6-9.0.6~ubuntu24.04.1*%
%TF.CreationDate,2025-11-30T17:34:31+01:00*%
%TF.ProjectId,phone_mic_jst,70686f6e-655f-46d6-9963-5f6a73742e6b,rev?*%
%TF.SameCoordinates,Original*%
%TF.FileFunction,Copper,L2,Bot*%
%TF.FilePolarity,Positive*%
%FSLAX46Y46*%
G04 Gerber Fmt 4.6, Leading zero omitted, Abs format (unit mm)*
G04 Created by KiCad (PCBNEW 9.0.6-9.0.6~ubuntu24.04.1) date 2025-11-30 17:34:31*
%MOMM*%
%LPD*%
G01*
G04 APERTURE LIST*
G04 Aperture macros list*
%AMRoundRect*
0 Rectangle with rounded corners*
0 $1 Rounding radius*
0 $2 $3 $4 $5 $6 $7 $8 $9 X,Y pos of 4 corners*
0 Add a 4 corners polygon primitive as box body*
4,1,4,$2,$3,$4,$5,$6,$7,$8,$9,$2,$3,0*
0 Add four circle primitives for the rounded corners*
1,1,$1+$1,$2,$3*
1,1,$1+$1,$4,$5*
1,1,$1+$1,$6,$7*
1,1,$1+$1,$8,$9*
0 Add four rect primitives between the rounded corners*
20,1,$1+$1,$2,$3,$4,$5,0*
20,1,$1+$1,$4,$5,$6,$7,0*
20,1,$1+$1,$6,$7,$8,$9,0*
20,1,$1+$1,$8,$9,$2,$3,0*%
G04 Aperture macros list end*
%ADD10C,0.100000*%
%ADD11C,0.150000*%
%ADD12C,0.300000*%
%ADD13C,0.400000*%
%TA.AperFunction,ComponentPad*%
%ADD14R,1.800000X1.800000*%
%TD*%
%TA.AperFunction,ComponentPad*%
%ADD15C,1.800000*%
%TD*%
%TA.AperFunction,ComponentPad*%
%ADD16RoundRect,0.250000X0.350000X0.625000X-0.350000X0.625000X-0.350000X-0.625000X0.350000X-0.625000X0*%
%TD*%
%TA.AperFunction,ComponentPad*%
%ADD17O,1.200000X1.750000*%
%TD*%
%TA.AperFunction,ComponentPad*%
%ADD18C,1.600000*%
%TD*%
%TA.AperFunction,ComponentPad*%
%ADD19C,3.500000*%
%TD*%
%TA.AperFunction,ComponentPad*%
%ADD20RoundRect,0.250000X-0.625000X0.350000X-0.625000X-0.350000X0.625000X-0.350000X0.625000X0.350000X0*%
%TD*%
%TA.AperFunction,ComponentPad*%
%ADD21O,1.750000X1.200000*%
%TD*%
%TA.AperFunction,ComponentPad*%
%ADD22R,4.600000X2.000000*%
%TD*%
%TA.AperFunction,ComponentPad*%
%ADD23O,4.200000X2.000000*%
%TD*%
%TA.AperFunction,ComponentPad*%
%ADD24O,2.000000X4.200000*%
%TD*%
%TA.AperFunction,ComponentPad*%
%ADD25RoundRect,0.250000X-0.550000X-0.550000X0.550000X-0.550000X0.550000X0.550000X-0.550000X0.550000X0*%
%TD*%
%TA.AperFunction,ComponentPad*%
%ADD26RoundRect,0.250001X-0.949999X0.949999X-0.949999X-0.949999X0.949999X-0.949999X0.949999X0.949999X0*%
%TD*%
%TA.AperFunction,ComponentPad*%
%ADD27C,2.400000*%
%TD*%
%TA.AperFunction,Conductor*%
%ADD28C,0.800000*%
%TD*%
G04 APERTURE END LIST*
D10*
D11*
X177002200Y-166007200D02*
X285002200Y-166007200D01*
X285002200Y-198007200D01*
X177002200Y-198007200D01*
X177002200Y-166007200D01*
D10*
D11*
X10000000Y-10000000D02*
X287002200Y-10000000D01*
X287002200Y-200007200D01*
X10000000Y-200007200D01*
X10000000Y-10000000D01*
D10*
D11*
X12000000Y-12000000D02*
X285002200Y-12000000D01*
X285002200Y-198007200D01*
X12000000Y-198007200D01*
X12000000Y-12000000D01*
D10*
D11*
X60000000Y-12000000D02*
X60000000Y-10000000D01*
D10*
D11*
X110000000Y-12000000D02*
X110000000Y-10000000D01*
D10*
D11*
X160000000Y-12000000D02*
X160000000Y-10000000D01*
D10*
D11*
X210000000Y-12000000D02*
X210000000Y-10000000D01*
D10*
D11*
X260000000Y-12000000D02*
X260000000Y-10000000D01*
D10*
D11*
X36089160Y-11593604D02*
X35346303Y-11593604D01*
X35717731Y-11593604D02*
X35717731Y-10293604D01*
X35717731Y-10293604D02*
X35593922Y-10479319D01*
X35593922Y-10479319D02*
X35470112Y-10603128D01*
X35470112Y-10603128D02*
X35346303Y-10665033D01*
D10*
D11*
X85346303Y-10417414D02*
X85408207Y-10355509D01*
X85408207Y-10355509D02*
X85532017Y-10293604D01*
X85532017Y-10293604D02*
X85841541Y-10293604D01*
X85841541Y-10293604D02*
X85965350Y-10355509D01*
X85965350Y-10355509D02*
X86027255Y-10417414D01*
X86027255Y-10417414D02*
X86089160Y-10541223D01*
X86089160Y-10541223D02*
X86089160Y-10665033D01*
X86089160Y-10665033D02*
X86027255Y-10850747D01*
X86027255Y-10850747D02*
X85284398Y-11593604D01*
X85284398Y-11593604D02*
X86089160Y-11593604D01*
D10*
D11*
X135284398Y-10293604D02*
X136089160Y-10293604D01*
X136089160Y-10293604D02*
X135655826Y-10788842D01*
X135655826Y-10788842D02*
X135841541Y-10788842D01*
X135841541Y-10788842D02*
X135965350Y-10850747D01*
X135965350Y-10850747D02*
X136027255Y-10912652D01*
X136027255Y-10912652D02*
X136089160Y-11036461D01*
X136089160Y-11036461D02*
X136089160Y-11345985D01*
X136089160Y-11345985D02*
X136027255Y-11469795D01*
X136027255Y-11469795D02*
X135965350Y-11531700D01*
X135965350Y-11531700D02*
X135841541Y-11593604D01*
X135841541Y-11593604D02*
X135470112Y-11593604D01*
X135470112Y-11593604D02*
X135346303Y-11531700D01*
X135346303Y-11531700D02*
X135284398Y-11469795D01*
D10*
D11*
X185965350Y-10726938D02*
X185965350Y-11593604D01*
X185655826Y-10231700D02*
X185346303Y-11160271D01*
X185346303Y-11160271D02*
X186151064Y-11160271D01*
D10*
D11*
X236027255Y-10293604D02*
X235408207Y-10293604D01*
X235408207Y-10293604D02*
X235346303Y-10912652D01*
X235346303Y-10912652D02*
X235408207Y-10850747D01*
X235408207Y-10850747D02*
X235532017Y-10788842D01*
X235532017Y-10788842D02*
X235841541Y-10788842D01*
X235841541Y-10788842D02*
X235965350Y-10850747D01*
X235965350Y-10850747D02*
X236027255Y-10912652D01*
X236027255Y-10912652D02*
X236089160Y-11036461D01*
X236089160Y-11036461D02*
X236089160Y-11345985D01*
X236089160Y-11345985D02*
X236027255Y-11469795D01*
X236027255Y-11469795D02*
X235965350Y-11531700D01*
X235965350Y-11531700D02*
X235841541Y-11593604D01*
X235841541Y-11593604D02*
X235532017Y-11593604D01*
X235532017Y-11593604D02*
X235408207Y-11531700D01*
X235408207Y-11531700D02*
X235346303Y-11469795D01*
D10*
D11*
X285965350Y-10293604D02*
X285717731Y-10293604D01*
X285717731Y-10293604D02*
X285593922Y-10355509D01*
X285593922Y-10355509D02*
X285532017Y-10417414D01*
X285532017Y-10417414D02*
X285408207Y-10603128D01*
X285408207Y-10603128D02*
X285346303Y-10850747D01*
X285346303Y-10850747D02*
X285346303Y-11345985D01*
X285346303Y-11345985D02*
X285408207Y-11469795D01*
X285408207Y-11469795D02*
X285470112Y-11531700D01*
X285470112Y-11531700D02*
X285593922Y-11593604D01*
X285593922Y-11593604D02*
X285841541Y-11593604D01*
X285841541Y-11593604D02*
X285965350Y-11531700D01*
X285965350Y-11531700D02*
X286027255Y-11469795D01*
X286027255Y-11469795D02*
X286089160Y-11345985D01*
X286089160Y-11345985D02*
X286089160Y-11036461D01*
X286089160Y-11036461D02*
X286027255Y-10912652D01*
X286027255Y-10912652D02*
X285965350Y-10850747D01*
X285965350Y-10850747D02*
X285841541Y-10788842D01*
X285841541Y-10788842D02*
X285593922Y-10788842D01*
X285593922Y-10788842D02*
X285470112Y-10850747D01*
X285470112Y-10850747D02*
X285408207Y-10912652D01*
X285408207Y-10912652D02*
X285346303Y-11036461D01*
D10*
D11*
X60000000Y-198007200D02*
X60000000Y-200007200D01*
D10*
D11*
X110000000Y-198007200D02*
X110000000Y-200007200D01*
D10*
D11*
X160000000Y-198007200D02*
X160000000Y-200007200D01*
D10*
D11*
X210000000Y-198007200D02*
X210000000Y-200007200D01*
D10*
D11*
X260000000Y-198007200D02*
X260000000Y-200007200D01*
D10*
D11*
X36089160Y-199600804D02*
X35346303Y-199600804D01*
X35717731Y-199600804D02*
X35717731Y-198300804D01*
X35717731Y-198300804D02*
X35593922Y-198486519D01*
X35593922Y-198486519D02*
X35470112Y-198610328D01*
X35470112Y-198610328D02*
X35346303Y-198672233D01*
D10*
D11*
X85346303Y-198424614D02*
X85408207Y-198362709D01*
X85408207Y-198362709D02*
X85532017Y-198300804D01*
X85532017Y-198300804D02*
X85841541Y-198300804D01*
X85841541Y-198300804D02*
X85965350Y-198362709D01*
X85965350Y-198362709D02*
X86027255Y-198424614D01*
X86027255Y-198424614D02*
X86089160Y-198548423D01*
X86089160Y-198548423D02*
X86089160Y-198672233D01*
X86089160Y-198672233D02*
X86027255Y-198857947D01*
X86027255Y-198857947D02*
X85284398Y-199600804D01*
X85284398Y-199600804D02*
X86089160Y-199600804D01*
D10*
D11*
X135284398Y-198300804D02*
X136089160Y-198300804D01*
X136089160Y-198300804D02*
X135655826Y-198796042D01*
X135655826Y-198796042D02*
X135841541Y-198796042D01*
X135841541Y-198796042D02*
X135965350Y-198857947D01*
X135965350Y-198857947D02*
X136027255Y-198919852D01*
X136027255Y-198919852D02*
X136089160Y-199043661D01*
X136089160Y-199043661D02*
X136089160Y-199353185D01*
X136089160Y-199353185D02*
X136027255Y-199476995D01*
X136027255Y-199476995D02*
X135965350Y-199538900D01*
X135965350Y-199538900D02*
X135841541Y-199600804D01*
X135841541Y-199600804D02*
X135470112Y-199600804D01*
X135470112Y-199600804D02*
X135346303Y-199538900D01*
X135346303Y-199538900D02*
X135284398Y-199476995D01*
D10*
D11*
X185965350Y-198734138D02*
X185965350Y-199600804D01*
X185655826Y-198238900D02*
X185346303Y-199167471D01*
X185346303Y-199167471D02*
X186151064Y-199167471D01*
D10*
D11*
X236027255Y-198300804D02*
X235408207Y-198300804D01*
X235408207Y-198300804D02*
X235346303Y-198919852D01*
X235346303Y-198919852D02*
X235408207Y-198857947D01*
X235408207Y-198857947D02*
X235532017Y-198796042D01*
X235532017Y-198796042D02*
X235841541Y-198796042D01*
X235841541Y-198796042D02*
X235965350Y-198857947D01*
X235965350Y-198857947D02*
X236027255Y-198919852D01*
X236027255Y-198919852D02*
X236089160Y-199043661D01*
X236089160Y-199043661D02*
X236089160Y-199353185D01*
X236089160Y-199353185D02*
X236027255Y-199476995D01*
X236027255Y-199476995D02*
X235965350Y-199538900D01*
X235965350Y-199538900D02*
X235841541Y-199600804D01*
X235841541Y-199600804D02*
X235532017Y-199600804D01*
X235532017Y-199600804D02*
X235408207Y-199538900D01*
X235408207Y-199538900D02*
X235346303Y-199476995D01*
D10*
D11*
X285965350Y-198300804D02*
X285717731Y-198300804D01*
X285717731Y-198300804D02*
X285593922Y-198362709D01*
X285593922Y-198362709D02*
X285532017Y-198424614D01*
X285532017Y-198424614D02*
X285408207Y-198610328D01*
X285408207Y-198610328D02*
X285346303Y-198857947D01*
X285346303Y-198857947D02*
X285346303Y-199353185D01*
X285346303Y-199353185D02*
X285408207Y-199476995D01*
X285408207Y-199476995D02*
X285470112Y-199538900D01*
X285470112Y-199538900D02*
X285593922Y-199600804D01*
X285593922Y-199600804D02*
X285841541Y-199600804D01*
X285841541Y-199600804D02*
X285965350Y-199538900D01*
X285965350Y-199538900D02*
X286027255Y-199476995D01*
X286027255Y-199476995D02*
X286089160Y-199353185D01*
X286089160Y-199353185D02*
X286089160Y-199043661D01*
X286089160Y-199043661D02*
X286027255Y-198919852D01*
X286027255Y-198919852D02*
X285965350Y-198857947D01*
X285965350Y-198857947D02*
X285841541Y-198796042D01*
X285841541Y-198796042D02*
X285593922Y-198796042D01*
X285593922Y-198796042D02*
X285470112Y-198857947D01*
X285470112Y-198857947D02*
X285408207Y-198919852D01*
X285408207Y-198919852D02*
X285346303Y-199043661D01*
D10*
D11*
X10000000Y-60000000D02*
X12000000Y-60000000D01*
D10*
D11*
X10000000Y-110000000D02*
X12000000Y-110000000D01*
D10*
D11*
X10000000Y-160000000D02*
X12000000Y-160000000D01*
D10*
D11*
X10690476Y-35222176D02*
X11309523Y-35222176D01*
X10566666Y-35593604D02*
X10999999Y-34293604D01*
X10999999Y-34293604D02*
X11433333Y-35593604D01*
D10*
D11*
X11092857Y-84912652D02*
X11278571Y-84974557D01*
X11278571Y-84974557D02*
X11340476Y-85036461D01*
X11340476Y-85036461D02*
X11402380Y-85160271D01*
X11402380Y-85160271D02*
X11402380Y-85345985D01*
X11402380Y-85345985D02*
X11340476Y-85469795D01*
X11340476Y-85469795D02*
X11278571Y-85531700D01*
X11278571Y-85531700D02*
X11154761Y-85593604D01*
X11154761Y-85593604D02*
X10659523Y-85593604D01*
X10659523Y-85593604D02*
X10659523Y-84293604D01*
X10659523Y-84293604D02*
X11092857Y-84293604D01*
X11092857Y-84293604D02*
X11216666Y-84355509D01*
X11216666Y-84355509D02*
X11278571Y-84417414D01*
X11278571Y-84417414D02*
X11340476Y-84541223D01*
X11340476Y-84541223D02*
X11340476Y-84665033D01*
X11340476Y-84665033D02*
X11278571Y-84788842D01*
X11278571Y-84788842D02*
X11216666Y-84850747D01*
X11216666Y-84850747D02*
X11092857Y-84912652D01*
X11092857Y-84912652D02*
X10659523Y-84912652D01*
D10*
D11*
X11402380Y-135469795D02*
X11340476Y-135531700D01*
X11340476Y-135531700D02*
X11154761Y-135593604D01*
X11154761Y-135593604D02*
X11030952Y-135593604D01*
X11030952Y-135593604D02*
X10845238Y-135531700D01*
X10845238Y-135531700D02*
X10721428Y-135407890D01*
X10721428Y-135407890D02*
X10659523Y-135284080D01*
X10659523Y-135284080D02*
X10597619Y-135036461D01*
X10597619Y-135036461D02*
X10597619Y-134850747D01*
X10597619Y-134850747D02*
X10659523Y-134603128D01*
X10659523Y-134603128D02*
X10721428Y-134479319D01*
X10721428Y-134479319D02*
X10845238Y-134355509D01*
X10845238Y-134355509D02*
X11030952Y-134293604D01*
X11030952Y-134293604D02*
X11154761Y-134293604D01*
X11154761Y-134293604D02*
X11340476Y-134355509D01*
X11340476Y-134355509D02*
X11402380Y-134417414D01*
D10*
D11*
X10659523Y-185593604D02*
X10659523Y-184293604D01*
X10659523Y-184293604D02*
X10969047Y-184293604D01*
X10969047Y-184293604D02*
X11154761Y-184355509D01*
X11154761Y-184355509D02*
X11278571Y-184479319D01*
X11278571Y-184479319D02*
X11340476Y-184603128D01*
X11340476Y-184603128D02*
X11402380Y-184850747D01*
X11402380Y-184850747D02*
X11402380Y-185036461D01*
X11402380Y-185036461D02*
X11340476Y-185284080D01*
X11340476Y-185284080D02*
X11278571Y-185407890D01*
X11278571Y-185407890D02*
X11154761Y-185531700D01*
X11154761Y-185531700D02*
X10969047Y-185593604D01*
X10969047Y-185593604D02*
X10659523Y-185593604D01*
D10*
D11*
X287002200Y-60000000D02*
X285002200Y-60000000D01*
D10*
D11*
X287002200Y-110000000D02*
X285002200Y-110000000D01*
D10*
D11*
X287002200Y-160000000D02*
X285002200Y-160000000D01*
D10*
D11*
X285692676Y-35222176D02*
X286311723Y-35222176D01*
X285568866Y-35593604D02*
X286002199Y-34293604D01*
X286002199Y-34293604D02*
X286435533Y-35593604D01*
D10*
D11*
X286095057Y-84912652D02*
X286280771Y-84974557D01*
X286280771Y-84974557D02*
X286342676Y-85036461D01*
X286342676Y-85036461D02*
X286404580Y-85160271D01*
X286404580Y-85160271D02*
X286404580Y-85345985D01*
X286404580Y-85345985D02*
X286342676Y-85469795D01*
X286342676Y-85469795D02*
X286280771Y-85531700D01*
X286280771Y-85531700D02*
X286156961Y-85593604D01*
X286156961Y-85593604D02*
X285661723Y-85593604D01*
X285661723Y-85593604D02*
X285661723Y-84293604D01*
X285661723Y-84293604D02*
X286095057Y-84293604D01*
X286095057Y-84293604D02*
X286218866Y-84355509D01*
X286218866Y-84355509D02*
X286280771Y-84417414D01*
X286280771Y-84417414D02*
X286342676Y-84541223D01*
X286342676Y-84541223D02*
X286342676Y-84665033D01*
X286342676Y-84665033D02*
X286280771Y-84788842D01*
X286280771Y-84788842D02*
X286218866Y-84850747D01*
X286218866Y-84850747D02*
X286095057Y-84912652D01*
X286095057Y-84912652D02*
X285661723Y-84912652D01*
D10*
D11*
X286404580Y-135469795D02*
X286342676Y-135531700D01*
X286342676Y-135531700D02*
X286156961Y-135593604D01*
X286156961Y-135593604D02*
X286033152Y-135593604D01*
X286033152Y-135593604D02*
X285847438Y-135531700D01*
X285847438Y-135531700D02*
X285723628Y-135407890D01*
X285723628Y-135407890D02*
X285661723Y-135284080D01*
X285661723Y-135284080D02*
X285599819Y-135036461D01*
X285599819Y-135036461D02*
X285599819Y-134850747D01*
X285599819Y-134850747D02*
X285661723Y-134603128D01*
X285661723Y-134603128D02*
X285723628Y-134479319D01*
X285723628Y-134479319D02*
X285847438Y-134355509D01*
X285847438Y-134355509D02*
X286033152Y-134293604D01*
X286033152Y-134293604D02*
X286156961Y-134293604D01*
X286156961Y-134293604D02*
X286342676Y-134355509D01*
X286342676Y-134355509D02*
X286404580Y-134417414D01*
D10*
D11*
X285661723Y-185593604D02*
X285661723Y-184293604D01*
X285661723Y-184293604D02*
X285971247Y-184293604D01*
X285971247Y-184293604D02*
X286156961Y-184355509D01*
X286156961Y-184355509D02*
X286280771Y-184479319D01*
X286280771Y-184479319D02*
X286342676Y-184603128D01*
X286342676Y-184603128D02*
X286404580Y-184850747D01*
X286404580Y-184850747D02*
X286404580Y-185036461D01*
X286404580Y-185036461D02*
X286342676Y-185284080D01*
X286342676Y-185284080D02*
X286280771Y-185407890D01*
X286280771Y-185407890D02*
X286156961Y-185531700D01*
X286156961Y-185531700D02*
X285971247Y-185593604D01*
X285971247Y-185593604D02*
X285661723Y-185593604D01*
D10*
D11*
X200458026Y-193793328D02*
X200458026Y-192293328D01*
X200458026Y-192293328D02*
X200815169Y-192293328D01*
X200815169Y-192293328D02*
X201029455Y-192364757D01*
X201029455Y-192364757D02*
X201172312Y-192507614D01*
X201172312Y-192507614D02*
X201243741Y-192650471D01*
X201243741Y-192650471D02*
X201315169Y-192936185D01*
X201315169Y-192936185D02*
X201315169Y-193150471D01*
X201315169Y-193150471D02*
X201243741Y-193436185D01*
X201243741Y-193436185D02*
X201172312Y-193579042D01*
X201172312Y-193579042D02*
X201029455Y-193721900D01*
X201029455Y-193721900D02*
X200815169Y-193793328D01*
X200815169Y-193793328D02*
X200458026Y-193793328D01*
X202600884Y-193793328D02*
X202600884Y-193007614D01*
X202600884Y-193007614D02*
X202529455Y-192864757D01*
X202529455Y-192864757D02*
X202386598Y-192793328D01*
X202386598Y-192793328D02*
X202100884Y-192793328D01*
X202100884Y-192793328D02*
X201958026Y-192864757D01*
X202600884Y-193721900D02*
X202458026Y-193793328D01*
X202458026Y-193793328D02*
X202100884Y-193793328D01*
X202100884Y-193793328D02*
X201958026Y-193721900D01*
X201958026Y-193721900D02*
X201886598Y-193579042D01*
X201886598Y-193579042D02*
X201886598Y-193436185D01*
X201886598Y-193436185D02*
X201958026Y-193293328D01*
X201958026Y-193293328D02*
X202100884Y-193221900D01*
X202100884Y-193221900D02*
X202458026Y-193221900D01*
X202458026Y-193221900D02*
X202600884Y-193150471D01*
X203100884Y-192793328D02*
X203672312Y-192793328D01*
X203315169Y-192293328D02*
X203315169Y-193579042D01*
X203315169Y-193579042D02*
X203386598Y-193721900D01*
X203386598Y-193721900D02*
X203529455Y-193793328D01*
X203529455Y-193793328D02*
X203672312Y-193793328D01*
X204743741Y-193721900D02*
X204600884Y-193793328D01*
X204600884Y-193793328D02*
X204315170Y-193793328D01*
X204315170Y-193793328D02*
X204172312Y-193721900D01*
X204172312Y-193721900D02*
X204100884Y-193579042D01*
X204100884Y-193579042D02*
X204100884Y-193007614D01*
X204100884Y-193007614D02*
X204172312Y-192864757D01*
X204172312Y-192864757D02*
X204315170Y-192793328D01*
X204315170Y-192793328D02*
X204600884Y-192793328D01*
X204600884Y-192793328D02*
X204743741Y-192864757D01*
X204743741Y-192864757D02*
X204815170Y-193007614D01*
X204815170Y-193007614D02*
X204815170Y-193150471D01*
X204815170Y-193150471D02*
X204100884Y-193293328D01*
X205458026Y-193650471D02*
X205529455Y-193721900D01*
X205529455Y-193721900D02*
X205458026Y-193793328D01*
X205458026Y-193793328D02*
X205386598Y-193721900D01*
X205386598Y-193721900D02*
X205458026Y-193650471D01*
X205458026Y-193650471D02*
X205458026Y-193793328D01*
X205458026Y-192864757D02*
X205529455Y-192936185D01*
X205529455Y-192936185D02*
X205458026Y-193007614D01*
X205458026Y-193007614D02*
X205386598Y-192936185D01*
X205386598Y-192936185D02*
X205458026Y-192864757D01*
X205458026Y-192864757D02*
X205458026Y-193007614D01*
D10*
D11*
X177002200Y-194507200D02*
X285002200Y-194507200D01*
D10*
D11*
X178458026Y-196593328D02*
X178458026Y-195093328D01*
X179315169Y-196593328D02*
X178672312Y-195736185D01*
X179315169Y-195093328D02*
X178458026Y-195950471D01*
X179958026Y-196593328D02*
X179958026Y-195593328D01*
X179958026Y-195093328D02*
X179886598Y-195164757D01*
X179886598Y-195164757D02*
X179958026Y-195236185D01*
X179958026Y-195236185D02*
X180029455Y-195164757D01*
X180029455Y-195164757D02*
X179958026Y-195093328D01*
X179958026Y-195093328D02*
X179958026Y-195236185D01*
X181529455Y-196450471D02*
X181458027Y-196521900D01*
X181458027Y-196521900D02*
X181243741Y-196593328D01*
X181243741Y-196593328D02*
X181100884Y-196593328D01*
X181100884Y-196593328D02*
X180886598Y-196521900D01*
X180886598Y-196521900D02*
X180743741Y-196379042D01*
X180743741Y-196379042D02*
X180672312Y-196236185D01*
X180672312Y-196236185D02*
X180600884Y-195950471D01*
X180600884Y-195950471D02*
X180600884Y-195736185D01*
X180600884Y-195736185D02*
X180672312Y-195450471D01*
X180672312Y-195450471D02*
X180743741Y-195307614D01*
X180743741Y-195307614D02*
X180886598Y-195164757D01*
X180886598Y-195164757D02*
X181100884Y-195093328D01*
X181100884Y-195093328D02*
X181243741Y-195093328D01*
X181243741Y-195093328D02*
X181458027Y-195164757D01*
X181458027Y-195164757D02*
X181529455Y-195236185D01*
X182815170Y-196593328D02*
X182815170Y-195807614D01*
X182815170Y-195807614D02*
X182743741Y-195664757D01*
X182743741Y-195664757D02*
X182600884Y-195593328D01*
X182600884Y-195593328D02*
X182315170Y-195593328D01*
X182315170Y-195593328D02*
X182172312Y-195664757D01*
X182815170Y-196521900D02*
X182672312Y-196593328D01*
X182672312Y-196593328D02*
X182315170Y-196593328D01*
X182315170Y-196593328D02*
X182172312Y-196521900D01*
X182172312Y-196521900D02*
X182100884Y-196379042D01*
X182100884Y-196379042D02*
X182100884Y-196236185D01*
X182100884Y-196236185D02*
X182172312Y-196093328D01*
X182172312Y-196093328D02*
X182315170Y-196021900D01*
X182315170Y-196021900D02*
X182672312Y-196021900D01*
X182672312Y-196021900D02*
X182815170Y-195950471D01*
X184172313Y-196593328D02*
X184172313Y-195093328D01*
X184172313Y-196521900D02*
X184029455Y-196593328D01*
X184029455Y-196593328D02*
X183743741Y-196593328D01*
X183743741Y-196593328D02*
X183600884Y-196521900D01*
X183600884Y-196521900D02*
X183529455Y-196450471D01*
X183529455Y-196450471D02*
X183458027Y-196307614D01*
X183458027Y-196307614D02*
X183458027Y-195879042D01*
X183458027Y-195879042D02*
X183529455Y-195736185D01*
X183529455Y-195736185D02*
X183600884Y-195664757D01*
X183600884Y-195664757D02*
X183743741Y-195593328D01*
X183743741Y-195593328D02*
X184029455Y-195593328D01*
X184029455Y-195593328D02*
X184172313Y-195664757D01*
X186029455Y-195807614D02*
X186529455Y-195807614D01*
X186743741Y-196593328D02*
X186029455Y-196593328D01*
X186029455Y-196593328D02*
X186029455Y-195093328D01*
X186029455Y-195093328D02*
X186743741Y-195093328D01*
X187386598Y-196450471D02*
X187458027Y-196521900D01*
X187458027Y-196521900D02*
X187386598Y-196593328D01*
X187386598Y-196593328D02*
X187315170Y-196521900D01*
X187315170Y-196521900D02*
X187386598Y-196450471D01*
X187386598Y-196450471D02*
X187386598Y-196593328D01*
X188100884Y-196593328D02*
X188100884Y-195093328D01*
X188100884Y-195093328D02*
X188458027Y-195093328D01*
X188458027Y-195093328D02*
X188672313Y-195164757D01*
X188672313Y-195164757D02*
X188815170Y-195307614D01*
X188815170Y-195307614D02*
X188886599Y-195450471D01*
X188886599Y-195450471D02*
X188958027Y-195736185D01*
X188958027Y-195736185D02*
X188958027Y-195950471D01*
X188958027Y-195950471D02*
X188886599Y-196236185D01*
X188886599Y-196236185D02*
X188815170Y-196379042D01*
X188815170Y-196379042D02*
X188672313Y-196521900D01*
X188672313Y-196521900D02*
X188458027Y-196593328D01*
X188458027Y-196593328D02*
X188100884Y-196593328D01*
X189600884Y-196450471D02*
X189672313Y-196521900D01*
X189672313Y-196521900D02*
X189600884Y-196593328D01*
X189600884Y-196593328D02*
X189529456Y-196521900D01*
X189529456Y-196521900D02*
X189600884Y-196450471D01*
X189600884Y-196450471D02*
X189600884Y-196593328D01*
X190243742Y-196164757D02*
X190958028Y-196164757D01*
X190100885Y-196593328D02*
X190600885Y-195093328D01*
X190600885Y-195093328D02*
X191100885Y-196593328D01*
X191600884Y-196450471D02*
X191672313Y-196521900D01*
X191672313Y-196521900D02*
X191600884Y-196593328D01*
X191600884Y-196593328D02*
X191529456Y-196521900D01*
X191529456Y-196521900D02*
X191600884Y-196450471D01*
X191600884Y-196450471D02*
X191600884Y-196593328D01*
X193529456Y-196593328D02*
X193815170Y-196593328D01*
X193815170Y-196593328D02*
X193958027Y-196521900D01*
X193958027Y-196521900D02*
X194029456Y-196450471D01*
X194029456Y-196450471D02*
X194172313Y-196236185D01*
X194172313Y-196236185D02*
X194243742Y-195950471D01*
X194243742Y-195950471D02*
X194243742Y-195379042D01*
X194243742Y-195379042D02*
X194172313Y-195236185D01*
X194172313Y-195236185D02*
X194100885Y-195164757D01*
X194100885Y-195164757D02*
X193958027Y-195093328D01*
X193958027Y-195093328D02*
X193672313Y-195093328D01*
X193672313Y-195093328D02*
X193529456Y-195164757D01*
X193529456Y-195164757D02*
X193458027Y-195236185D01*
X193458027Y-195236185D02*
X193386599Y-195379042D01*
X193386599Y-195379042D02*
X193386599Y-195736185D01*
X193386599Y-195736185D02*
X193458027Y-195879042D01*
X193458027Y-195879042D02*
X193529456Y-195950471D01*
X193529456Y-195950471D02*
X193672313Y-196021900D01*
X193672313Y-196021900D02*
X193958027Y-196021900D01*
X193958027Y-196021900D02*
X194100885Y-195950471D01*
X194100885Y-195950471D02*
X194172313Y-195879042D01*
X194172313Y-195879042D02*
X194243742Y-195736185D01*
X194886598Y-196450471D02*
X194958027Y-196521900D01*
X194958027Y-196521900D02*
X194886598Y-196593328D01*
X194886598Y-196593328D02*
X194815170Y-196521900D01*
X194815170Y-196521900D02*
X194886598Y-196450471D01*
X194886598Y-196450471D02*
X194886598Y-196593328D01*
X195886599Y-195093328D02*
X196029456Y-195093328D01*
X196029456Y-195093328D02*
X196172313Y-195164757D01*
X196172313Y-195164757D02*
X196243742Y-195236185D01*
X196243742Y-195236185D02*
X196315170Y-195379042D01*
X196315170Y-195379042D02*
X196386599Y-195664757D01*
X196386599Y-195664757D02*
X196386599Y-196021900D01*
X196386599Y-196021900D02*
X196315170Y-196307614D01*
X196315170Y-196307614D02*
X196243742Y-196450471D01*
X196243742Y-196450471D02*
X196172313Y-196521900D01*
X196172313Y-196521900D02*
X196029456Y-196593328D01*
X196029456Y-196593328D02*
X195886599Y-196593328D01*
X195886599Y-196593328D02*
X195743742Y-196521900D01*
X195743742Y-196521900D02*
X195672313Y-196450471D01*
X195672313Y-196450471D02*
X195600884Y-196307614D01*
X195600884Y-196307614D02*
X195529456Y-196021900D01*
X195529456Y-196021900D02*
X195529456Y-195664757D01*
X195529456Y-195664757D02*
X195600884Y-195379042D01*
X195600884Y-195379042D02*
X195672313Y-195236185D01*
X195672313Y-195236185D02*
X195743742Y-195164757D01*
X195743742Y-195164757D02*
X195886599Y-195093328D01*
X197029455Y-196450471D02*
X197100884Y-196521900D01*
X197100884Y-196521900D02*
X197029455Y-196593328D01*
X197029455Y-196593328D02*
X196958027Y-196521900D01*
X196958027Y-196521900D02*
X197029455Y-196450471D01*
X197029455Y-196450471D02*
X197029455Y-196593328D01*
X198386599Y-195093328D02*
X198100884Y-195093328D01*
X198100884Y-195093328D02*
X197958027Y-195164757D01*
X197958027Y-195164757D02*
X197886599Y-195236185D01*
X197886599Y-195236185D02*
X197743741Y-195450471D01*
X197743741Y-195450471D02*
X197672313Y-195736185D01*
X197672313Y-195736185D02*
X197672313Y-196307614D01*
X197672313Y-196307614D02*
X197743741Y-196450471D01*
X197743741Y-196450471D02*
X197815170Y-196521900D01*
X197815170Y-196521900D02*
X197958027Y-196593328D01*
X197958027Y-196593328D02*
X198243741Y-196593328D01*
X198243741Y-196593328D02*
X198386599Y-196521900D01*
X198386599Y-196521900D02*
X198458027Y-196450471D01*
X198458027Y-196450471D02*
X198529456Y-196307614D01*
X198529456Y-196307614D02*
X198529456Y-195950471D01*
X198529456Y-195950471D02*
X198458027Y-195807614D01*
X198458027Y-195807614D02*
X198386599Y-195736185D01*
X198386599Y-195736185D02*
X198243741Y-195664757D01*
X198243741Y-195664757D02*
X197958027Y-195664757D01*
X197958027Y-195664757D02*
X197815170Y-195736185D01*
X197815170Y-195736185D02*
X197743741Y-195807614D01*
X197743741Y-195807614D02*
X197672313Y-195950471D01*
D10*
D11*
X177002200Y-191507200D02*
X285002200Y-191507200D01*
D10*
D12*
X264413853Y-193785528D02*
X263913853Y-193071242D01*
X263556710Y-193785528D02*
X263556710Y-192285528D01*
X263556710Y-192285528D02*
X264128139Y-192285528D01*
X264128139Y-192285528D02*
X264270996Y-192356957D01*
X264270996Y-192356957D02*
X264342425Y-192428385D01*
X264342425Y-192428385D02*
X264413853Y-192571242D01*
X264413853Y-192571242D02*
X264413853Y-192785528D01*
X264413853Y-192785528D02*
X264342425Y-192928385D01*
X264342425Y-192928385D02*
X264270996Y-192999814D01*
X264270996Y-192999814D02*
X264128139Y-193071242D01*
X264128139Y-193071242D02*
X263556710Y-193071242D01*
X265628139Y-193714100D02*
X265485282Y-193785528D01*
X265485282Y-193785528D02*
X265199568Y-193785528D01*
X265199568Y-193785528D02*
X265056710Y-193714100D01*
X265056710Y-193714100D02*
X264985282Y-193571242D01*
X264985282Y-193571242D02*
X264985282Y-192999814D01*
X264985282Y-192999814D02*
X265056710Y-192856957D01*
X265056710Y-192856957D02*
X265199568Y-192785528D01*
X265199568Y-192785528D02*
X265485282Y-192785528D01*
X265485282Y-192785528D02*
X265628139Y-192856957D01*
X265628139Y-192856957D02*
X265699568Y-192999814D01*
X265699568Y-192999814D02*
X265699568Y-193142671D01*
X265699568Y-193142671D02*
X264985282Y-193285528D01*
X266199567Y-192785528D02*
X266556710Y-193785528D01*
X266556710Y-193785528D02*
X266913853Y-192785528D01*
X267485281Y-193642671D02*
X267556710Y-193714100D01*
X267556710Y-193714100D02*
X267485281Y-193785528D01*
X267485281Y-193785528D02*
X267413853Y-193714100D01*
X267413853Y-193714100D02*
X267485281Y-193642671D01*
X267485281Y-193642671D02*
X267485281Y-193785528D01*
X267485281Y-192856957D02*
X267556710Y-192928385D01*
X267556710Y-192928385D02*
X267485281Y-192999814D01*
X267485281Y-192999814D02*
X267413853Y-192928385D01*
X267413853Y-192928385D02*
X267485281Y-192856957D01*
X267485281Y-192856957D02*
X267485281Y-192999814D01*
D10*
D11*
X178386598Y-193721900D02*
X178600884Y-193793328D01*
X178600884Y-193793328D02*
X178958026Y-193793328D01*
X178958026Y-193793328D02*
X179100884Y-193721900D01*
X179100884Y-193721900D02*
X179172312Y-193650471D01*
X179172312Y-193650471D02*
X179243741Y-193507614D01*
X179243741Y-193507614D02*
X179243741Y-193364757D01*
X179243741Y-193364757D02*
X179172312Y-193221900D01*
X179172312Y-193221900D02*
X179100884Y-193150471D01*
X179100884Y-193150471D02*
X178958026Y-193079042D01*
X178958026Y-193079042D02*
X178672312Y-193007614D01*
X178672312Y-193007614D02*
X178529455Y-192936185D01*
X178529455Y-192936185D02*
X178458026Y-192864757D01*
X178458026Y-192864757D02*
X178386598Y-192721900D01*
X178386598Y-192721900D02*
X178386598Y-192579042D01*
X178386598Y-192579042D02*
X178458026Y-192436185D01*
X178458026Y-192436185D02*
X178529455Y-192364757D01*
X178529455Y-192364757D02*
X178672312Y-192293328D01*
X178672312Y-192293328D02*
X179029455Y-192293328D01*
X179029455Y-192293328D02*
X179243741Y-192364757D01*
X179886597Y-193793328D02*
X179886597Y-192793328D01*
X179886597Y-192293328D02*
X179815169Y-192364757D01*
X179815169Y-192364757D02*
X179886597Y-192436185D01*
X179886597Y-192436185D02*
X179958026Y-192364757D01*
X179958026Y-192364757D02*
X179886597Y-192293328D01*
X179886597Y-192293328D02*
X179886597Y-192436185D01*
X180458026Y-192793328D02*
X181243741Y-192793328D01*
X181243741Y-192793328D02*
X180458026Y-193793328D01*
X180458026Y-193793328D02*
X181243741Y-193793328D01*
X182386598Y-193721900D02*
X182243741Y-193793328D01*
X182243741Y-193793328D02*
X181958027Y-193793328D01*
X181958027Y-193793328D02*
X181815169Y-193721900D01*
X181815169Y-193721900D02*
X181743741Y-193579042D01*
X181743741Y-193579042D02*
X181743741Y-193007614D01*
X181743741Y-193007614D02*
X181815169Y-192864757D01*
X181815169Y-192864757D02*
X181958027Y-192793328D01*
X181958027Y-192793328D02*
X182243741Y-192793328D01*
X182243741Y-192793328D02*
X182386598Y-192864757D01*
X182386598Y-192864757D02*
X182458027Y-193007614D01*
X182458027Y-193007614D02*
X182458027Y-193150471D01*
X182458027Y-193150471D02*
X181743741Y-193293328D01*
X183100883Y-193650471D02*
X183172312Y-193721900D01*
X183172312Y-193721900D02*
X183100883Y-193793328D01*
X183100883Y-193793328D02*
X183029455Y-193721900D01*
X183029455Y-193721900D02*
X183100883Y-193650471D01*
X183100883Y-193650471D02*
X183100883Y-193793328D01*
X183100883Y-192864757D02*
X183172312Y-192936185D01*
X183172312Y-192936185D02*
X183100883Y-193007614D01*
X183100883Y-193007614D02*
X183029455Y-192936185D01*
X183029455Y-192936185D02*
X183100883Y-192864757D01*
X183100883Y-192864757D02*
X183100883Y-193007614D01*
X184886598Y-193364757D02*
X185600884Y-193364757D01*
X184743741Y-193793328D02*
X185243741Y-192293328D01*
X185243741Y-192293328D02*
X185743741Y-193793328D01*
X186886598Y-192793328D02*
X186886598Y-193793328D01*
X186529455Y-192221900D02*
X186172312Y-193293328D01*
X186172312Y-193293328D02*
X187100883Y-193293328D01*
D10*
D11*
X263458026Y-196593328D02*
X263458026Y-195093328D01*
X264815170Y-196593328D02*
X264815170Y-195093328D01*
X264815170Y-196521900D02*
X264672312Y-196593328D01*
X264672312Y-196593328D02*
X264386598Y-196593328D01*
X264386598Y-196593328D02*
X264243741Y-196521900D01*
X264243741Y-196521900D02*
X264172312Y-196450471D01*
X264172312Y-196450471D02*
X264100884Y-196307614D01*
X264100884Y-196307614D02*
X264100884Y-195879042D01*
X264100884Y-195879042D02*
X264172312Y-195736185D01*
X264172312Y-195736185D02*
X264243741Y-195664757D01*
X264243741Y-195664757D02*
X264386598Y-195593328D01*
X264386598Y-195593328D02*
X264672312Y-195593328D01*
X264672312Y-195593328D02*
X264815170Y-195664757D01*
X265529455Y-196450471D02*
X265600884Y-196521900D01*
X265600884Y-196521900D02*
X265529455Y-196593328D01*
X265529455Y-196593328D02*
X265458027Y-196521900D01*
X265458027Y-196521900D02*
X265529455Y-196450471D01*
X265529455Y-196450471D02*
X265529455Y-196593328D01*
X265529455Y-195664757D02*
X265600884Y-195736185D01*
X265600884Y-195736185D02*
X265529455Y-195807614D01*
X265529455Y-195807614D02*
X265458027Y-195736185D01*
X265458027Y-195736185D02*
X265529455Y-195664757D01*
X265529455Y-195664757D02*
X265529455Y-195807614D01*
X267315170Y-195236185D02*
X267386598Y-195164757D01*
X267386598Y-195164757D02*
X267529456Y-195093328D01*
X267529456Y-195093328D02*
X267886598Y-195093328D01*
X267886598Y-195093328D02*
X268029456Y-195164757D01*
X268029456Y-195164757D02*
X268100884Y-195236185D01*
X268100884Y-195236185D02*
X268172313Y-195379042D01*
X268172313Y-195379042D02*
X268172313Y-195521900D01*
X268172313Y-195521900D02*
X268100884Y-195736185D01*
X268100884Y-195736185D02*
X267243741Y-196593328D01*
X267243741Y-196593328D02*
X268172313Y-196593328D01*
X269886598Y-195021900D02*
X268600884Y-196950471D01*
X270458027Y-196593328D02*
X270743741Y-196593328D01*
X270743741Y-196593328D02*
X270886598Y-196521900D01*
X270886598Y-196521900D02*
X270958027Y-196450471D01*
X270958027Y-196450471D02*
X271100884Y-196236185D01*
X271100884Y-196236185D02*
X271172313Y-195950471D01*
X271172313Y-195950471D02*
X271172313Y-195379042D01*
X271172313Y-195379042D02*
X271100884Y-195236185D01*
X271100884Y-195236185D02*
X271029456Y-195164757D01*
X271029456Y-195164757D02*
X270886598Y-195093328D01*
X270886598Y-195093328D02*
X270600884Y-195093328D01*
X270600884Y-195093328D02*
X270458027Y-195164757D01*
X270458027Y-195164757D02*
X270386598Y-195236185D01*
X270386598Y-195236185D02*
X270315170Y-195379042D01*
X270315170Y-195379042D02*
X270315170Y-195736185D01*
X270315170Y-195736185D02*
X270386598Y-195879042D01*
X270386598Y-195879042D02*
X270458027Y-195950471D01*
X270458027Y-195950471D02*
X270600884Y-196021900D01*
X270600884Y-196021900D02*
X270886598Y-196021900D01*
X270886598Y-196021900D02*
X271029456Y-195950471D01*
X271029456Y-195950471D02*
X271100884Y-195879042D01*
X271100884Y-195879042D02*
X271172313Y-195736185D01*
D10*
D11*
X177002200Y-187507200D02*
X285002200Y-187507200D01*
D10*
D13*
X178693928Y-188211638D02*
X179836785Y-188211638D01*
X179015357Y-190211638D02*
X179265357Y-188211638D01*
X180253452Y-190211638D02*
X180420119Y-188878304D01*
X180503452Y-188211638D02*
X180396309Y-188306876D01*
X180396309Y-188306876D02*
X180479643Y-188402114D01*
X180479643Y-188402114D02*
X180586786Y-188306876D01*
X180586786Y-188306876D02*
X180503452Y-188211638D01*
X180503452Y-188211638D02*
X180479643Y-188402114D01*
X181086786Y-188878304D02*
X181848690Y-188878304D01*
X181455833Y-188211638D02*
X181241548Y-189925923D01*
X181241548Y-189925923D02*
X181312976Y-190116400D01*
X181312976Y-190116400D02*
X181491548Y-190211638D01*
X181491548Y-190211638D02*
X181682024Y-190211638D01*
X182634405Y-190211638D02*
X182455833Y-190116400D01*
X182455833Y-190116400D02*
X182384405Y-189925923D01*
X182384405Y-189925923D02*
X182598690Y-188211638D01*
X184170119Y-190116400D02*
X183967738Y-190211638D01*
X183967738Y-190211638D02*
X183586785Y-190211638D01*
X183586785Y-190211638D02*
X183408214Y-190116400D01*
X183408214Y-190116400D02*
X183336785Y-189925923D01*
X183336785Y-189925923D02*
X183432024Y-189164019D01*
X183432024Y-189164019D02*
X183551071Y-188973542D01*
X183551071Y-188973542D02*
X183753452Y-188878304D01*
X183753452Y-188878304D02*
X184134404Y-188878304D01*
X184134404Y-188878304D02*
X184312976Y-188973542D01*
X184312976Y-188973542D02*
X184384404Y-189164019D01*
X184384404Y-189164019D02*
X184360595Y-189354495D01*
X184360595Y-189354495D02*
X183384404Y-189544971D01*
X185134405Y-190021161D02*
X185217738Y-190116400D01*
X185217738Y-190116400D02*
X185110595Y-190211638D01*
X185110595Y-190211638D02*
X185027262Y-190116400D01*
X185027262Y-190116400D02*
X185134405Y-190021161D01*
X185134405Y-190021161D02*
X185110595Y-190211638D01*
X185265357Y-188973542D02*
X185348690Y-189068780D01*
X185348690Y-189068780D02*
X185241548Y-189164019D01*
X185241548Y-189164019D02*
X185158214Y-189068780D01*
X185158214Y-189068780D02*
X185265357Y-188973542D01*
X185265357Y-188973542D02*
X185241548Y-189164019D01*
D10*
D11*
X178958026Y-185607614D02*
X178458026Y-185607614D01*
X178458026Y-186393328D02*
X178458026Y-184893328D01*
X178458026Y-184893328D02*
X179172312Y-184893328D01*
X179743740Y-186393328D02*
X179743740Y-185393328D01*
X179743740Y-184893328D02*
X179672312Y-184964757D01*
X179672312Y-184964757D02*
X179743740Y-185036185D01*
X179743740Y-185036185D02*
X179815169Y-184964757D01*
X179815169Y-184964757D02*
X179743740Y-184893328D01*
X179743740Y-184893328D02*
X179743740Y-185036185D01*
X180672312Y-186393328D02*
X180529455Y-186321900D01*
X180529455Y-186321900D02*
X180458026Y-186179042D01*
X180458026Y-186179042D02*
X180458026Y-184893328D01*
X181815169Y-186321900D02*
X181672312Y-186393328D01*
X181672312Y-186393328D02*
X181386598Y-186393328D01*
X181386598Y-186393328D02*
X181243740Y-186321900D01*
X181243740Y-186321900D02*
X181172312Y-186179042D01*
X181172312Y-186179042D02*
X181172312Y-185607614D01*
X181172312Y-185607614D02*
X181243740Y-185464757D01*
X181243740Y-185464757D02*
X181386598Y-185393328D01*
X181386598Y-185393328D02*
X181672312Y-185393328D01*
X181672312Y-185393328D02*
X181815169Y-185464757D01*
X181815169Y-185464757D02*
X181886598Y-185607614D01*
X181886598Y-185607614D02*
X181886598Y-185750471D01*
X181886598Y-185750471D02*
X181172312Y-185893328D01*
X182529454Y-186250471D02*
X182600883Y-186321900D01*
X182600883Y-186321900D02*
X182529454Y-186393328D01*
X182529454Y-186393328D02*
X182458026Y-186321900D01*
X182458026Y-186321900D02*
X182529454Y-186250471D01*
X182529454Y-186250471D02*
X182529454Y-186393328D01*
X182529454Y-185464757D02*
X182600883Y-185536185D01*
X182600883Y-185536185D02*
X182529454Y-185607614D01*
X182529454Y-185607614D02*
X182458026Y-185536185D01*
X182458026Y-185536185D02*
X182529454Y-185464757D01*
X182529454Y-185464757D02*
X182529454Y-185607614D01*
X184386597Y-185393328D02*
X184386597Y-186893328D01*
X184386597Y-185464757D02*
X184529455Y-185393328D01*
X184529455Y-185393328D02*
X184815169Y-185393328D01*
X184815169Y-185393328D02*
X184958026Y-185464757D01*
X184958026Y-185464757D02*
X185029455Y-185536185D01*
X185029455Y-185536185D02*
X185100883Y-185679042D01*
X185100883Y-185679042D02*
X185100883Y-186107614D01*
X185100883Y-186107614D02*
X185029455Y-186250471D01*
X185029455Y-186250471D02*
X184958026Y-186321900D01*
X184958026Y-186321900D02*
X184815169Y-186393328D01*
X184815169Y-186393328D02*
X184529455Y-186393328D01*
X184529455Y-186393328D02*
X184386597Y-186321900D01*
X185743740Y-186393328D02*
X185743740Y-184893328D01*
X186386598Y-186393328D02*
X186386598Y-185607614D01*
X186386598Y-185607614D02*
X186315169Y-185464757D01*
X186315169Y-185464757D02*
X186172312Y-185393328D01*
X186172312Y-185393328D02*
X185958026Y-185393328D01*
X185958026Y-185393328D02*
X185815169Y-185464757D01*
X185815169Y-185464757D02*
X185743740Y-185536185D01*
X187315169Y-186393328D02*
X187172312Y-186321900D01*
X187172312Y-186321900D02*
X187100883Y-186250471D01*
X187100883Y-186250471D02*
X187029455Y-186107614D01*
X187029455Y-186107614D02*
X187029455Y-185679042D01*
X187029455Y-185679042D02*
X187100883Y-185536185D01*
X187100883Y-185536185D02*
X187172312Y-185464757D01*
X187172312Y-185464757D02*
X187315169Y-185393328D01*
X187315169Y-185393328D02*
X187529455Y-185393328D01*
X187529455Y-185393328D02*
X187672312Y-185464757D01*
X187672312Y-185464757D02*
X187743741Y-185536185D01*
X187743741Y-185536185D02*
X187815169Y-185679042D01*
X187815169Y-185679042D02*
X187815169Y-186107614D01*
X187815169Y-186107614D02*
X187743741Y-186250471D01*
X187743741Y-186250471D02*
X187672312Y-186321900D01*
X187672312Y-186321900D02*
X187529455Y-186393328D01*
X187529455Y-186393328D02*
X187315169Y-186393328D01*
X188458026Y-185393328D02*
X188458026Y-186393328D01*
X188458026Y-185536185D02*
X188529455Y-185464757D01*
X188529455Y-185464757D02*
X188672312Y-185393328D01*
X188672312Y-185393328D02*
X188886598Y-185393328D01*
X188886598Y-185393328D02*
X189029455Y-185464757D01*
X189029455Y-185464757D02*
X189100884Y-185607614D01*
X189100884Y-185607614D02*
X189100884Y-186393328D01*
X190386598Y-186321900D02*
X190243741Y-186393328D01*
X190243741Y-186393328D02*
X189958027Y-186393328D01*
X189958027Y-186393328D02*
X189815169Y-186321900D01*
X189815169Y-186321900D02*
X189743741Y-186179042D01*
X189743741Y-186179042D02*
X189743741Y-185607614D01*
X189743741Y-185607614D02*
X189815169Y-185464757D01*
X189815169Y-185464757D02*
X189958027Y-185393328D01*
X189958027Y-185393328D02*
X190243741Y-185393328D01*
X190243741Y-185393328D02*
X190386598Y-185464757D01*
X190386598Y-185464757D02*
X190458027Y-185607614D01*
X190458027Y-185607614D02*
X190458027Y-185750471D01*
X190458027Y-185750471D02*
X189743741Y-185893328D01*
X190743741Y-186536185D02*
X191886598Y-186536185D01*
X192243740Y-186393328D02*
X192243740Y-185393328D01*
X192243740Y-185536185D02*
X192315169Y-185464757D01*
X192315169Y-185464757D02*
X192458026Y-185393328D01*
X192458026Y-185393328D02*
X192672312Y-185393328D01*
X192672312Y-185393328D02*
X192815169Y-185464757D01*
X192815169Y-185464757D02*
X192886598Y-185607614D01*
X192886598Y-185607614D02*
X192886598Y-186393328D01*
X192886598Y-185607614D02*
X192958026Y-185464757D01*
X192958026Y-185464757D02*
X193100883Y-185393328D01*
X193100883Y-185393328D02*
X193315169Y-185393328D01*
X193315169Y-185393328D02*
X193458026Y-185464757D01*
X193458026Y-185464757D02*
X193529455Y-185607614D01*
X193529455Y-185607614D02*
X193529455Y-186393328D01*
X194243740Y-186393328D02*
X194243740Y-185393328D01*
X194243740Y-184893328D02*
X194172312Y-184964757D01*
X194172312Y-184964757D02*
X194243740Y-185036185D01*
X194243740Y-185036185D02*
X194315169Y-184964757D01*
X194315169Y-184964757D02*
X194243740Y-184893328D01*
X194243740Y-184893328D02*
X194243740Y-185036185D01*
X195600884Y-186321900D02*
X195458026Y-186393328D01*
X195458026Y-186393328D02*
X195172312Y-186393328D01*
X195172312Y-186393328D02*
X195029455Y-186321900D01*
X195029455Y-186321900D02*
X194958026Y-186250471D01*
X194958026Y-186250471D02*
X194886598Y-186107614D01*
X194886598Y-186107614D02*
X194886598Y-185679042D01*
X194886598Y-185679042D02*
X194958026Y-185536185D01*
X194958026Y-185536185D02*
X195029455Y-185464757D01*
X195029455Y-185464757D02*
X195172312Y-185393328D01*
X195172312Y-185393328D02*
X195458026Y-185393328D01*
X195458026Y-185393328D02*
X195600884Y-185464757D01*
X195886598Y-186536185D02*
X197029455Y-186536185D01*
X197386597Y-185393328D02*
X197386597Y-186679042D01*
X197386597Y-186679042D02*
X197315169Y-186821900D01*
X197315169Y-186821900D02*
X197172312Y-186893328D01*
X197172312Y-186893328D02*
X197100883Y-186893328D01*
X197386597Y-184893328D02*
X197315169Y-184964757D01*
X197315169Y-184964757D02*
X197386597Y-185036185D01*
X197386597Y-185036185D02*
X197458026Y-184964757D01*
X197458026Y-184964757D02*
X197386597Y-184893328D01*
X197386597Y-184893328D02*
X197386597Y-185036185D01*
X198029455Y-186321900D02*
X198172312Y-186393328D01*
X198172312Y-186393328D02*
X198458026Y-186393328D01*
X198458026Y-186393328D02*
X198600883Y-186321900D01*
X198600883Y-186321900D02*
X198672312Y-186179042D01*
X198672312Y-186179042D02*
X198672312Y-186107614D01*
X198672312Y-186107614D02*
X198600883Y-185964757D01*
X198600883Y-185964757D02*
X198458026Y-185893328D01*
X198458026Y-185893328D02*
X198243741Y-185893328D01*
X198243741Y-185893328D02*
X198100883Y-185821900D01*
X198100883Y-185821900D02*
X198029455Y-185679042D01*
X198029455Y-185679042D02*
X198029455Y-185607614D01*
X198029455Y-185607614D02*
X198100883Y-185464757D01*
X198100883Y-185464757D02*
X198243741Y-185393328D01*
X198243741Y-185393328D02*
X198458026Y-185393328D01*
X198458026Y-185393328D02*
X198600883Y-185464757D01*
X199100884Y-185393328D02*
X199672312Y-185393328D01*
X199315169Y-184893328D02*
X199315169Y-186179042D01*
X199315169Y-186179042D02*
X199386598Y-186321900D01*
X199386598Y-186321900D02*
X199529455Y-186393328D01*
X199529455Y-186393328D02*
X199672312Y-186393328D01*
X200172312Y-186250471D02*
X200243741Y-186321900D01*
X200243741Y-186321900D02*
X200172312Y-186393328D01*
X200172312Y-186393328D02*
X200100884Y-186321900D01*
X200100884Y-186321900D02*
X200172312Y-186250471D01*
X200172312Y-186250471D02*
X200172312Y-186393328D01*
X200886598Y-186393328D02*
X200886598Y-184893328D01*
X201029456Y-185821900D02*
X201458027Y-186393328D01*
X201458027Y-185393328D02*
X200886598Y-185964757D01*
X202100884Y-186393328D02*
X202100884Y-185393328D01*
X202100884Y-184893328D02*
X202029456Y-184964757D01*
X202029456Y-184964757D02*
X202100884Y-185036185D01*
X202100884Y-185036185D02*
X202172313Y-184964757D01*
X202172313Y-184964757D02*
X202100884Y-184893328D01*
X202100884Y-184893328D02*
X202100884Y-185036185D01*
X203458028Y-186321900D02*
X203315170Y-186393328D01*
X203315170Y-186393328D02*
X203029456Y-186393328D01*
X203029456Y-186393328D02*
X202886599Y-186321900D01*
X202886599Y-186321900D02*
X202815170Y-186250471D01*
X202815170Y-186250471D02*
X202743742Y-186107614D01*
X202743742Y-186107614D02*
X202743742Y-185679042D01*
X202743742Y-185679042D02*
X202815170Y-185536185D01*
X202815170Y-185536185D02*
X202886599Y-185464757D01*
X202886599Y-185464757D02*
X203029456Y-185393328D01*
X203029456Y-185393328D02*
X203315170Y-185393328D01*
X203315170Y-185393328D02*
X203458028Y-185464757D01*
X204743742Y-186393328D02*
X204743742Y-185607614D01*
X204743742Y-185607614D02*
X204672313Y-185464757D01*
X204672313Y-185464757D02*
X204529456Y-185393328D01*
X204529456Y-185393328D02*
X204243742Y-185393328D01*
X204243742Y-185393328D02*
X204100884Y-185464757D01*
X204743742Y-186321900D02*
X204600884Y-186393328D01*
X204600884Y-186393328D02*
X204243742Y-186393328D01*
X204243742Y-186393328D02*
X204100884Y-186321900D01*
X204100884Y-186321900D02*
X204029456Y-186179042D01*
X204029456Y-186179042D02*
X204029456Y-186036185D01*
X204029456Y-186036185D02*
X204100884Y-185893328D01*
X204100884Y-185893328D02*
X204243742Y-185821900D01*
X204243742Y-185821900D02*
X204600884Y-185821900D01*
X204600884Y-185821900D02*
X204743742Y-185750471D01*
X206100885Y-186393328D02*
X206100885Y-184893328D01*
X206100885Y-186321900D02*
X205958027Y-186393328D01*
X205958027Y-186393328D02*
X205672313Y-186393328D01*
X205672313Y-186393328D02*
X205529456Y-186321900D01*
X205529456Y-186321900D02*
X205458027Y-186250471D01*
X205458027Y-186250471D02*
X205386599Y-186107614D01*
X205386599Y-186107614D02*
X205386599Y-185679042D01*
X205386599Y-185679042D02*
X205458027Y-185536185D01*
X205458027Y-185536185D02*
X205529456Y-185464757D01*
X205529456Y-185464757D02*
X205672313Y-185393328D01*
X205672313Y-185393328D02*
X205958027Y-185393328D01*
X205958027Y-185393328D02*
X206100885Y-185464757D01*
X206458028Y-186536185D02*
X207600885Y-186536185D01*
X207958027Y-185393328D02*
X207958027Y-186893328D01*
X207958027Y-185464757D02*
X208100885Y-185393328D01*
X208100885Y-185393328D02*
X208386599Y-185393328D01*
X208386599Y-185393328D02*
X208529456Y-185464757D01*
X208529456Y-185464757D02*
X208600885Y-185536185D01*
X208600885Y-185536185D02*
X208672313Y-185679042D01*
X208672313Y-185679042D02*
X208672313Y-186107614D01*
X208672313Y-186107614D02*
X208600885Y-186250471D01*
X208600885Y-186250471D02*
X208529456Y-186321900D01*
X208529456Y-186321900D02*
X208386599Y-186393328D01*
X208386599Y-186393328D02*
X208100885Y-186393328D01*
X208100885Y-186393328D02*
X207958027Y-186321900D01*
X209958028Y-186321900D02*
X209815170Y-186393328D01*
X209815170Y-186393328D02*
X209529456Y-186393328D01*
X209529456Y-186393328D02*
X209386599Y-186321900D01*
X209386599Y-186321900D02*
X209315170Y-186250471D01*
X209315170Y-186250471D02*
X209243742Y-186107614D01*
X209243742Y-186107614D02*
X209243742Y-185679042D01*
X209243742Y-185679042D02*
X209315170Y-185536185D01*
X209315170Y-185536185D02*
X209386599Y-185464757D01*
X209386599Y-185464757D02*
X209529456Y-185393328D01*
X209529456Y-185393328D02*
X209815170Y-185393328D01*
X209815170Y-185393328D02*
X209958028Y-185464757D01*
X210600884Y-186393328D02*
X210600884Y-184893328D01*
X210600884Y-185464757D02*
X210743742Y-185393328D01*
X210743742Y-185393328D02*
X211029456Y-185393328D01*
X211029456Y-185393328D02*
X211172313Y-185464757D01*
X211172313Y-185464757D02*
X211243742Y-185536185D01*
X211243742Y-185536185D02*
X211315170Y-185679042D01*
X211315170Y-185679042D02*
X211315170Y-186107614D01*
X211315170Y-186107614D02*
X211243742Y-186250471D01*
X211243742Y-186250471D02*
X211172313Y-186321900D01*
X211172313Y-186321900D02*
X211029456Y-186393328D01*
X211029456Y-186393328D02*
X210743742Y-186393328D01*
X210743742Y-186393328D02*
X210600884Y-186321900D01*
D10*
D11*
X177002200Y-181507200D02*
X285002200Y-181507200D01*
D10*
D11*
X178386598Y-183621900D02*
X178600884Y-183693328D01*
X178600884Y-183693328D02*
X178958026Y-183693328D01*
X178958026Y-183693328D02*
X179100884Y-183621900D01*
X179100884Y-183621900D02*
X179172312Y-183550471D01*
X179172312Y-183550471D02*
X179243741Y-183407614D01*
X179243741Y-183407614D02*
X179243741Y-183264757D01*
X179243741Y-183264757D02*
X179172312Y-183121900D01*
X179172312Y-183121900D02*
X179100884Y-183050471D01*
X179100884Y-183050471D02*
X178958026Y-182979042D01*
X178958026Y-182979042D02*
X178672312Y-182907614D01*
X178672312Y-182907614D02*
X178529455Y-182836185D01*
X178529455Y-182836185D02*
X178458026Y-182764757D01*
X178458026Y-182764757D02*
X178386598Y-182621900D01*
X178386598Y-182621900D02*
X178386598Y-182479042D01*
X178386598Y-182479042D02*
X178458026Y-182336185D01*
X178458026Y-182336185D02*
X178529455Y-182264757D01*
X178529455Y-182264757D02*
X178672312Y-182193328D01*
X178672312Y-182193328D02*
X179029455Y-182193328D01*
X179029455Y-182193328D02*
X179243741Y-182264757D01*
X179886597Y-183693328D02*
X179886597Y-182193328D01*
X180529455Y-183693328D02*
X180529455Y-182907614D01*
X180529455Y-182907614D02*
X180458026Y-182764757D01*
X180458026Y-182764757D02*
X180315169Y-182693328D01*
X180315169Y-182693328D02*
X180100883Y-182693328D01*
X180100883Y-182693328D02*
X179958026Y-182764757D01*
X179958026Y-182764757D02*
X179886597Y-182836185D01*
X181815169Y-183621900D02*
X181672312Y-183693328D01*
X181672312Y-183693328D02*
X181386598Y-183693328D01*
X181386598Y-183693328D02*
X181243740Y-183621900D01*
X181243740Y-183621900D02*
X181172312Y-183479042D01*
X181172312Y-183479042D02*
X181172312Y-182907614D01*
X181172312Y-182907614D02*
X181243740Y-182764757D01*
X181243740Y-182764757D02*
X181386598Y-182693328D01*
X181386598Y-182693328D02*
X181672312Y-182693328D01*
X181672312Y-182693328D02*
X181815169Y-182764757D01*
X181815169Y-182764757D02*
X181886598Y-182907614D01*
X181886598Y-182907614D02*
X181886598Y-183050471D01*
X181886598Y-183050471D02*
X181172312Y-183193328D01*
X183100883Y-183621900D02*
X182958026Y-183693328D01*
X182958026Y-183693328D02*
X182672312Y-183693328D01*
X182672312Y-183693328D02*
X182529454Y-183621900D01*
X182529454Y-183621900D02*
X182458026Y-183479042D01*
X182458026Y-183479042D02*
X182458026Y-182907614D01*
X182458026Y-182907614D02*
X182529454Y-182764757D01*
X182529454Y-182764757D02*
X182672312Y-182693328D01*
X182672312Y-182693328D02*
X182958026Y-182693328D01*
X182958026Y-182693328D02*
X183100883Y-182764757D01*
X183100883Y-182764757D02*
X183172312Y-182907614D01*
X183172312Y-182907614D02*
X183172312Y-183050471D01*
X183172312Y-183050471D02*
X182458026Y-183193328D01*
X183600883Y-182693328D02*
X184172311Y-182693328D01*
X183815168Y-182193328D02*
X183815168Y-183479042D01*
X183815168Y-183479042D02*
X183886597Y-183621900D01*
X183886597Y-183621900D02*
X184029454Y-183693328D01*
X184029454Y-183693328D02*
X184172311Y-183693328D01*
X184672311Y-183550471D02*
X184743740Y-183621900D01*
X184743740Y-183621900D02*
X184672311Y-183693328D01*
X184672311Y-183693328D02*
X184600883Y-183621900D01*
X184600883Y-183621900D02*
X184672311Y-183550471D01*
X184672311Y-183550471D02*
X184672311Y-183693328D01*
X184672311Y-182764757D02*
X184743740Y-182836185D01*
X184743740Y-182836185D02*
X184672311Y-182907614D01*
X184672311Y-182907614D02*
X184600883Y-182836185D01*
X184600883Y-182836185D02*
X184672311Y-182764757D01*
X184672311Y-182764757D02*
X184672311Y-182907614D01*
D10*
D11*
X197002200Y-191507200D02*
X197002200Y-194507200D01*
D10*
D11*
X261002200Y-191507200D02*
X261002200Y-198007200D01*
D14*
%TO.P,D1,1,K*%
%TO.N,GND*%
X111320000Y-84600000D03*
D15*
%TO.P,D1,2,A*%
%TO.N,Net-(D1-A)*%
X108780000Y-84600000D03*
%TD*%
D16*
%TO.P,SW1,1,A*%
%TO.N,Net-(R1-Pad2)*%
X126150000Y-84800000D03*
D17*
%TO.P,SW1,2,B*%
%TO.N,+9V*%
X124150000Y-84800000D03*
%TO.P,SW1,3,C*%
%TO.N,unconnected-(SW1-C-Pad3)*%
X122150000Y-84800000D03*
%TO.P,SW1,4,A*%
%TO.N,Net-(R3-Pad1)*%
X120150000Y-84800000D03*
%TO.P,SW1,5,B*%
%TO.N,Net-(J2-Pad2)*%
X118150000Y-84800000D03*
%TO.P,SW1,6,C*%
%TO.N,Net-(C1-Pad2)*%
X116150000Y-84800000D03*
%TD*%
D18*
%TO.P,R_LED_1,1*%
%TO.N,Net-(D1-A)*%
X104310000Y-84650000D03*
%TO.P,R_LED_1,2*%
%TO.N,+9V*%
X96690000Y-84650000D03*
%TD*%
D19*
%TO.P,REF\u002A\u002A,1*%
%TO.N,N/C*%
X132625000Y-87600000D03*
%TD*%
D18*
%TO.P,R3,1*%
%TO.N,Net-(R3-Pad1)*%
X123550000Y-67810000D03*
%TO.P,R3,2*%
%TO.N,Net-(C2-Pad2)*%
X123550000Y-60190000D03*
%TD*%
%TO.P,R4,1*%
%TO.N,GND*%
X98100000Y-72810000D03*
%TO.P,R4,2*%
%TO.N,Net-(J4-Pin_2)*%
X98100000Y-65190000D03*
%TD*%
D19*
%TO.P,REF\u002A\u002A,1*%
%TO.N,N/C*%
X106050000Y-70450000D03*
%TD*%
D18*
%TO.P,R2,1*%
%TO.N,Net-(C2-Pad2)*%
X111300000Y-60140000D03*
%TO.P,R2,2*%
%TO.N,Net-(J4-Pin_1)*%
X111300000Y-67760000D03*
%TD*%
D20*
%TO.P,J2,1*%
%TO.N,unconnected-(J2-Pad1)*%
X126400000Y-73150000D03*
D21*
%TO.P,J2,2*%
%TO.N,Net-(J2-Pad2)*%
X126400000Y-75150000D03*
%TO.P,J2,3*%
%TO.N,GND*%
X126400000Y-77150000D03*
%TD*%
D22*
%TO.P,J1,1,In*%
%TO.N,GND*%
X88450000Y-76250000D03*
D23*
%TO.P,J1,2,Ext*%
%TO.N,+9V*%
X88450000Y-82550000D03*
D24*
%TO.P,J1,3*%
%TO.N,N/C*%
X93250000Y-79150000D03*
%TD*%
D25*
%TO.P,C2,1*%
%TO.N,Net-(J4-Pin_1)*%
X98950000Y-60150000D03*
D18*
%TO.P,C2,2*%
%TO.N,Net-(C2-Pad2)*%
X100950000Y-60150000D03*
%TD*%
%TO.P,C1,1*%
%TO.N,Net-(J4-Pin_2)*%
X103700000Y-76000000D03*
%TO.P,C1,2*%
%TO.N,Net-(C1-Pad2)*%
X105700000Y-76000000D03*
%TD*%
D19*
%TO.P,REF\u002A\u002A,1*%
%TO.N,N/C*%
X132350000Y-59650000D03*
%TD*%
D18*
%TO.P,R1,1*%
%TO.N,Net-(J4-Pin_1)*%
X111290000Y-74500000D03*
%TO.P,R1,2*%
%TO.N,Net-(R1-Pad2)*%
X118910000Y-74500000D03*
%TD*%
D26*
%TO.P,J4,1,Pin_1*%
%TO.N,Net-(J4-Pin_1)*%
X88450000Y-60100000D03*
D27*
%TO.P,J4,2,Pin_2*%
%TO.N,Net-(J4-Pin_2)*%
X88450000Y-65100000D03*
%TO.P,J4,3,Pin_3*%
%TO.N,GND*%
X88450000Y-70100000D03*
%TD*%
D19*
%TO.P,REF\u002A\u002A,1*%
%TO.N,N/C*%
X79500000Y-87600000D03*
%TD*%
D28*
%TO.N,GND*%
X125800000Y-77150000D02*
X126400000Y-77150000D01*
X92100000Y-82350000D02*
X88450000Y-78700000D01*
X123950000Y-79000000D02*
X125800000Y-77150000D01*
X88450000Y-70100000D02*
X95390000Y-70100000D01*
X95390000Y-70100000D02*
X98100000Y-72810000D01*
X98100000Y-72810000D02*
X98100000Y-76300000D01*
X98100000Y-76300000D02*
X100800000Y-79000000D01*
X111320000Y-84600000D02*
X109070000Y-82350000D01*
X100800000Y-79000000D02*
X123950000Y-79000000D01*
X88450000Y-76250000D02*
X88450000Y-70100000D01*
X109070000Y-82350000D02*
X92100000Y-82350000D01*
X88450000Y-78700000D02*
X88450000Y-76250000D01*
%TD*%
%TA.AperFunction,Conductor*%
%TO.N,GND*%
G36*
X135292539Y-56570185D02*
G01*
X135338294Y-56622989D01*
X135349500Y-56674500D01*
X135349500Y-90425500D01*
X135329815Y-90492539D01*
X135277011Y-90538294D01*
X135225500Y-90549500D01*
X76474500Y-90549500D01*
X76407461Y-90529815D01*
X76361706Y-90477011D01*
X76350500Y-90425500D01*
X76350500Y-87452486D01*
X77249500Y-87452486D01*
X77249500Y-87747513D01*
X77281571Y-87991113D01*
X77288007Y-88039993D01*
X77288008Y-88039995D01*
X77364361Y-88324951D01*
X77364364Y-88324961D01*
X77477254Y-88597500D01*
X77477258Y-88597510D01*
X77624761Y-88852993D01*
X77804352Y-89087040D01*
X77804358Y-89087047D01*
X78012952Y-89295641D01*
X78012959Y-89295647D01*
X78247006Y-89475238D01*
X78502489Y-89622741D01*
X78502490Y-89622741D01*
X78502493Y-89622743D01*
X78775048Y-89735639D01*
X79060007Y-89811993D01*
X79352494Y-89850500D01*
X79352501Y-89850500D01*
X79647499Y-89850500D01*
X79647506Y-89850500D01*
X79939993Y-89811993D01*
X80224952Y-89735639D01*
X80497507Y-89622743D01*
X80752994Y-89475238D01*
X80987042Y-89295646D01*
X81195646Y-89087042D01*
X81375238Y-88852994D01*
X81522743Y-88597507D01*
X81635639Y-88324952D01*
X81711993Y-88039993D01*
X81750500Y-87747506D01*
X81750500Y-87452494D01*
X81750499Y-87452486D01*
X130374500Y-87452486D01*
X130374500Y-87747513D01*
X130406571Y-87991113D01*
X130413007Y-88039993D01*
X130413008Y-88039995D01*
X130489361Y-88324951D01*
X130489364Y-88324961D01*
X130602254Y-88597500D01*
X130602258Y-88597510D01*
X130749761Y-88852993D01*
X130929352Y-89087040D01*
X130929358Y-89087047D01*
X131137952Y-89295641D01*
X131137959Y-89295647D01*
X131372006Y-89475238D01*
X131627489Y-89622741D01*
X131627490Y-89622741D01*
X131627493Y-89622743D01*
X131900048Y-89735639D01*
X132185007Y-89811993D01*
X132477494Y-89850500D01*
X132477501Y-89850500D01*
X132772499Y-89850500D01*
X132772506Y-89850500D01*
X133064993Y-89811993D01*
X133349952Y-89735639D01*
X133622507Y-89622743D01*
X133877994Y-89475238D01*
X134112042Y-89295646D01*
X134320646Y-89087042D01*
X134500238Y-88852994D01*
X134647743Y-88597507D01*
X134760639Y-88324952D01*
X134836993Y-88039993D01*
X134875500Y-87747506D01*
X134875500Y-87452494D01*
X134836993Y-87160007D01*
X134760639Y-86875048D01*
X134647743Y-86602493D01*
X134500238Y-86347006D01*
X134320647Y-86112959D01*
X134320641Y-86112952D01*
X134112047Y-85904358D01*
X134112040Y-85904352D01*
X133877993Y-85724761D01*
X133622510Y-85577258D01*
X133622500Y-85577254D01*
X133349961Y-85464364D01*
X133349954Y-85464362D01*
X133349952Y-85464361D01*
X133064993Y-85388007D01*
X133016113Y-85381571D01*
X132772513Y-85349500D01*
X132772506Y-85349500D01*
X132477494Y-85349500D01*
X132477486Y-85349500D01*
X132199085Y-85386153D01*
X132185007Y-85388007D01*
X131900048Y-85464361D01*
X131900038Y-85464364D01*
X131627499Y-85577254D01*
X131627489Y-85577258D01*
X131372006Y-85724761D01*
X131137959Y-85904352D01*
X131137952Y-85904358D01*
X130929358Y-86112952D01*
X130929352Y-86112959D01*
X130749761Y-86347006D01*
X130602258Y-86602489D01*
X130602254Y-86602499D01*
X130489364Y-86875038D01*
X130489361Y-86875048D01*
X130413008Y-87160004D01*
X130413006Y-87160015D01*
X130374500Y-87452486D01*
X81750499Y-87452486D01*
X81711993Y-87160007D01*
X81635639Y-86875048D01*
X81522743Y-86602493D01*
X81375238Y-86347006D01*
X81195647Y-86112959D01*
X81195641Y-86112952D01*
X80987047Y-85904358D01*
X80987040Y-85904352D01*
X80752993Y-85724761D01*
X80497510Y-85577258D01*
X80497500Y-85577254D01*
X80224961Y-85464364D01*
X80224954Y-85464362D01*
X80224952Y-85464361D01*
X79939993Y-85388007D01*
X79891113Y-85381571D01*
X79647513Y-85349500D01*
X79647506Y-85349500D01*
X79352494Y-85349500D01*
X79352486Y-85349500D01*
X79074085Y-85386153D01*
X79060007Y-85388007D01*
X78775048Y-85464361D01*
X78775038Y-85464364D01*
X78502499Y-85577254D01*
X78502489Y-85577258D01*
X78247006Y-85724761D01*
X78012959Y-85904352D01*
X78012952Y-85904358D01*
X77804358Y-86112952D01*
X77804352Y-86112959D01*
X77624761Y-86347006D01*
X77477258Y-86602489D01*
X77477254Y-86602499D01*
X77364364Y-86875038D01*
X77364361Y-86875048D01*
X77288008Y-87160004D01*
X77288006Y-87160015D01*
X77249500Y-87452486D01*
X76350500Y-87452486D01*
X76350500Y-84547648D01*
X95389500Y-84547648D01*
X95389500Y-84752351D01*
X95421522Y-84954534D01*
X95484781Y-85149223D01*
X95577715Y-85331613D01*
X95698028Y-85497213D01*
X95842786Y-85641971D01*
X95983682Y-85744336D01*
X96008390Y-85762287D01*
X96078112Y-85797812D01*
X96190776Y-85855218D01*
X96190778Y-85855218D01*
X96190781Y-85855220D01*
X96295137Y-85889127D01*
X96385465Y-85918477D01*
X96486557Y-85934488D01*
X96587648Y-85950500D01*
X96587649Y-85950500D01*
X96792351Y-85950500D01*
X96792352Y-85950500D01*
X96994534Y-85918477D01*
X97189219Y-85855220D01*
X97371610Y-85762287D01*
X97464590Y-85694732D01*
X97537213Y-85641971D01*
X97537215Y-85641968D01*
X97537219Y-85641966D01*
X97681966Y-85497219D01*
X97681968Y-85497215D01*
X97681971Y-85497213D01*
X97734732Y-85424590D01*
X97802287Y-85331610D01*
X97895220Y-85149219D01*
X97958477Y-84954534D01*
X97990500Y-84752352D01*
X97990500Y-84547648D01*
X103009500Y-84547648D01*
X103009500Y-84752351D01*
X103041522Y-84954534D01*
X103104781Y-85149223D01*
X103197715Y-85331613D01*
X103318028Y-85497213D01*
X103462786Y-85641971D01*
X103603682Y-85744336D01*
X103628390Y-85762287D01*
X103698112Y-85797812D01*
X103810776Y-85855218D01*
X103810778Y-85855218D01*
X103810781Y-85855220D01*
X103915137Y-85889127D01*
X104005465Y-85918477D01*
X104106557Y-85934488D01*
X104207648Y-85950500D01*
X104207649Y-85950500D01*
X104412351Y-85950500D01*
X104412352Y-85950500D01*
X104614534Y-85918477D01*
X104809219Y-85855220D01*
X104991610Y-85762287D01*
X105084590Y-85694732D01*
X105157213Y-85641971D01*
X105157215Y-85641968D01*
X105157219Y-85641966D01*
X105301966Y-85497219D01*
X105301968Y-85497215D01*
X105301971Y-85497213D01*
X105354732Y-85424590D01*
X105422287Y-85331610D01*
X105515220Y-85149219D01*
X105578477Y-84954534D01*
X105610500Y-84752352D01*
X105610500Y-84547648D01*
X105610500Y-84547647D01*
X105603635Y-84504303D01*
X105601334Y-84489778D01*
X107379500Y-84489778D01*
X107379500Y-84710221D01*
X107413985Y-84927952D01*
X107482103Y-85137603D01*
X107482104Y-85137606D01*
X107582187Y-85334025D01*
X107711752Y-85512358D01*
X107711756Y-85512363D01*
X107867636Y-85668243D01*
X107867641Y-85668247D01*
X108019215Y-85778371D01*
X108045978Y-85797815D01*
X108162501Y-85857187D01*
X108242393Y-85897895D01*
X108242396Y-85897896D01*
X108347221Y-85931955D01*
X108452049Y-85966015D01*
X108669778Y-86000500D01*
X108669779Y-86000500D01*
X108890221Y-86000500D01*
X108890222Y-86000500D01*
X109107951Y-85966015D01*
X109317606Y-85897895D01*
X109514022Y-85797815D01*
X109692365Y-85668242D01*
X109742924Y-85617682D01*
X109804245Y-85584198D01*
X109873936Y-85589182D01*
X109929870Y-85631053D01*
X109946786Y-85662030D01*
X109976646Y-85742087D01*
X109976649Y-85742093D01*
X110062809Y-85857187D01*
X110062812Y-85857190D01*
X110177906Y-85943350D01*
X110177913Y-85943354D01*
X110312620Y-85993596D01*
X110312627Y-85993598D01*
X110372155Y-85999999D01*
X110372172Y-86000000D01*
X111070000Y-86000000D01*
X111070000Y-84975277D01*
X111146306Y-85019333D01*
X111260756Y-85050000D01*
X111379244Y-85050000D01*
X111493694Y-85019333D01*
X111570000Y-84975277D01*
X111570000Y-86000000D01*
X112267828Y-86000000D01*
X112267844Y-85999999D01*
X112327372Y-85993598D01*
X112327379Y-85993596D01*
X112462086Y-85943354D01*
X112462093Y-85943350D01*
X112577187Y-85857190D01*
X112577190Y-85857187D01*
X112663350Y-85742093D01*
X112663354Y-85742086D01*
X112713596Y-85607379D01*
X112713598Y-85607372D01*
X112719999Y-85547844D01*
X112720000Y-85547827D01*
X112720000Y-84850000D01*
X111695278Y-84850000D01*
X111739333Y-84773694D01*
X111770000Y-84659244D01*
X111770000Y-84540756D01*
X111742571Y-84438389D01*
X115049500Y-84438389D01*
X115049500Y-85161610D01*
X115076425Y-85331613D01*
X115076598Y-85332701D01*
X115130127Y-85497445D01*
X115208768Y-85651788D01*
X115310586Y-85791928D01*
X115433072Y-85914414D01*
X115573212Y-86016232D01*
X115727555Y-86094873D01*
X115892299Y-86148402D01*
X116063389Y-86175500D01*
X116063390Y-86175500D01*
X116236610Y-86175500D01*
X116236611Y-86175500D01*
X116407701Y-86148402D01*
X116572445Y-86094873D01*
X116726788Y-86016232D01*
X116866928Y-85914414D01*
X116989414Y-85791928D01*
X117049682Y-85708975D01*
X117105012Y-85666311D01*
X117174626Y-85660332D01*
X117236421Y-85692938D01*
X117250315Y-85708973D01*
X117310586Y-85791928D01*
X117433072Y-85914414D01*
X117573212Y-86016232D01*
X117727555Y-86094873D01*
X117892299Y-86148402D01*
X118063389Y-86175500D01*
X118063390Y-86175500D01*
X118236610Y-86175500D01*
X118236611Y-86175500D01*
X118407701Y-86148402D01*
X118572445Y-86094873D01*
X118726788Y-86016232D01*
X118866928Y-85914414D01*
X118989414Y-85791928D01*
X119049682Y-85708975D01*
X119105012Y-85666311D01*
X119174626Y-85660332D01*
X119236421Y-85692938D01*
X119250315Y-85708973D01*
X119310586Y-85791928D01*
X119433072Y-85914414D01*
X119573212Y-86016232D01*
X119727555Y-86094873D01*
X119892299Y-86148402D01*
X120063389Y-86175500D01*
X120063390Y-86175500D01*
X120236610Y-86175500D01*
X120236611Y-86175500D01*
X120407701Y-86148402D01*
X120572445Y-86094873D01*
X120726788Y-86016232D01*
X120866928Y-85914414D01*
X120989414Y-85791928D01*
X121049682Y-85708975D01*
X121105012Y-85666311D01*
X121174626Y-85660332D01*
X121236421Y-85692938D01*
X121250315Y-85708973D01*
X121310586Y-85791928D01*
X121433072Y-85914414D01*
X121573212Y-86016232D01*
X121727555Y-86094873D01*
X121892299Y-86148402D01*
X122063389Y-86175500D01*
X122063390Y-86175500D01*
X122236610Y-86175500D01*
X122236611Y-86175500D01*
X122407701Y-86148402D01*
X122572445Y-86094873D01*
X122726788Y-86016232D01*
X122866928Y-85914414D01*
X122989414Y-85791928D01*
X123049682Y-85708975D01*
X123105012Y-85666311D01*
X123174626Y-85660332D01*
X123236421Y-85692938D01*
X123250315Y-85708973D01*
X123310586Y-85791928D01*
X123433072Y-85914414D01*
X123573212Y-86016232D01*
X123727555Y-86094873D01*
X123892299Y-86148402D01*
X124063389Y-86175500D01*
X124063390Y-86175500D01*
X124236610Y-86175500D01*
X124236611Y-86175500D01*
X124407701Y-86148402D01*
X124572445Y-86094873D01*
X124726788Y-86016232D01*
X124866928Y-85914414D01*
X124974472Y-85806869D01*
X125035791Y-85773387D01*
X125105483Y-85778371D01*
X125161417Y-85820242D01*
X125167688Y-85829456D01*
X125207285Y-85893652D01*
X125207288Y-85893656D01*
X125331344Y-86017712D01*
X125480666Y-86109814D01*
X125647203Y-86164999D01*
X125749991Y-86175500D01*
X126550008Y-86175499D01*
X126550016Y-86175498D01*
X126550019Y-86175498D01*
X126606302Y-86169748D01*
X126652797Y-86164999D01*
X126819334Y-86109814D01*
X126968656Y-86017712D01*
X127092712Y-85893656D01*
X127184814Y-85744334D01*
X127239999Y-85577797D01*
X127250500Y-85475009D01*
X127250499Y-84124992D01*
X127239999Y-84022203D01*
X127184814Y-83855666D01*
X127092712Y-83706344D01*
X126968656Y-83582288D01*
X126843559Y-83505128D01*
X126819336Y-83490187D01*
X126819331Y-83490185D01*
X126817862Y-83489698D01*
X126652797Y-83435001D01*
X126652795Y-83435000D01*
X126550010Y-83424500D01*
X125749998Y-83424500D01*
X125749980Y-83424501D01*
X125647203Y-83435000D01*
X125647200Y-83435001D01*
X125480668Y-83490185D01*
X125480663Y-83490187D01*
X125331342Y-83582289D01*
X125207287Y-83706344D01*
X125167688Y-83770544D01*
X125115739Y-83817268D01*
X125046777Y-83828489D01*
X124982695Y-83800645D01*
X124974469Y-83793127D01*
X124866930Y-83685588D01*
X124866928Y-83685586D01*
X124726788Y-83583768D01*
X124616376Y-83527511D01*
X124572447Y-83505128D01*
X124572446Y-83505127D01*
X124572445Y-83505127D01*
X124407701Y-83451598D01*
X124407699Y-83451597D01*
X124407698Y-83451597D01*
X124276271Y-83430781D01*
X124236611Y-83424500D01*
X124063389Y-83424500D01*
X124023728Y-83430781D01*
X123892302Y-83451597D01*
X123727552Y-83505128D01*
X123573211Y-83583768D01*
X123493256Y-83641859D01*
X123433072Y-83685586D01*
X123433070Y-83685588D01*
X123433069Y-83685588D01*
X123310588Y-83808069D01*
X123310581Y-83808078D01*
X123250317Y-83891023D01*
X123194987Y-83933689D01*
X123125374Y-83939667D01*
X123063579Y-83907061D01*
X123049683Y-83891023D01*
X122989418Y-83808078D01*
X122989414Y-83808072D01*
X122866928Y-83685586D01*
X122726788Y-83583768D01*
X122616376Y-83527511D01*
X122572447Y-83505128D01*
X122572446Y-83505127D01*
X122572445Y-83505127D01*
X122407701Y-83451598D01*
X122407699Y-83451597D01*
X122407698Y-83451597D01*
X122276271Y-83430781D01*
X122236611Y-83424500D01*
X122063389Y-83424500D01*
X122023728Y-83430781D01*
X121892302Y-83451597D01*
X121727552Y-83505128D01*
X121573211Y-83583768D01*
X121493256Y-83641859D01*
X121433072Y-83685586D01*
X121433070Y-83685588D01*
X121433069Y-83685588D01*
X121310588Y-83808069D01*
X121310581Y-83808078D01*
X121250317Y-83891023D01*
X121194987Y-83933689D01*
X121125374Y-83939667D01*
X121063579Y-83907061D01*
X121049683Y-83891023D01*
X120989418Y-83808078D01*
X120989414Y-83808072D01*
X120866928Y-83685586D01*
X120726788Y-83583768D01*
X120616376Y-83527511D01*
X120572447Y-83505128D01*
X120572446Y-83505127D01*
X120572445Y-83505127D01*
X120407701Y-83451598D01*
X120407699Y-83451597D01*
X120407698Y-83451597D01*
X120276271Y-83430781D01*
X120236611Y-83424500D01*
X120063389Y-83424500D01*
X120023728Y-83430781D01*
X119892302Y-83451597D01*
X119727552Y-83505128D01*
X119573211Y-83583768D01*
X119493256Y-83641859D01*
X119433072Y-83685586D01*
X119433070Y-83685588D01*
X119433069Y-83685588D01*
X119310588Y-83808069D01*
X119310581Y-83808078D01*
X119250317Y-83891023D01*
X119194987Y-83933689D01*
X119125374Y-83939667D01*
X119063579Y-83907061D01*
X119049683Y-83891023D01*
X118989418Y-83808078D01*
X118989414Y-83808072D01*
X118866928Y-83685586D01*
X118726788Y-83583768D01*
X118616376Y-83527511D01*
X118572447Y-83505128D01*
X118572446Y-83505127D01*
X118572445Y-83505127D01*
X118407701Y-83451598D01*
X118407699Y-83451597D01*
X118407698Y-83451597D01*
X118276271Y-83430781D01*
X118236611Y-83424500D01*
X118063389Y-83424500D01*
X118023728Y-83430781D01*
X117892302Y-83451597D01*
X117727552Y-83505128D01*
X117573211Y-83583768D01*
X117493256Y-83641859D01*
X117433072Y-83685586D01*
X117433070Y-83685588D01*
X117433069Y-83685588D01*
X117310588Y-83808069D01*
X117310581Y-83808078D01*
X117250317Y-83891023D01*
X117194987Y-83933689D01*
X117125374Y-83939667D01*
X117063579Y-83907061D01*
X117049683Y-83891023D01*
X116989418Y-83808078D01*
X116989414Y-83808072D01*
X116866928Y-83685586D01*
X116726788Y-83583768D01*
X116616376Y-83527511D01*
X116572447Y-83505128D01*
X116572446Y-83505127D01*
X116572445Y-83505127D01*
X116407701Y-83451598D01*
X116407699Y-83451597D01*
X116407698Y-83451597D01*
X116276271Y-83430781D01*
X116236611Y-83424500D01*
X116063389Y-83424500D01*
X116023728Y-83430781D01*
X115892302Y-83451597D01*
X115727552Y-83505128D01*
X115573211Y-83583768D01*
X115493256Y-83641859D01*
X115433072Y-83685586D01*
X115433070Y-83685588D01*
X115433069Y-83685588D01*
X115310588Y-83808069D01*
X115310588Y-83808070D01*
X115310586Y-83808072D01*
X115276009Y-83855663D01*
X115208768Y-83948211D01*
X115130128Y-84102552D01*
X115076597Y-84267302D01*
X115049500Y-84438389D01*
X111742571Y-84438389D01*
X111739333Y-84426306D01*
X111695278Y-84350000D01*
X112720000Y-84350000D01*
X112720000Y-83652172D01*
X112719999Y-83652155D01*
X112713598Y-83592627D01*
X112713596Y-83592620D01*
X112663354Y-83457913D01*
X112663350Y-83457906D01*
X112577190Y-83342812D01*
X112577187Y-83342809D01*
X112462093Y-83256649D01*
X112462086Y-83256645D01*
X112327379Y-83206403D01*
X112327372Y-83206401D01*
X112267844Y-83200000D01*
X111570000Y-83200000D01*
X111570000Y-84224722D01*
X111493694Y-84180667D01*
X111379244Y-84150000D01*
X111260756Y-84150000D01*
X111146306Y-84180667D01*
X111070000Y-84224722D01*
X111070000Y-83200000D01*
X110372155Y-83200000D01*
X110312627Y-83206401D01*
X110312620Y-83206403D01*
X110177913Y-83256645D01*
X110177906Y-83256649D01*
X110062812Y-83342809D01*
X110062809Y-83342812D01*
X109976649Y-83457906D01*
X109976643Y-83457918D01*
X109946785Y-83537969D01*
X109904914Y-83593903D01*
X109839449Y-83618319D01*
X109771176Y-83603467D01*
X109742923Y-83582316D01*
X109692363Y-83531756D01*
X109692358Y-83531752D01*
X109514025Y-83402187D01*
X109514024Y-83402186D01*
X109514022Y-83402185D01*
X109451096Y-83370122D01*
X109317606Y-83302104D01*
X109317603Y-83302103D01*
X109107952Y-83233985D01*
X108999086Y-83216742D01*
X108890222Y-83199500D01*
X108669778Y-83199500D01*
X108597201Y-83210995D01*
X108452047Y-83233985D01*
X108242396Y-83302103D01*
X108242393Y-83302104D01*
X108045974Y-83402187D01*
X107867641Y-83531752D01*
X107867636Y-83531756D01*
X107711756Y-83687636D01*
X107711752Y-83687641D01*
X107582187Y-83865974D01*
X107482104Y-84062393D01*
X107482103Y-84062396D01*
X107413985Y-84272047D01*
X107379500Y-84489778D01*
X105601334Y-84489778D01*
X105578477Y-84345465D01*
X105544180Y-84239910D01*
X105515220Y-84150781D01*
X105515218Y-84150778D01*
X105515218Y-84150776D01*
X105470774Y-84063551D01*
X105422287Y-83968390D01*
X105401419Y-83939667D01*
X105301971Y-83802786D01*
X105157213Y-83658028D01*
X104991613Y-83537715D01*
X104991612Y-83537714D01*
X104991610Y-83537713D01*
X104934653Y-83508691D01*
X104809223Y-83444781D01*
X104614534Y-83381522D01*
X104439995Y-83353878D01*
X104412352Y-83349500D01*
X104207648Y-83349500D01*
X104183329Y-83353351D01*
X104005465Y-83381522D01*
X103810776Y-83444781D01*
X103628386Y-83537715D01*
X103462786Y-83658028D01*
X103318028Y-83802786D01*
X103197715Y-83968386D01*
X103104781Y-84150776D01*
X103041522Y-84345465D01*
X103009500Y-84547648D01*
X97990500Y-84547648D01*
X97958477Y-84345466D01*
X97895220Y-84150781D01*
X97895218Y-84150778D01*
X97895218Y-84150776D01*
X97850774Y-84063551D01*
X97802287Y-83968390D01*
X97781419Y-83939667D01*
X97681971Y-83802786D01*
X97537213Y-83658028D01*
X97371613Y-83537715D01*
X97371612Y-83537714D01*
X97371610Y-83537713D01*
X97314653Y-83508691D01*
X97189223Y-83444781D01*
X96994534Y-83381522D01*
X96819995Y-83353878D01*
X96792352Y-83349500D01*
X96587648Y-83349500D01*
X96563329Y-83353351D01*
X96385465Y-83381522D01*
X96190776Y-83444781D01*
X96008386Y-83537715D01*
X95842786Y-83658028D01*
X95698028Y-83802786D01*
X95577715Y-83968386D01*
X95484781Y-84150776D01*
X95421522Y-84345465D01*
X95389500Y-84547648D01*
X76350500Y-84547648D01*
X76350500Y-82431902D01*
X85849500Y-82431902D01*
X85849500Y-82668097D01*
X85886446Y-82901368D01*
X85959433Y-83125996D01*
X86049166Y-83302105D01*
X86066657Y-83336433D01*
X86205483Y-83527510D01*
X86372490Y-83694517D01*
X86563567Y-83833343D01*
X86627609Y-83865974D01*
X86774003Y-83940566D01*
X86774005Y-83940566D01*
X86774008Y-83940568D01*
X86859623Y-83968386D01*
X86998631Y-84013553D01*
X87231903Y-84050500D01*
X87231908Y-84050500D01*
X89668097Y-84050500D01*
X89901368Y-84013553D01*
X90125992Y-83940568D01*
X90336433Y-83833343D01*
X90527510Y-83694517D01*
X90694517Y-83527510D01*
X90833343Y-83336433D01*
X90940568Y-83125992D01*
X91013553Y-82901368D01*
X91050500Y-82668097D01*
X91050500Y-82431902D01*
X91013553Y-82198631D01*
X90940566Y-81974003D01*
X90833342Y-81763566D01*
X90823849Y-81750500D01*
X90694517Y-81572490D01*
X90527510Y-81405483D01*
X90336433Y-81266657D01*
X90259603Y-81227510D01*
X90125996Y-81159433D01*
X89901368Y-81086446D01*
X89668097Y-81049500D01*
X89668092Y-81049500D01*
X87231908Y-81049500D01*
X87231903Y-81049500D01*
X86998631Y-81086446D01*
X86774003Y-81159433D01*
X86563566Y-81266657D01*
X86454550Y-81345862D01*
X86372490Y-81405483D01*
X86372488Y-81405485D01*
X86372487Y-81405485D01*
X86205485Y-81572487D01*
X86205485Y-81572488D01*
X86205483Y-81572490D01*
X86156023Y-81640566D01*
X86066657Y-81763566D01*
X85959433Y-81974003D01*
X85886446Y-82198631D01*
X85849500Y-82431902D01*
X76350500Y-82431902D01*
X76350500Y-77931902D01*
X91749500Y-77931902D01*
X91749500Y-80368097D01*
X91786446Y-80601368D01*
X91859433Y-80825996D01*
X91966657Y-81036433D01*
X92105483Y-81227510D01*
X92272490Y-81394517D01*
X92463567Y-81533343D01*
X92562991Y-81584002D01*
X92674003Y-81640566D01*
X92674005Y-81640566D01*
X92674008Y-81640568D01*
X92794412Y-81679689D01*
X92898631Y-81713553D01*
X93131903Y-81750500D01*
X93131908Y-81750500D01*
X93368097Y-81750500D01*
X93601368Y-81713553D01*
X93825992Y-81640568D01*
X94036433Y-81533343D01*
X94227510Y-81394517D01*
X94394517Y-81227510D01*
X94533343Y-81036433D01*
X94640568Y-80825992D01*
X94713553Y-80601368D01*
X94750500Y-80368097D01*
X94750500Y-77931902D01*
X94713553Y-77698631D01*
X94657136Y-77525000D01*
X94640568Y-77474008D01*
X94640566Y-77474005D01*
X94640566Y-77474003D01*
X94549229Y-77294745D01*
X94533343Y-77263567D01*
X94394517Y-77072490D01*
X94227510Y-76905483D01*
X94036433Y-76766657D01*
X94003742Y-76750000D01*
X93825996Y-76659433D01*
X93601368Y-76586446D01*
X93368097Y-76549500D01*
X93368092Y-76549500D01*
X93131908Y-76549500D01*
X93131903Y-76549500D01*
X92898631Y-76586446D01*
X92674003Y-76659433D01*
X92463566Y-76766657D01*
X92416909Y-76800556D01*
X92272490Y-76905483D01*
X92272488Y-76905485D01*
X92272487Y-76905485D01*
X92105485Y-77072487D01*
X92105485Y-77072488D01*
X92105483Y-77072490D01*
X92085038Y-77100630D01*
X91966657Y-77263566D01*
X91859433Y-77474003D01*
X91786446Y-77698631D01*
X91749500Y-77931902D01*
X76350500Y-77931902D01*
X76350500Y-75202155D01*
X85650000Y-75202155D01*
X85650000Y-76000000D01*
X86716988Y-76000000D01*
X86684075Y-76057007D01*
X86650000Y-76184174D01*
X86650000Y-76315826D01*
X86684075Y-76442993D01*
X86716988Y-76500000D01*
X85650000Y-76500000D01*
X85650000Y-77297844D01*
X85656401Y-77357372D01*
X85656403Y-77357379D01*
X85706645Y-77492086D01*
X85706649Y-77492093D01*
X85792809Y-77607187D01*
X85792812Y-77607190D01*
X85907906Y-77693350D01*
X85907913Y-77693354D01*
X86042620Y-77743596D01*
X86042627Y-77743598D01*
X86102155Y-77749999D01*
X86102172Y-77750000D01*
X88200000Y-77750000D01*
X88200000Y-76750000D01*
X88700000Y-76750000D01*
X88700000Y-77750000D01*
X90797828Y-77750000D01*
X90797844Y-77749999D01*
X90857372Y-77743598D01*
X90857379Y-77743596D01*
X90992086Y-77693354D01*
X90992093Y-77693350D01*
X91107187Y-77607190D01*
X91107190Y-77607187D01*
X91193350Y-77492093D01*
X91193354Y-77492086D01*
X91243596Y-77357379D01*
X91243598Y-77357372D01*
X91249999Y-77297844D01*
X91250000Y-77297827D01*
X91250000Y-76500000D01*
X90183012Y-76500000D01*
X90215925Y-76442993D01*
X90250000Y-76315826D01*
X90250000Y-76184174D01*
X90215925Y-76057007D01*
X90183012Y-76000000D01*
X91250000Y-76000000D01*
X91250000Y-75897648D01*
X102399500Y-75897648D01*
X102399500Y-76102352D01*
X102403196Y-76125685D01*
X102431522Y-76304534D01*
X102494781Y-76499223D01*
X102532615Y-76573475D01*
X102576413Y-76659433D01*
X102587715Y-76681613D01*
X102708028Y-76847213D01*
X102852786Y-76991971D01*
X103002345Y-77100630D01*
X103018390Y-77112287D01*
X103134607Y-77171503D01*
X103200776Y-77205218D01*
X103200778Y-77205218D01*
X103200781Y-77205220D01*
X103305137Y-77239127D01*
X103395465Y-77268477D01*
X103496557Y-77284488D01*
X103597648Y-77300500D01*
X103597649Y-77300500D01*
X103802351Y-77300500D01*
X103802352Y-77300500D01*
X104004534Y-77268477D01*
X104199219Y-77205220D01*
X104381610Y-77112287D01*
X104474590Y-77044732D01*
X104547213Y-76991971D01*
X104547215Y-76991968D01*
X104547219Y-76991966D01*
X104612319Y-76926866D01*
X104673642Y-76893381D01*
X104743334Y-76898365D01*
X104787681Y-76926866D01*
X104852786Y-76991971D01*
X105002345Y-77100630D01*
X105018390Y-77112287D01*
X105134607Y-77171503D01*
X105200776Y-77205218D01*
X105200778Y-77205218D01*
X105200781Y-77205220D01*
X105305137Y-77239127D01*
X105395465Y-77268477D01*
X105496557Y-77284488D01*
X105597648Y-77300500D01*
X105597649Y-77300500D01*
X105802351Y-77300500D01*
X105802352Y-77300500D01*
X106004534Y-77268477D01*
X106199219Y-77205220D01*
X106381610Y-77112287D01*
X106474590Y-77044732D01*
X106547213Y-76991971D01*
X106547215Y-76991968D01*
X106547219Y-76991966D01*
X106691966Y-76847219D01*
X106691968Y-76847215D01*
X106691971Y-76847213D01*
X106778769Y-76727744D01*
X106812287Y-76681610D01*
X106905220Y-76499219D01*
X106968477Y-76304534D01*
X107000500Y-76102352D01*
X107000500Y-75897648D01*
X106995634Y-75866928D01*
X106968477Y-75695465D01*
X106905218Y-75500776D01*
X106857791Y-75407697D01*
X106812287Y-75318390D01*
X106752871Y-75236610D01*
X106691971Y-75152786D01*
X106547213Y-75008028D01*
X106381613Y-74887715D01*
X106381612Y-74887714D01*
X106381610Y-74887713D01*
X106324653Y-74858691D01*
X106199223Y-74794781D01*
X106004534Y-74731522D01*
X105829995Y-74703878D01*
X105802352Y-74699500D01*
X105597648Y-74699500D01*
X105573329Y-74703351D01*
X105395465Y-74731522D01*
X105200776Y-74794781D01*
X105018386Y-74887715D01*
X104852786Y-75008028D01*
X104852782Y-75008032D01*
X104787681Y-75073134D01*
X104726358Y-75106619D01*
X104656666Y-75101635D01*
X104612319Y-75073134D01*
X104547213Y-75008028D01*
X104381613Y-74887715D01*
X104381612Y-74887714D01*
X104381610Y-74887713D01*
X104324653Y-74858691D01*
X104199223Y-74794781D01*
X104004534Y-74731522D01*
X103829995Y-74703878D01*
X103802352Y-74699500D01*
X103597648Y-74699500D01*
X103573329Y-74703351D01*
X103395465Y-74731522D01*
X103200776Y-74794781D01*
X103018386Y-74887715D01*
X102852786Y-75008028D01*
X102708028Y-75152786D01*
X102587715Y-75318386D01*
X102494781Y-75500776D01*
X102431522Y-75695465D01*
X102404365Y-75866929D01*
X102399500Y-75897648D01*
X91250000Y-75897648D01*
X91250000Y-75202172D01*
X91249999Y-75202155D01*
X91243598Y-75142627D01*
X91243596Y-75142620D01*
X91193354Y-75007913D01*
X91193350Y-75007906D01*
X91107190Y-74892812D01*
X91107187Y-74892809D01*
X90992093Y-74806649D01*
X90992086Y-74806645D01*
X90857379Y-74756403D01*
X90857372Y-74756401D01*
X90797844Y-74750000D01*
X88700000Y-74750000D01*
X88700000Y-75750000D01*
X88200000Y-75750000D01*
X88200000Y-74750000D01*
X86102155Y-74750000D01*
X86042627Y-74756401D01*
X86042620Y-74756403D01*
X85907913Y-74806645D01*
X85907906Y-74806649D01*
X85792812Y-74892809D01*
X85792809Y-74892812D01*
X85706649Y-75007906D01*
X85706645Y-75007913D01*
X85656403Y-75142620D01*
X85656401Y-75142627D01*
X85650000Y-75202155D01*
X76350500Y-75202155D01*
X76350500Y-74397648D01*
X109989500Y-74397648D01*
X109989500Y-74602351D01*
X110021522Y-74804534D01*
X110084781Y-74999223D01*
X110139503Y-75106619D01*
X110163026Y-75152786D01*
X110177715Y-75181613D01*
X110298028Y-75347213D01*
X110442786Y-75491971D01*
X110553554Y-75572447D01*
X110608390Y-75612287D01*
X110724607Y-75671503D01*
X110790776Y-75705218D01*
X110790778Y-75705218D01*
X110790781Y-75705220D01*
X110895137Y-75739127D01*
X110985465Y-75768477D01*
X111083946Y-75784075D01*
X111187648Y-75800500D01*
X111187649Y-75800500D01*
X111392351Y-75800500D01*
X111392352Y-75800500D01*
X111594534Y-75768477D01*
X111789219Y-75705220D01*
X111971610Y-75612287D01*
X112064590Y-75544732D01*
X112137213Y-75491971D01*
X112137215Y-75491968D01*
X112137219Y-75491966D01*
X112281966Y-75347219D01*
X112281968Y-75347215D01*
X112281971Y-75347213D01*
X112334732Y-75274590D01*
X112402287Y-75181610D01*
X112495220Y-74999219D01*
X112558477Y-74804534D01*
X112590500Y-74602352D01*
X112590500Y-74397648D01*
X117609500Y-74397648D01*
X117609500Y-74602351D01*
X117641522Y-74804534D01*
X117704781Y-74999223D01*
X117759503Y-75106619D01*
X117783026Y-75152786D01*
X117797715Y-75181613D01*
X117918028Y-75347213D01*
X118062786Y-75491971D01*
X118173554Y-75572447D01*
X118228390Y-75612287D01*
X118344607Y-75671503D01*
X118410776Y-75705218D01*
X118410778Y-75705218D01*
X118410781Y-75705220D01*
X118515137Y-75739127D01*
X118605465Y-75768477D01*
X118703946Y-75784075D01*
X118807648Y-75800500D01*
X118807649Y-75800500D01*
X119012351Y-75800500D01*
X119012352Y-75800500D01*
X119214534Y-75768477D01*
X119409219Y-75705220D01*
X119591610Y-75612287D01*
X119684590Y-75544732D01*
X119757213Y-75491971D01*
X119757215Y-75491968D01*
X119757219Y-75491966D01*
X119901966Y-75347219D01*
X119901968Y-75347215D01*
X119901971Y-75347213D01*
X119954732Y-75274590D01*
X120022287Y-75181610D01*
X120115220Y-74999219D01*
X120178477Y-74804534D01*
X120210500Y-74602352D01*
X120210500Y-74397648D01*
X120178477Y-74195465D01*
X120115218Y-74000776D01*
X120058506Y-73889474D01*
X120022287Y-73818390D01*
X120014556Y-73807749D01*
X119901971Y-73652786D01*
X119757213Y-73508028D01*
X119591613Y-73387715D01*
X119591612Y-73387714D01*
X119591610Y-73387713D01*
X119534653Y-73358691D01*
X119409223Y-73294781D01*
X119214534Y-73231522D01*
X119039995Y-73203878D01*
X119012352Y-73199500D01*
X118807648Y-73199500D01*
X118783329Y-73203351D01*
X118605465Y-73231522D01*
X118410776Y-73294781D01*
X118228386Y-73387715D01*
X118062786Y-73508028D01*
X117918028Y-73652786D01*
X117797715Y-73818386D01*
X117704781Y-74000776D01*
X117641522Y-74195465D01*
X117609500Y-74397648D01*
X112590500Y-74397648D01*
X112558477Y-74195465D01*
X112495218Y-74000776D01*
X112438506Y-73889474D01*
X112402287Y-73818390D01*
X112394556Y-73807749D01*
X112281971Y-73652786D01*
X112137213Y-73508028D01*
X111971613Y-73387715D01*
X111971612Y-73387714D01*
X111971610Y-73387713D01*
X111914653Y-73358691D01*
X111789223Y-73294781D01*
X111594534Y-73231522D01*
X111419995Y-73203878D01*
X111392352Y-73199500D01*
X111187648Y-73199500D01*
X111163329Y-73203351D01*
X110985465Y-73231522D01*
X110790776Y-73294781D01*
X110608386Y-73387715D01*
X110442786Y-73508028D01*
X110298028Y-73652786D01*
X110177715Y-73818386D01*
X110084781Y-74000776D01*
X110021522Y-74195465D01*
X109989500Y-74397648D01*
X76350500Y-74397648D01*
X76350500Y-72707682D01*
X96800000Y-72707682D01*
X96800000Y-72912317D01*
X96832009Y-73114417D01*
X96895244Y-73309031D01*
X96988141Y-73491350D01*
X96988147Y-73491359D01*
X97020523Y-73535921D01*
X97020524Y-73535922D01*
X97700000Y-72856446D01*
X97700000Y-72862661D01*
X97727259Y-72964394D01*
X97779920Y-73055606D01*
X97854394Y-73130080D01*
X97945606Y-73182741D01*
X98047339Y-73210000D01*
X98053553Y-73210000D01*
X97374076Y-73889474D01*
X97418650Y-73921859D01*
X97600968Y-74014755D01*
X97795582Y-74077990D01*
X97997683Y-74110000D01*
X98202317Y-74110000D01*
X98404417Y-74077990D01*
X98599031Y-74014755D01*
X98781349Y-73921859D01*
X98825921Y-73889474D01*
X98146447Y-73210000D01*
X98152661Y-73210000D01*
X98254394Y-73182741D01*
X98345606Y-73130080D01*
X98420080Y-73055606D01*
X98472741Y-72964394D01*
X98500000Y-72862661D01*
X98500000Y-72856448D01*
X99179474Y-73535922D01*
X99179474Y-73535921D01*
X99211859Y-73491349D01*
X99304755Y-73309031D01*
X99367990Y-73114417D01*
X99400000Y-72912317D01*
X99400000Y-72749983D01*
X125024500Y-72749983D01*
X125024500Y-73550001D01*
X125024501Y-73550019D01*
X125035000Y-73652796D01*
X125035001Y-73652799D01*
X125089872Y-73818386D01*
X125090186Y-73819334D01*
X125182288Y-73968656D01*
X125306344Y-74092712D01*
X125370543Y-74132310D01*
X125417268Y-74184258D01*
X125428489Y-74253221D01*
X125400646Y-74317303D01*
X125393128Y-74325530D01*
X125285585Y-74433073D01*
X125183768Y-74573211D01*
X125105128Y-74727552D01*
X125051597Y-74892302D01*
X125024500Y-75063389D01*
X125024500Y-75236610D01*
X125042018Y-75347219D01*
X125051598Y-75407701D01*
X125105127Y-75572445D01*
X125183768Y-75726788D01*
X125285586Y-75866928D01*
X125408072Y-75989414D01*
X125491449Y-76049991D01*
X125534114Y-76105322D01*
X125540093Y-76174935D01*
X125507487Y-76236730D01*
X125491448Y-76250627D01*
X125408404Y-76310961D01*
X125408399Y-76310965D01*
X125285967Y-76433397D01*
X125184195Y-76573475D01*
X125105591Y-76727744D01*
X125052085Y-76892415D01*
X125050884Y-76899999D01*
X125050885Y-76900000D01*
X126119670Y-76900000D01*
X126099925Y-76919745D01*
X126050556Y-77005255D01*
X126025000Y-77100630D01*
X126025000Y-77199370D01*
X126050556Y-77294745D01*
X126099925Y-77380255D01*
X126119670Y-77400000D01*
X125050885Y-77400000D01*
X125052085Y-77407584D01*
X125105591Y-77572255D01*
X125184195Y-77726524D01*
X125285967Y-77866602D01*
X125408397Y-77989032D01*
X125548475Y-78090804D01*
X125702742Y-78169408D01*
X125867415Y-78222914D01*
X126038429Y-78250000D01*
X126150000Y-78250000D01*
X126150000Y-77430330D01*
X126169745Y-77450075D01*
X126255255Y-77499444D01*
X126350630Y-77525000D01*
X126449370Y-77525000D01*
X126544745Y-77499444D01*
X126630255Y-77450075D01*
X126650000Y-77430330D01*
X126650000Y-78250000D01*
X126761571Y-78250000D01*
X126932584Y-78222914D01*
X127097257Y-78169408D01*
X127251524Y-78090804D01*
X127391602Y-77989032D01*
X127514032Y-77866602D01*
X127615804Y-77726524D01*
X127694408Y-77572255D01*
X127747914Y-77407584D01*
X127749115Y-77400000D01*
X126680330Y-77400000D01*
X126700075Y-77380255D01*
X126749444Y-77294745D01*
X126775000Y-77199370D01*
X126775000Y-77100630D01*
X126749444Y-77005255D01*
X126700075Y-76919745D01*
X126680330Y-76900000D01*
X127749115Y-76900000D01*
X127749115Y-76899999D01*
X127747914Y-76892415D01*
X127694408Y-76727744D01*
X127615804Y-76573475D01*
X127514032Y-76433397D01*
X127391602Y-76310967D01*
X127308551Y-76250628D01*
X127265885Y-76195298D01*
X127259906Y-76125685D01*
X127292511Y-76063889D01*
X127308551Y-76049991D01*
X127391928Y-75989414D01*
X127514414Y-75866928D01*
X127616232Y-75726788D01*
X127694873Y-75572445D01*
X127748402Y-75407701D01*
X127775500Y-75236611D01*
X127775500Y-75063389D01*
X127748402Y-74892299D01*
X127694873Y-74727555D01*
X127616232Y-74573212D01*
X127514414Y-74433072D01*
X127406872Y-74325530D01*
X127373387Y-74264207D01*
X127378371Y-74194515D01*
X127420243Y-74138582D01*
X127429457Y-74132310D01*
X127493656Y-74092712D01*
X127617712Y-73968656D01*
X127709814Y-73819334D01*
X127764999Y-73652797D01*
X127775500Y-73550009D01*
X127775499Y-72749992D01*
X127764999Y-72647203D01*
X127709814Y-72480666D01*
X127617712Y-72331344D01*
X127493656Y-72207288D01*
X127344334Y-72115186D01*
X127177797Y-72060001D01*
X127177795Y-72060000D01*
X127075010Y-72049500D01*
X125724998Y-72049500D01*
X125724981Y-72049501D01*
X125622203Y-72060000D01*
X125622200Y-72060001D01*
X125455668Y-72115185D01*
X125455663Y-72115187D01*
X125306342Y-72207289D01*
X125182289Y-72331342D01*
X125090187Y-72480663D01*
X125090185Y-72480668D01*
X125062441Y-72564394D01*
X125035001Y-72647203D01*
X125035001Y-72647204D01*
X125035000Y-72647204D01*
X125024500Y-72749983D01*
X99400000Y-72749983D01*
X99400000Y-72707682D01*
X99367990Y-72505582D01*
X99304755Y-72310968D01*
X99211859Y-72128650D01*
X99179474Y-72084077D01*
X99179474Y-72084076D01*
X98500000Y-72763551D01*
X98500000Y-72757339D01*
X98472741Y-72655606D01*
X98420080Y-72564394D01*
X98345606Y-72489920D01*
X98254394Y-72437259D01*
X98152661Y-72410000D01*
X98146446Y-72410000D01*
X98825922Y-71730524D01*
X98825921Y-71730523D01*
X98781359Y-71698147D01*
X98781350Y-71698141D01*
X98599031Y-71605244D01*
X98404417Y-71542009D01*
X98202317Y-71510000D01*
X97997683Y-71510000D01*
X97795582Y-71542009D01*
X97600968Y-71605244D01*
X97418644Y-71698143D01*
X97374077Y-71730523D01*
X97374077Y-71730524D01*
X98053554Y-72410000D01*
X98047339Y-72410000D01*
X97945606Y-72437259D01*
X97854394Y-72489920D01*
X97779920Y-72564394D01*
X97727259Y-72655606D01*
X97700000Y-72757339D01*
X97700000Y-72763553D01*
X97020524Y-72084077D01*
X97020523Y-72084077D01*
X96988143Y-72128644D01*
X96895244Y-72310968D01*
X96832009Y-72505582D01*
X96800000Y-72707682D01*
X76350500Y-72707682D01*
X76350500Y-69988575D01*
X86750000Y-69988575D01*
X86750000Y-70211424D01*
X86779085Y-70432354D01*
X86779088Y-70432367D01*
X86836763Y-70647618D01*
X86922045Y-70853502D01*
X86922054Y-70853520D01*
X87033464Y-71046491D01*
X87033473Y-71046504D01*
X87084040Y-71112403D01*
X87084043Y-71112403D01*
X87885387Y-70311059D01*
X87890889Y-70331591D01*
X87969881Y-70468408D01*
X88081592Y-70580119D01*
X88218409Y-70659111D01*
X88238940Y-70664612D01*
X87437595Y-71465955D01*
X87437595Y-71465956D01*
X87503507Y-71516533D01*
X87696485Y-71627949D01*
X87696497Y-71627954D01*
X87902381Y-71713236D01*
X88117632Y-71770911D01*
X88117645Y-71770914D01*
X88338575Y-71800000D01*
X88561425Y-71800000D01*
X88782354Y-71770914D01*
X88782367Y-71770911D01*
X88997618Y-71713236D01*
X89118359Y-71663222D01*
X89118361Y-71663222D01*
X89203507Y-71627952D01*
X89203514Y-71627949D01*
X89396498Y-71516530D01*
X89462403Y-71465957D01*
X89462404Y-71465956D01*
X88661059Y-70664612D01*
X88681591Y-70659111D01*
X88818408Y-70580119D01*
X88930119Y-70468408D01*
X89009111Y-70331591D01*
X89014612Y-70311059D01*
X89815956Y-71112404D01*
X89815957Y-71112403D01*
X89866530Y-71046498D01*
X89977949Y-70853514D01*
X89977954Y-70853502D01*
X90063236Y-70647618D01*
X90120911Y-70432367D01*
X90120914Y-70432354D01*
X90138012Y-70302486D01*
X103799500Y-70302486D01*
X103799500Y-70597513D01*
X103831571Y-70841113D01*
X103838007Y-70889993D01*
X103914361Y-71174951D01*
X103914364Y-71174961D01*
X104027254Y-71447500D01*
X104027258Y-71447510D01*
X104174761Y-71702993D01*
X104354352Y-71937040D01*
X104354358Y-71937047D01*
X104562952Y-72145641D01*
X104562959Y-72145647D01*
X104797006Y-72325238D01*
X105052489Y-72472741D01*
X105052490Y-72472741D01*
X105052493Y-72472743D01*
X105325048Y-72585639D01*
X105610007Y-72661993D01*
X105902494Y-72700500D01*
X105902501Y-72700500D01*
X106197499Y-72700500D01*
X106197506Y-72700500D01*
X106489993Y-72661993D01*
X106774952Y-72585639D01*
X107047507Y-72472743D01*
X107302994Y-72325238D01*
X107537042Y-72145646D01*
X107745646Y-71937042D01*
X107925238Y-71702994D01*
X108072743Y-71447507D01*
X108185639Y-71174952D01*
X108261993Y-70889993D01*
X108300500Y-70597506D01*
X108300500Y-70302494D01*
X108261993Y-70010007D01*
X108185639Y-69725048D01*
X108072743Y-69452493D01*
X108011546Y-69346497D01*
X107925238Y-69197006D01*
X107745647Y-68962959D01*
X107745641Y-68962952D01*
X107537047Y-68754358D01*
X107537040Y-68754352D01*
X107302993Y-68574761D01*
X107047510Y-68427258D01*
X107047500Y-68427254D01*
X106774961Y-68314364D01*
X106774954Y-68314362D01*
X106774952Y-68314361D01*
X106489993Y-68238007D01*
X106441113Y-68231571D01*
X106197513Y-68199500D01*
X106197506Y-68199500D01*
X105902494Y-68199500D01*
X105902486Y-68199500D01*
X105624085Y-68236153D01*
X105610007Y-68238007D01*
X105344238Y-68309219D01*
X105325048Y-68314361D01*
X105325038Y-68314364D01*
X105052499Y-68427254D01*
X105052489Y-68427258D01*
X104797006Y-68574761D01*
X104562959Y-68754352D01*
X104562952Y-68754358D01*
X104354358Y-68962952D01*
X104354352Y-68962959D01*
X104174761Y-69197006D01*
X104027258Y-69452489D01*
X104027254Y-69452499D01*
X103914364Y-69725038D01*
X103914361Y-69725048D01*
X103838008Y-70010004D01*
X103838006Y-70010015D01*
X103799500Y-70302486D01*
X90138012Y-70302486D01*
X90140676Y-70282250D01*
X90150000Y-70211424D01*
X90150000Y-69988575D01*
X90120914Y-69767645D01*
X90120911Y-69767632D01*
X90063236Y-69552381D01*
X89977954Y-69346497D01*
X89977949Y-69346485D01*
X89866533Y-69153507D01*
X89815956Y-69087595D01*
X89815955Y-69087595D01*
X89014612Y-69888939D01*
X89009111Y-69868409D01*
X88930119Y-69731592D01*
X88818408Y-69619881D01*
X88681591Y-69540889D01*
X88661058Y-69535387D01*
X89462403Y-68734043D01*
X89462403Y-68734040D01*
X89396504Y-68683473D01*
X89396491Y-68683464D01*
X89203520Y-68572054D01*
X89203502Y-68572045D01*
X88997618Y-68486763D01*
X88782367Y-68429088D01*
X88782354Y-68429085D01*
X88561425Y-68400000D01*
X88338575Y-68400000D01*
X88117645Y-68429085D01*
X88117632Y-68429088D01*
X87902381Y-68486763D01*
X87696497Y-68572045D01*
X87696479Y-68572054D01*
X87503511Y-68683462D01*
X87437595Y-68734042D01*
X88238941Y-69535387D01*
X88218409Y-69540889D01*
X88081592Y-69619881D01*
X87969881Y-69731592D01*
X87890889Y-69868409D01*
X87885387Y-69888940D01*
X87084042Y-69087595D01*
X87033462Y-69153511D01*
X86922054Y-69346479D01*
X86922045Y-69346497D01*
X86836763Y-69552381D01*
X86779088Y-69767632D01*
X86779085Y-69767645D01*
X86750000Y-69988575D01*
X76350500Y-69988575D01*
X76350500Y-67657648D01*
X109999500Y-67657648D01*
X109999500Y-67862351D01*
X110031522Y-68064534D01*
X110094781Y-68259223D01*
X110158691Y-68384653D01*
X110181331Y-68429085D01*
X110187715Y-68441613D01*
X110308028Y-68607213D01*
X110452786Y-68751971D01*
X110607749Y-68864556D01*
X110618390Y-68872287D01*
X110734607Y-68931503D01*
X110800776Y-68965218D01*
X110800778Y-68965218D01*
X110800781Y-68965220D01*
X110905137Y-68999127D01*
X110995465Y-69028477D01*
X111096557Y-69044488D01*
X111197648Y-69060500D01*
X111197649Y-69060500D01*
X111402351Y-69060500D01*
X111402352Y-69060500D01*
X111604534Y-69028477D01*
X111799219Y-68965220D01*
X111981610Y-68872287D01*
X112074590Y-68804732D01*
X112147213Y-68751971D01*
X112147215Y-68751968D01*
X112147219Y-68751966D01*
X112291966Y-68607219D01*
X112291968Y-68607215D01*
X112291971Y-68607213D01*
X112375960Y-68491610D01*
X112412287Y-68441610D01*
X112505220Y-68259219D01*
X112568477Y-68064534D01*
X112600500Y-67862352D01*
X112600500Y-67707648D01*
X122249500Y-67707648D01*
X122249500Y-67912351D01*
X122281522Y-68114534D01*
X122344781Y-68309223D01*
X122391035Y-68400000D01*
X122435243Y-68486763D01*
X122437715Y-68491613D01*
X122558028Y-68657213D01*
X122702786Y-68801971D01*
X122799566Y-68872284D01*
X122868390Y-68922287D01*
X122952647Y-68965218D01*
X123050776Y-69015218D01*
X123050778Y-69015218D01*
X123050781Y-69015220D01*
X123155137Y-69049127D01*
X123245465Y-69078477D01*
X123346557Y-69094488D01*
X123447648Y-69110500D01*
X123447649Y-69110500D01*
X123652351Y-69110500D01*
X123652352Y-69110500D01*
X123854534Y-69078477D01*
X124049219Y-69015220D01*
X124231610Y-68922287D01*
X124324590Y-68854732D01*
X124397213Y-68801971D01*
X124397215Y-68801968D01*
X124397219Y-68801966D01*
X124541966Y-68657219D01*
X124541968Y-68657215D01*
X124541971Y-68657213D01*
X124603848Y-68572045D01*
X124662287Y-68491610D01*
X124755220Y-68309219D01*
X124818477Y-68114534D01*
X124850500Y-67912352D01*
X124850500Y-67707648D01*
X124818477Y-67505466D01*
X124755220Y-67310781D01*
X124755218Y-67310778D01*
X124755218Y-67310776D01*
X124721503Y-67244607D01*
X124662287Y-67128390D01*
X124654556Y-67117749D01*
X124541971Y-66962786D01*
X124397213Y-66818028D01*
X124231613Y-66697715D01*
X124231612Y-66697714D01*
X124231610Y-66697713D01*
X124133480Y-66647713D01*
X124049223Y-66604781D01*
X123854534Y-66541522D01*
X123679995Y-66513878D01*
X123652352Y-66509500D01*
X123447648Y-66509500D01*
X123423329Y-66513351D01*
X123245465Y-66541522D01*
X123050776Y-66604781D01*
X122868386Y-66697715D01*
X122702786Y-66818028D01*
X122558028Y-66962786D01*
X122437715Y-67128386D01*
X122344781Y-67310776D01*
X122281522Y-67505465D01*
X122249500Y-67707648D01*
X112600500Y-67707648D01*
X112600500Y-67657648D01*
X112568477Y-67455466D01*
X112505220Y-67260781D01*
X112505218Y-67260778D01*
X112505218Y-67260776D01*
X112437761Y-67128386D01*
X112412287Y-67078390D01*
X112404556Y-67067749D01*
X112291971Y-66912786D01*
X112147213Y-66768028D01*
X111981613Y-66647715D01*
X111981612Y-66647714D01*
X111981610Y-66647713D01*
X111924653Y-66618691D01*
X111799223Y-66554781D01*
X111604534Y-66491522D01*
X111429995Y-66463878D01*
X111402352Y-66459500D01*
X111197648Y-66459500D01*
X111173329Y-66463351D01*
X110995465Y-66491522D01*
X110800776Y-66554781D01*
X110618386Y-66647715D01*
X110452786Y-66768028D01*
X110308028Y-66912786D01*
X110187715Y-67078386D01*
X110094781Y-67260776D01*
X110031522Y-67455465D01*
X109999500Y-67657648D01*
X76350500Y-67657648D01*
X76350500Y-64988549D01*
X86749500Y-64988549D01*
X86749500Y-65211450D01*
X86749501Y-65211466D01*
X86778594Y-65432452D01*
X86778595Y-65432457D01*
X86778596Y-65432463D01*
X86778597Y-65432465D01*
X86836290Y-65647780D01*
X86836293Y-65647790D01*
X86921593Y-65853722D01*
X86921595Y-65853726D01*
X87033052Y-66046774D01*
X87033057Y-66046780D01*
X87033058Y-66046782D01*
X87168751Y-66223622D01*
X87168757Y-66223629D01*
X87326370Y-66381242D01*
X87326376Y-66381247D01*
X87503226Y-66516948D01*
X87696274Y-66628405D01*
X87742888Y-66647713D01*
X87863603Y-66697715D01*
X87902219Y-66713710D01*
X88117537Y-66771404D01*
X88338543Y-66800500D01*
X88338550Y-66800500D01*
X88561450Y-66800500D01*
X88561457Y-66800500D01*
X88782463Y-66771404D01*
X88997781Y-66713710D01*
X89203726Y-66628405D01*
X89396774Y-66516948D01*
X89573624Y-66381247D01*
X89731247Y-66223624D01*
X89866948Y-66046774D01*
X89978405Y-65853726D01*
X90063710Y-65647781D01*
X90121404Y-65432463D01*
X90150500Y-65211457D01*
X90150500Y-65087648D01*
X96799500Y-65087648D01*
X96799500Y-65292351D01*
X96831522Y-65494534D01*
X96894781Y-65689223D01*
X96987715Y-65871613D01*
X97108028Y-66037213D01*
X97252786Y-66181971D01*
X97407749Y-66294556D01*
X97418390Y-66302287D01*
X97534607Y-66361503D01*
X97600776Y-66395218D01*
X97600778Y-66395218D01*
X97600781Y-66395220D01*
X97705137Y-66429127D01*
X97795465Y-66458477D01*
X97896557Y-66474488D01*
X97997648Y-66490500D01*
X97997649Y-66490500D01*
X98202351Y-66490500D01*
X98202352Y-66490500D01*
X98404534Y-66458477D01*
X98599219Y-66395220D01*
X98781610Y-66302287D01*
X98874590Y-66234732D01*
X98947213Y-66181971D01*
X98947215Y-66181968D01*
X98947219Y-66181966D01*
X99091966Y-66037219D01*
X99091968Y-66037215D01*
X99091971Y-66037213D01*
X99144732Y-65964590D01*
X99212287Y-65871610D01*
X99305220Y-65689219D01*
X99368477Y-65494534D01*
X99400500Y-65292352D01*
X99400500Y-65087648D01*
X99384803Y-64988543D01*
X99368477Y-64885465D01*
X99330163Y-64767547D01*
X99305220Y-64690781D01*
X99305218Y-64690778D01*
X99305218Y-64690776D01*
X99271503Y-64624607D01*
X99212287Y-64508390D01*
X99204556Y-64497749D01*
X99091971Y-64342786D01*
X98947213Y-64198028D01*
X98781613Y-64077715D01*
X98781612Y-64077714D01*
X98781610Y-64077713D01*
X98724653Y-64048691D01*
X98599223Y-63984781D01*
X98404534Y-63921522D01*
X98229995Y-63893878D01*
X98202352Y-63889500D01*
X97997648Y-63889500D01*
X97973329Y-63893351D01*
X97795465Y-63921522D01*
X97600776Y-63984781D01*
X97418386Y-64077715D01*
X97252786Y-64198028D01*
X97108028Y-64342786D01*
X96987715Y-64508386D01*
X96894781Y-64690776D01*
X96831522Y-64885465D01*
X96799500Y-65087648D01*
X90150500Y-65087648D01*
X90150500Y-64988543D01*
X90121404Y-64767537D01*
X90063710Y-64552219D01*
X90045555Y-64508390D01*
X89978406Y-64346277D01*
X89978405Y-64346274D01*
X89866948Y-64153226D01*
X89809005Y-64077713D01*
X89731248Y-63976377D01*
X89731242Y-63976370D01*
X89573629Y-63818757D01*
X89573622Y-63818751D01*
X89396782Y-63683058D01*
X89396780Y-63683057D01*
X89396774Y-63683052D01*
X89203726Y-63571595D01*
X89203722Y-63571593D01*
X88997790Y-63486293D01*
X88997783Y-63486291D01*
X88997781Y-63486290D01*
X88782463Y-63428596D01*
X88782457Y-63428595D01*
X88782452Y-63428594D01*
X88561466Y-63399501D01*
X88561463Y-63399500D01*
X88561457Y-63399500D01*
X88338543Y-63399500D01*
X88338537Y-63399500D01*
X88338533Y-63399501D01*
X88117547Y-63428594D01*
X88117540Y-63428595D01*
X88117537Y-63428596D01*
X87902219Y-63486290D01*
X87902209Y-63486293D01*
X87696277Y-63571593D01*
X87696273Y-63571595D01*
X87503226Y-63683052D01*
X87503217Y-63683058D01*
X87326377Y-63818751D01*
X87326370Y-63818757D01*
X87168757Y-63976370D01*
X87168751Y-63976377D01*
X87033058Y-64153217D01*
X87033052Y-64153226D01*
X86921595Y-64346273D01*
X86921593Y-64346277D01*
X86836293Y-64552209D01*
X86836290Y-64552219D01*
X86778597Y-64767534D01*
X86778594Y-64767547D01*
X86749501Y-64988533D01*
X86749500Y-64988549D01*
X76350500Y-64988549D01*
X76350500Y-59099984D01*
X86749500Y-59099984D01*
X86749500Y-61100015D01*
X86760000Y-61202795D01*
X86760001Y-61202797D01*
X86779713Y-61262284D01*
X86815186Y-61369335D01*
X86815187Y-61369337D01*
X86907286Y-61518651D01*
X86907289Y-61518655D01*
X87031344Y-61642710D01*
X87031348Y-61642713D01*
X87180662Y-61734812D01*
X87180664Y-61734813D01*
X87180666Y-61734814D01*
X87347203Y-61789999D01*
X87449992Y-61800500D01*
X87449997Y-61800500D01*
X89450003Y-61800500D01*
X89450008Y-61800500D01*
X89552797Y-61789999D01*
X89719334Y-61734814D01*
X89868655Y-61642711D01*
X89992711Y-61518655D01*
X90084814Y-61369334D01*
X90139999Y-61202797D01*
X90150500Y-61100008D01*
X90150500Y-59549983D01*
X97649500Y-59549983D01*
X97649500Y-60750001D01*
X97649501Y-60750018D01*
X97660000Y-60852796D01*
X97660001Y-60852799D01*
X97704542Y-60987213D01*
X97715186Y-61019334D01*
X97807288Y-61168656D01*
X97931344Y-61292712D01*
X98080666Y-61384814D01*
X98247203Y-61439999D01*
X98349991Y-61450500D01*
X99550008Y-61450499D01*
X99652797Y-61439999D01*
X99819334Y-61384814D01*
X99968656Y-61292712D01*
X100037524Y-61223843D01*
X100098843Y-61190361D01*
X100168535Y-61195345D01*
X100198082Y-61211206D01*
X100268390Y-61262287D01*
X100346888Y-61302284D01*
X100450776Y-61355218D01*
X100450778Y-61355218D01*
X100450781Y-61355220D01*
X100494229Y-61369337D01*
X100645465Y-61418477D01*
X100746557Y-61434488D01*
X100847648Y-61450500D01*
X100847649Y-61450500D01*
X101052351Y-61450500D01*
X101052352Y-61450500D01*
X101254534Y-61418477D01*
X101449219Y-61355220D01*
X101631610Y-61262287D01*
X101724590Y-61194732D01*
X101797213Y-61141971D01*
X101797215Y-61141968D01*
X101797219Y-61141966D01*
X101941966Y-60997219D01*
X101941968Y-60997215D01*
X101941971Y-60997213D01*
X102010424Y-60902994D01*
X102062287Y-60831610D01*
X102155220Y-60649219D01*
X102218477Y-60454534D01*
X102250500Y-60252352D01*
X102250500Y-60047648D01*
X102248916Y-60037648D01*
X109999500Y-60037648D01*
X109999500Y-60242351D01*
X110031522Y-60444534D01*
X110094781Y-60639223D01*
X110187715Y-60821613D01*
X110308028Y-60987213D01*
X110452786Y-61131971D01*
X110579244Y-61223846D01*
X110618390Y-61252287D01*
X110734607Y-61311503D01*
X110800776Y-61345218D01*
X110800778Y-61345218D01*
X110800781Y-61345220D01*
X110905137Y-61379127D01*
X110995465Y-61408477D01*
X111058602Y-61418477D01*
X111197648Y-61440500D01*
X111197649Y-61440500D01*
X111402351Y-61440500D01*
X111402352Y-61440500D01*
X111604534Y-61408477D01*
X111799219Y-61345220D01*
X111981610Y-61252287D01*
X112074590Y-61184732D01*
X112147213Y-61131971D01*
X112147215Y-61131968D01*
X112147219Y-61131966D01*
X112291966Y-60987219D01*
X112291968Y-60987215D01*
X112291971Y-60987213D01*
X112344732Y-60914590D01*
X112412287Y-60821610D01*
X112505220Y-60639219D01*
X112568477Y-60444534D01*
X112600500Y-60242352D01*
X112600500Y-60087648D01*
X122249500Y-60087648D01*
X122249500Y-60292351D01*
X122281522Y-60494534D01*
X122344781Y-60689223D01*
X122408691Y-60814653D01*
X122428128Y-60852799D01*
X122437715Y-60871613D01*
X122558028Y-61037213D01*
X122702786Y-61181971D01*
X122813334Y-61262287D01*
X122868390Y-61302287D01*
X122952647Y-61345218D01*
X123050776Y-61395218D01*
X123050778Y-61395218D01*
X123050781Y-61395220D01*
X123122359Y-61418477D01*
X123245465Y-61458477D01*
X123346557Y-61474488D01*
X123447648Y-61490500D01*
X123447649Y-61490500D01*
X123652351Y-61490500D01*
X123652352Y-61490500D01*
X123854534Y-61458477D01*
X124049219Y-61395220D01*
X124231610Y-61302287D01*
X124339576Y-61223846D01*
X124397213Y-61181971D01*
X124397215Y-61181968D01*
X124397219Y-61181966D01*
X124541966Y-61037219D01*
X124541968Y-61037215D01*
X124541971Y-61037213D01*
X124639486Y-60902993D01*
X124662287Y-60871610D01*
X124755220Y-60689219D01*
X124818477Y-60494534D01*
X124850500Y-60292352D01*
X124850500Y-60087648D01*
X124818477Y-59885466D01*
X124755220Y-59690781D01*
X124755218Y-59690778D01*
X124755218Y-59690776D01*
X124685898Y-59554730D01*
X124685897Y-59554728D01*
X124683483Y-59549991D01*
X124662287Y-59508390D01*
X124662286Y-59508388D01*
X124657998Y-59502486D01*
X130099500Y-59502486D01*
X130099500Y-59797513D01*
X130111080Y-59885465D01*
X130138007Y-60089993D01*
X130192229Y-60292352D01*
X130214361Y-60374951D01*
X130214364Y-60374961D01*
X130327254Y-60647500D01*
X130327258Y-60647510D01*
X130474761Y-60902993D01*
X130654352Y-61137040D01*
X130654358Y-61137047D01*
X130862952Y-61345641D01*
X130862959Y-61345647D01*
X131097006Y-61525238D01*
X131352489Y-61672741D01*
X131352490Y-61672741D01*
X131352493Y-61672743D01*
X131625048Y-61785639D01*
X131910007Y-61861993D01*
X132202494Y-61900500D01*
X132202501Y-61900500D01*
X132497499Y-61900500D01*
X132497506Y-61900500D01*
X132789993Y-61861993D01*
X133074952Y-61785639D01*
X133347507Y-61672743D01*
X133602994Y-61525238D01*
X133837042Y-61345646D01*
X134045646Y-61137042D01*
X134225238Y-60902994D01*
X134372743Y-60647507D01*
X134485639Y-60374952D01*
X134561993Y-60089993D01*
X134600500Y-59797506D01*
X134600500Y-59502494D01*
X134561993Y-59210007D01*
X134485639Y-58925048D01*
X134484178Y-58921522D01*
X134384695Y-58681348D01*
X134372743Y-58652493D01*
X134317775Y-58557286D01*
X134225238Y-58397006D01*
X134045647Y-58162959D01*
X134045641Y-58162952D01*
X133837047Y-57954358D01*
X133837040Y-57954352D01*
X133602993Y-57774761D01*
X133347510Y-57627258D01*
X133347500Y-57627254D01*
X133074961Y-57514364D01*
X133074954Y-57514362D01*
X133074952Y-57514361D01*
X132789993Y-57438007D01*
X132741113Y-57431571D01*
X132497513Y-57399500D01*
X132497506Y-57399500D01*
X132202494Y-57399500D01*
X132202486Y-57399500D01*
X131924085Y-57436153D01*
X131910007Y-57438007D01*
X131625048Y-57514361D01*
X131625038Y-57514364D01*
X131352499Y-57627254D01*
X131352489Y-57627258D01*
X131097006Y-57774761D01*
X130862959Y-57954352D01*
X130862952Y-57954358D01*
X130654358Y-58162952D01*
X130654352Y-58162959D01*
X130474761Y-58397006D01*
X130327258Y-58652489D01*
X130327254Y-58652499D01*
X130214364Y-58925038D01*
X130214361Y-58925048D01*
X130154613Y-59148034D01*
X130138008Y-59210004D01*
X130138006Y-59210015D01*
X130099500Y-59502486D01*
X124657998Y-59502486D01*
X124541971Y-59342786D01*
X124397213Y-59198028D01*
X124231613Y-59077715D01*
X124231612Y-59077714D01*
X124231610Y-59077713D01*
X124133480Y-59027713D01*
X124049223Y-58984781D01*
X123854534Y-58921522D01*
X123679995Y-58893878D01*
X123652352Y-58889500D01*
X123447648Y-58889500D01*
X123423329Y-58893351D01*
X123245465Y-58921522D01*
X123050776Y-58984781D01*
X122868386Y-59077715D01*
X122702786Y-59198028D01*
X122558028Y-59342786D01*
X122437715Y-59508386D01*
X122344781Y-59690776D01*
X122281522Y-59885465D01*
X122249500Y-60087648D01*
X112600500Y-60087648D01*
X112600500Y-60037648D01*
X112568477Y-59835466D01*
X112556145Y-59797513D01*
X112508469Y-59650781D01*
X112505220Y-59640781D01*
X112505218Y-59640778D01*
X112505218Y-59640776D01*
X112434759Y-59502494D01*
X112412287Y-59458390D01*
X112404159Y-59447203D01*
X112291971Y-59292786D01*
X112147213Y-59148028D01*
X111981613Y-59027715D01*
X111981612Y-59027714D01*
X111981610Y-59027713D01*
X111921731Y-58997203D01*
X111799223Y-58934781D01*
X111604534Y-58871522D01*
X111429995Y-58843878D01*
X111402352Y-58839500D01*
X111197648Y-58839500D01*
X111173329Y-58843351D01*
X110995465Y-58871522D01*
X110800776Y-58934781D01*
X110618386Y-59027715D01*
X110452786Y-59148028D01*
X110308028Y-59292786D01*
X110187715Y-59458386D01*
X110094781Y-59640776D01*
X110031522Y-59835465D01*
X109999500Y-60037648D01*
X102248916Y-60037648D01*
X102218477Y-59845466D01*
X102215227Y-59835465D01*
X102155218Y-59650776D01*
X102103865Y-59549991D01*
X102062287Y-59468390D01*
X102046894Y-59447203D01*
X101941971Y-59302786D01*
X101797213Y-59158028D01*
X101631613Y-59037715D01*
X101631612Y-59037714D01*
X101631610Y-59037713D01*
X101552105Y-58997203D01*
X101449223Y-58944781D01*
X101254534Y-58881522D01*
X101079995Y-58853878D01*
X101052352Y-58849500D01*
X100847648Y-58849500D01*
X100823329Y-58853351D01*
X100645465Y-58881522D01*
X100450776Y-58944781D01*
X100268391Y-59037712D01*
X100268383Y-59037717D01*
X100198085Y-59088790D01*
X100132279Y-59112269D01*
X100064225Y-59096442D01*
X100037521Y-59076153D01*
X99968656Y-59007288D01*
X99893995Y-58961237D01*
X99819336Y-58915187D01*
X99819331Y-58915185D01*
X99817862Y-58914698D01*
X99652797Y-58860001D01*
X99652795Y-58860000D01*
X99550010Y-58849500D01*
X98349998Y-58849500D01*
X98349981Y-58849501D01*
X98247203Y-58860000D01*
X98247200Y-58860001D01*
X98080668Y-58915185D01*
X98080663Y-58915187D01*
X97931342Y-59007289D01*
X97807289Y-59131342D01*
X97715187Y-59280663D01*
X97715186Y-59280666D01*
X97660001Y-59447203D01*
X97660001Y-59447204D01*
X97660000Y-59447204D01*
X97649500Y-59549983D01*
X90150500Y-59549983D01*
X90150500Y-59099992D01*
X90139999Y-58997203D01*
X90084814Y-58830666D01*
X89992711Y-58681345D01*
X89868655Y-58557289D01*
X89868651Y-58557286D01*
X89719337Y-58465187D01*
X89719335Y-58465186D01*
X89636065Y-58437593D01*
X89552797Y-58410001D01*
X89552795Y-58410000D01*
X89450015Y-58399500D01*
X89450008Y-58399500D01*
X87449992Y-58399500D01*
X87449984Y-58399500D01*
X87347204Y-58410000D01*
X87347203Y-58410001D01*
X87180664Y-58465186D01*
X87180662Y-58465187D01*
X87031348Y-58557286D01*
X87031344Y-58557289D01*
X86907289Y-58681344D01*
X86907286Y-58681348D01*
X86815187Y-58830662D01*
X86815186Y-58830664D01*
X86760001Y-58997203D01*
X86760000Y-58997204D01*
X86749500Y-59099984D01*
X76350500Y-59099984D01*
X76350500Y-56674500D01*
X76370185Y-56607461D01*
X76422989Y-56561706D01*
X76474500Y-56550500D01*
X135225500Y-56550500D01*
X135292539Y-56570185D01*
G37*
%TD.AperFunction*%
%TD*%
M02*
