%TF.GenerationSoftware,KiCad,Pcbnew,9.0.6-9.0.6~ubuntu24.04.1*%
%TF.CreationDate,2025-11-30T17:34:31+01:00*%
%TF.ProjectId,phone_mic_jst,70686f6e-655f-46d6-9963-5f6a73742e6b,rev?*%
%TF.SameCoordinates,Original*%
%TF.FileFunction,Legend,Top*%
%TF.FilePolarity,Positive*%
%FSLAX46Y46*%
G04 Gerber Fmt 4.6, Leading zero omitted, Abs format (unit mm)*
G04 Created by KiCad (PCBNEW 9.0.6-9.0.6~ubuntu24.04.1) date 2025-11-30 17:34:31*
%MOMM*%
%LPD*%
G01*
G04 APERTURE LIST*
G04 Aperture macros list*
%AMRoundRect*
0 Rectangle with rounded corners*
0 $1 Rounding radius*
0 $2 $3 $4 $5 $6 $7 $8 $9 X,Y pos of 4 corners*
0 Add a 4 corners polygon primitive as box body*
4,1,4,$2,$3,$4,$5,$6,$7,$8,$9,$2,$3,0*
0 Add four circle primitives for the rounded corners*
1,1,$1+$1,$2,$3*
1,1,$1+$1,$4,$5*
1,1,$1+$1,$6,$7*
1,1,$1+$1,$8,$9*
0 Add four rect primitives between the rounded corners*
20,1,$1+$1,$2,$3,$4,$5,0*
20,1,$1+$1,$4,$5,$6,$7,0*
20,1,$1+$1,$6,$7,$8,$9,0*
20,1,$1+$1,$8,$9,$2,$3,0*%
G04 Aperture macros list end*
%ADD10C,0.100000*%
%ADD11C,0.150000*%
%ADD12C,0.300000*%
%ADD13C,0.400000*%
%ADD14C,0.120000*%
%ADD15R,1.800000X1.800000*%
%ADD16C,1.800000*%
%ADD17RoundRect,0.250000X0.350000X0.625000X-0.350000X0.625000X-0.350000X-0.625000X0.350000X-0.625000X0*%
%ADD18O,1.200000X1.750000*%
%ADD19C,1.600000*%
%ADD20C,3.500000*%
%ADD21RoundRect,0.250000X-0.625000X0.350000X-0.625000X-0.350000X0.625000X-0.350000X0.625000X0.350000X0*%
%ADD22O,1.750000X1.200000*%
%ADD23R,4.600000X2.000000*%
%ADD24O,4.200000X2.000000*%
%ADD25O,2.000000X4.200000*%
%ADD26RoundRect,0.250000X-0.550000X-0.550000X0.550000X-0.550000X0.550000X0.550000X-0.550000X0.550000X0*%
%ADD27RoundRect,0.250001X-0.949999X0.949999X-0.949999X-0.949999X0.949999X-0.949999X0.949999X0.949999X0*%
%ADD28C,2.400000*%
G04 APERTURE END LIST*
D10*
D11*
X177002200Y-166007200D02*
X285002200Y-166007200D01*
X285002200Y-198007200D01*
X177002200Y-198007200D01*
X177002200Y-166007200D01*
D10*
D11*
X10000000Y-10000000D02*
X287002200Y-10000000D01*
X287002200Y-200007200D01*
X10000000Y-200007200D01*
X10000000Y-10000000D01*
D10*
D11*
X12000000Y-12000000D02*
X285002200Y-12000000D01*
X285002200Y-198007200D01*
X12000000Y-198007200D01*
X12000000Y-12000000D01*
D10*
D11*
X60000000Y-12000000D02*
X60000000Y-10000000D01*
D10*
D11*
X110000000Y-12000000D02*
X110000000Y-10000000D01*
D10*
D11*
X160000000Y-12000000D02*
X160000000Y-10000000D01*
D10*
D11*
X210000000Y-12000000D02*
X210000000Y-10000000D01*
D10*
D11*
X260000000Y-12000000D02*
X260000000Y-10000000D01*
D10*
D11*
X36089160Y-11593604D02*
X35346303Y-11593604D01*
X35717731Y-11593604D02*
X35717731Y-10293604D01*
X35717731Y-10293604D02*
X35593922Y-10479319D01*
X35593922Y-10479319D02*
X35470112Y-10603128D01*
X35470112Y-10603128D02*
X35346303Y-10665033D01*
D10*
D11*
X85346303Y-10417414D02*
X85408207Y-10355509D01*
X85408207Y-10355509D02*
X85532017Y-10293604D01*
X85532017Y-10293604D02*
X85841541Y-10293604D01*
X85841541Y-10293604D02*
X85965350Y-10355509D01*
X85965350Y-10355509D02*
X86027255Y-10417414D01*
X86027255Y-10417414D02*
X86089160Y-10541223D01*
X86089160Y-10541223D02*
X86089160Y-10665033D01*
X86089160Y-10665033D02*
X86027255Y-10850747D01*
X86027255Y-10850747D02*
X85284398Y-11593604D01*
X85284398Y-11593604D02*
X86089160Y-11593604D01*
D10*
D11*
X135284398Y-10293604D02*
X136089160Y-10293604D01*
X136089160Y-10293604D02*
X135655826Y-10788842D01*
X135655826Y-10788842D02*
X135841541Y-10788842D01*
X135841541Y-10788842D02*
X135965350Y-10850747D01*
X135965350Y-10850747D02*
X136027255Y-10912652D01*
X136027255Y-10912652D02*
X136089160Y-11036461D01*
X136089160Y-11036461D02*
X136089160Y-11345985D01*
X136089160Y-11345985D02*
X136027255Y-11469795D01*
X136027255Y-11469795D02*
X135965350Y-11531700D01*
X135965350Y-11531700D02*
X135841541Y-11593604D01*
X135841541Y-11593604D02*
X135470112Y-11593604D01*
X135470112Y-11593604D02*
X135346303Y-11531700D01*
X135346303Y-11531700D02*
X135284398Y-11469795D01*
D10*
D11*
X185965350Y-10726938D02*
X185965350Y-11593604D01*
X185655826Y-10231700D02*
X185346303Y-11160271D01*
X185346303Y-11160271D02*
X186151064Y-11160271D01*
D10*
D11*
X236027255Y-10293604D02*
X235408207Y-10293604D01*
X235408207Y-10293604D02*
X235346303Y-10912652D01*
X235346303Y-10912652D02*
X235408207Y-10850747D01*
X235408207Y-10850747D02*
X235532017Y-10788842D01*
X235532017Y-10788842D02*
X235841541Y-10788842D01*
X235841541Y-10788842D02*
X235965350Y-10850747D01*
X235965350Y-10850747D02*
X236027255Y-10912652D01*
X236027255Y-10912652D02*
X236089160Y-11036461D01*
X236089160Y-11036461D02*
X236089160Y-11345985D01*
X236089160Y-11345985D02*
X236027255Y-11469795D01*
X236027255Y-11469795D02*
X235965350Y-11531700D01*
X235965350Y-11531700D02*
X235841541Y-11593604D01*
X235841541Y-11593604D02*
X235532017Y-11593604D01*
X235532017Y-11593604D02*
X235408207Y-11531700D01*
X235408207Y-11531700D02*
X235346303Y-11469795D01*
D10*
D11*
X285965350Y-10293604D02*
X285717731Y-10293604D01*
X285717731Y-10293604D02*
X285593922Y-10355509D01*
X285593922Y-10355509D02*
X285532017Y-10417414D01*
X285532017Y-10417414D02*
X285408207Y-10603128D01*
X285408207Y-10603128D02*
X285346303Y-10850747D01*
X285346303Y-10850747D02*
X285346303Y-11345985D01*
X285346303Y-11345985D02*
X285408207Y-11469795D01*
X285408207Y-11469795D02*
X285470112Y-11531700D01*
X285470112Y-11531700D02*
X285593922Y-11593604D01*
X285593922Y-11593604D02*
X285841541Y-11593604D01*
X285841541Y-11593604D02*
X285965350Y-11531700D01*
X285965350Y-11531700D02*
X286027255Y-11469795D01*
X286027255Y-11469795D02*
X286089160Y-11345985D01*
X286089160Y-11345985D02*
X286089160Y-11036461D01*
X286089160Y-11036461D02*
X286027255Y-10912652D01*
X286027255Y-10912652D02*
X285965350Y-10850747D01*
X285965350Y-10850747D02*
X285841541Y-10788842D01*
X285841541Y-10788842D02*
X285593922Y-10788842D01*
X285593922Y-10788842D02*
X285470112Y-10850747D01*
X285470112Y-10850747D02*
X285408207Y-10912652D01*
X285408207Y-10912652D02*
X285346303Y-11036461D01*
D10*
D11*
X60000000Y-198007200D02*
X60000000Y-200007200D01*
D10*
D11*
X110000000Y-198007200D02*
X110000000Y-200007200D01*
D10*
D11*
X160000000Y-198007200D02*
X160000000Y-200007200D01*
D10*
D11*
X210000000Y-198007200D02*
X210000000Y-200007200D01*
D10*
D11*
X260000000Y-198007200D02*
X260000000Y-200007200D01*
D10*
D11*
X36089160Y-199600804D02*
X35346303Y-199600804D01*
X35717731Y-199600804D02*
X35717731Y-198300804D01*
X35717731Y-198300804D02*
X35593922Y-198486519D01*
X35593922Y-198486519D02*
X35470112Y-198610328D01*
X35470112Y-198610328D02*
X35346303Y-198672233D01*
D10*
D11*
X85346303Y-198424614D02*
X85408207Y-198362709D01*
X85408207Y-198362709D02*
X85532017Y-198300804D01*
X85532017Y-198300804D02*
X85841541Y-198300804D01*
X85841541Y-198300804D02*
X85965350Y-198362709D01*
X85965350Y-198362709D02*
X86027255Y-198424614D01*
X86027255Y-198424614D02*
X86089160Y-198548423D01*
X86089160Y-198548423D02*
X86089160Y-198672233D01*
X86089160Y-198672233D02*
X86027255Y-198857947D01*
X86027255Y-198857947D02*
X85284398Y-199600804D01*
X85284398Y-199600804D02*
X86089160Y-199600804D01*
D10*
D11*
X135284398Y-198300804D02*
X136089160Y-198300804D01*
X136089160Y-198300804D02*
X135655826Y-198796042D01*
X135655826Y-198796042D02*
X135841541Y-198796042D01*
X135841541Y-198796042D02*
X135965350Y-198857947D01*
X135965350Y-198857947D02*
X136027255Y-198919852D01*
X136027255Y-198919852D02*
X136089160Y-199043661D01*
X136089160Y-199043661D02*
X136089160Y-199353185D01*
X136089160Y-199353185D02*
X136027255Y-199476995D01*
X136027255Y-199476995D02*
X135965350Y-199538900D01*
X135965350Y-199538900D02*
X135841541Y-199600804D01*
X135841541Y-199600804D02*
X135470112Y-199600804D01*
X135470112Y-199600804D02*
X135346303Y-199538900D01*
X135346303Y-199538900D02*
X135284398Y-199476995D01*
D10*
D11*
X185965350Y-198734138D02*
X185965350Y-199600804D01*
X185655826Y-198238900D02*
X185346303Y-199167471D01*
X185346303Y-199167471D02*
X186151064Y-199167471D01*
D10*
D11*
X236027255Y-198300804D02*
X235408207Y-198300804D01*
X235408207Y-198300804D02*
X235346303Y-198919852D01*
X235346303Y-198919852D02*
X235408207Y-198857947D01*
X235408207Y-198857947D02*
X235532017Y-198796042D01*
X235532017Y-198796042D02*
X235841541Y-198796042D01*
X235841541Y-198796042D02*
X235965350Y-198857947D01*
X235965350Y-198857947D02*
X236027255Y-198919852D01*
X236027255Y-198919852D02*
X236089160Y-199043661D01*
X236089160Y-199043661D02*
X236089160Y-199353185D01*
X236089160Y-199353185D02*
X236027255Y-199476995D01*
X236027255Y-199476995D02*
X235965350Y-199538900D01*
X235965350Y-199538900D02*
X235841541Y-199600804D01*
X235841541Y-199600804D02*
X235532017Y-199600804D01*
X235532017Y-199600804D02*
X235408207Y-199538900D01*
X235408207Y-199538900D02*
X235346303Y-199476995D01*
D10*
D11*
X285965350Y-198300804D02*
X285717731Y-198300804D01*
X285717731Y-198300804D02*
X285593922Y-198362709D01*
X285593922Y-198362709D02*
X285532017Y-198424614D01*
X285532017Y-198424614D02*
X285408207Y-198610328D01*
X285408207Y-198610328D02*
X285346303Y-198857947D01*
X285346303Y-198857947D02*
X285346303Y-199353185D01*
X285346303Y-199353185D02*
X285408207Y-199476995D01*
X285408207Y-199476995D02*
X285470112Y-199538900D01*
X285470112Y-199538900D02*
X285593922Y-199600804D01*
X285593922Y-199600804D02*
X285841541Y-199600804D01*
X285841541Y-199600804D02*
X285965350Y-199538900D01*
X285965350Y-199538900D02*
X286027255Y-199476995D01*
X286027255Y-199476995D02*
X286089160Y-199353185D01*
X286089160Y-199353185D02*
X286089160Y-199043661D01*
X286089160Y-199043661D02*
X286027255Y-198919852D01*
X286027255Y-198919852D02*
X285965350Y-198857947D01*
X285965350Y-198857947D02*
X285841541Y-198796042D01*
X285841541Y-198796042D02*
X285593922Y-198796042D01*
X285593922Y-198796042D02*
X285470112Y-198857947D01*
X285470112Y-198857947D02*
X285408207Y-198919852D01*
X285408207Y-198919852D02*
X285346303Y-199043661D01*
D10*
D11*
X10000000Y-60000000D02*
X12000000Y-60000000D01*
D10*
D11*
X10000000Y-110000000D02*
X12000000Y-110000000D01*
D10*
D11*
X10000000Y-160000000D02*
X12000000Y-160000000D01*
D10*
D11*
X10690476Y-35222176D02*
X11309523Y-35222176D01*
X10566666Y-35593604D02*
X10999999Y-34293604D01*
X10999999Y-34293604D02*
X11433333Y-35593604D01*
D10*
D11*
X11092857Y-84912652D02*
X11278571Y-84974557D01*
X11278571Y-84974557D02*
X11340476Y-85036461D01*
X11340476Y-85036461D02*
X11402380Y-85160271D01*
X11402380Y-85160271D02*
X11402380Y-85345985D01*
X11402380Y-85345985D02*
X11340476Y-85469795D01*
X11340476Y-85469795D02*
X11278571Y-85531700D01*
X11278571Y-85531700D02*
X11154761Y-85593604D01*
X11154761Y-85593604D02*
X10659523Y-85593604D01*
X10659523Y-85593604D02*
X10659523Y-84293604D01*
X10659523Y-84293604D02*
X11092857Y-84293604D01*
X11092857Y-84293604D02*
X11216666Y-84355509D01*
X11216666Y-84355509D02*
X11278571Y-84417414D01*
X11278571Y-84417414D02*
X11340476Y-84541223D01*
X11340476Y-84541223D02*
X11340476Y-84665033D01*
X11340476Y-84665033D02*
X11278571Y-84788842D01*
X11278571Y-84788842D02*
X11216666Y-84850747D01*
X11216666Y-84850747D02*
X11092857Y-84912652D01*
X11092857Y-84912652D02*
X10659523Y-84912652D01*
D10*
D11*
X11402380Y-135469795D02*
X11340476Y-135531700D01*
X11340476Y-135531700D02*
X11154761Y-135593604D01*
X11154761Y-135593604D02*
X11030952Y-135593604D01*
X11030952Y-135593604D02*
X10845238Y-135531700D01*
X10845238Y-135531700D02*
X10721428Y-135407890D01*
X10721428Y-135407890D02*
X10659523Y-135284080D01*
X10659523Y-135284080D02*
X10597619Y-135036461D01*
X10597619Y-135036461D02*
X10597619Y-134850747D01*
X10597619Y-134850747D02*
X10659523Y-134603128D01*
X10659523Y-134603128D02*
X10721428Y-134479319D01*
X10721428Y-134479319D02*
X10845238Y-134355509D01*
X10845238Y-134355509D02*
X11030952Y-134293604D01*
X11030952Y-134293604D02*
X11154761Y-134293604D01*
X11154761Y-134293604D02*
X11340476Y-134355509D01*
X11340476Y-134355509D02*
X11402380Y-134417414D01*
D10*
D11*
X10659523Y-185593604D02*
X10659523Y-184293604D01*
X10659523Y-184293604D02*
X10969047Y-184293604D01*
X10969047Y-184293604D02*
X11154761Y-184355509D01*
X11154761Y-184355509D02*
X11278571Y-184479319D01*
X11278571Y-184479319D02*
X11340476Y-184603128D01*
X11340476Y-184603128D02*
X11402380Y-184850747D01*
X11402380Y-184850747D02*
X11402380Y-185036461D01*
X11402380Y-185036461D02*
X11340476Y-185284080D01*
X11340476Y-185284080D02*
X11278571Y-185407890D01*
X11278571Y-185407890D02*
X11154761Y-185531700D01*
X11154761Y-185531700D02*
X10969047Y-185593604D01*
X10969047Y-185593604D02*
X10659523Y-185593604D01*
D10*
D11*
X287002200Y-60000000D02*
X285002200Y-60000000D01*
D10*
D11*
X287002200Y-110000000D02*
X285002200Y-110000000D01*
D10*
D11*
X287002200Y-160000000D02*
X285002200Y-160000000D01*
D10*
D11*
X285692676Y-35222176D02*
X286311723Y-35222176D01*
X285568866Y-35593604D02*
X286002199Y-34293604D01*
X286002199Y-34293604D02*
X286435533Y-35593604D01*
D10*
D11*
X286095057Y-84912652D02*
X286280771Y-84974557D01*
X286280771Y-84974557D02*
X286342676Y-85036461D01*
X286342676Y-85036461D02*
X286404580Y-85160271D01*
X286404580Y-85160271D02*
X286404580Y-85345985D01*
X286404580Y-85345985D02*
X286342676Y-85469795D01*
X286342676Y-85469795D02*
X286280771Y-85531700D01*
X286280771Y-85531700D02*
X286156961Y-85593604D01*
X286156961Y-85593604D02*
X285661723Y-85593604D01*
X285661723Y-85593604D02*
X285661723Y-84293604D01*
X285661723Y-84293604D02*
X286095057Y-84293604D01*
X286095057Y-84293604D02*
X286218866Y-84355509D01*
X286218866Y-84355509D02*
X286280771Y-84417414D01*
X286280771Y-84417414D02*
X286342676Y-84541223D01*
X286342676Y-84541223D02*
X286342676Y-84665033D01*
X286342676Y-84665033D02*
X286280771Y-84788842D01*
X286280771Y-84788842D02*
X286218866Y-84850747D01*
X286218866Y-84850747D02*
X286095057Y-84912652D01*
X286095057Y-84912652D02*
X285661723Y-84912652D01*
D10*
D11*
X286404580Y-135469795D02*
X286342676Y-135531700D01*
X286342676Y-135531700D02*
X286156961Y-135593604D01*
X286156961Y-135593604D02*
X286033152Y-135593604D01*
X286033152Y-135593604D02*
X285847438Y-135531700D01*
X285847438Y-135531700D02*
X285723628Y-135407890D01*
X285723628Y-135407890D02*
X285661723Y-135284080D01*
X285661723Y-135284080D02*
X285599819Y-135036461D01*
X285599819Y-135036461D02*
X285599819Y-134850747D01*
X285599819Y-134850747D02*
X285661723Y-134603128D01*
X285661723Y-134603128D02*
X285723628Y-134479319D01*
X285723628Y-134479319D02*
X285847438Y-134355509D01*
X285847438Y-134355509D02*
X286033152Y-134293604D01*
X286033152Y-134293604D02*
X286156961Y-134293604D01*
X286156961Y-134293604D02*
X286342676Y-134355509D01*
X286342676Y-134355509D02*
X286404580Y-134417414D01*
D10*
D11*
X285661723Y-185593604D02*
X285661723Y-184293604D01*
X285661723Y-184293604D02*
X285971247Y-184293604D01*
X285971247Y-184293604D02*
X286156961Y-184355509D01*
X286156961Y-184355509D02*
X286280771Y-184479319D01*
X286280771Y-184479319D02*
X286342676Y-184603128D01*
X286342676Y-184603128D02*
X286404580Y-184850747D01*
X286404580Y-184850747D02*
X286404580Y-185036461D01*
X286404580Y-185036461D02*
X286342676Y-185284080D01*
X286342676Y-185284080D02*
X286280771Y-185407890D01*
X286280771Y-185407890D02*
X286156961Y-185531700D01*
X286156961Y-185531700D02*
X285971247Y-185593604D01*
X285971247Y-185593604D02*
X285661723Y-185593604D01*
D10*
D11*
X200458026Y-193793328D02*
X200458026Y-192293328D01*
X200458026Y-192293328D02*
X200815169Y-192293328D01*
X200815169Y-192293328D02*
X201029455Y-192364757D01*
X201029455Y-192364757D02*
X201172312Y-192507614D01*
X201172312Y-192507614D02*
X201243741Y-192650471D01*
X201243741Y-192650471D02*
X201315169Y-192936185D01*
X201315169Y-192936185D02*
X201315169Y-193150471D01*
X201315169Y-193150471D02*
X201243741Y-193436185D01*
X201243741Y-193436185D02*
X201172312Y-193579042D01*
X201172312Y-193579042D02*
X201029455Y-193721900D01*
X201029455Y-193721900D02*
X200815169Y-193793328D01*
X200815169Y-193793328D02*
X200458026Y-193793328D01*
X202600884Y-193793328D02*
X202600884Y-193007614D01*
X202600884Y-193007614D02*
X202529455Y-192864757D01*
X202529455Y-192864757D02*
X202386598Y-192793328D01*
X202386598Y-192793328D02*
X202100884Y-192793328D01*
X202100884Y-192793328D02*
X201958026Y-192864757D01*
X202600884Y-193721900D02*
X202458026Y-193793328D01*
X202458026Y-193793328D02*
X202100884Y-193793328D01*
X202100884Y-193793328D02*
X201958026Y-193721900D01*
X201958026Y-193721900D02*
X201886598Y-193579042D01*
X201886598Y-193579042D02*
X201886598Y-193436185D01*
X201886598Y-193436185D02*
X201958026Y-193293328D01*
X201958026Y-193293328D02*
X202100884Y-193221900D01*
X202100884Y-193221900D02*
X202458026Y-193221900D01*
X202458026Y-193221900D02*
X202600884Y-193150471D01*
X203100884Y-192793328D02*
X203672312Y-192793328D01*
X203315169Y-192293328D02*
X203315169Y-193579042D01*
X203315169Y-193579042D02*
X203386598Y-193721900D01*
X203386598Y-193721900D02*
X203529455Y-193793328D01*
X203529455Y-193793328D02*
X203672312Y-193793328D01*
X204743741Y-193721900D02*
X204600884Y-193793328D01*
X204600884Y-193793328D02*
X204315170Y-193793328D01*
X204315170Y-193793328D02*
X204172312Y-193721900D01*
X204172312Y-193721900D02*
X204100884Y-193579042D01*
X204100884Y-193579042D02*
X204100884Y-193007614D01*
X204100884Y-193007614D02*
X204172312Y-192864757D01*
X204172312Y-192864757D02*
X204315170Y-192793328D01*
X204315170Y-192793328D02*
X204600884Y-192793328D01*
X204600884Y-192793328D02*
X204743741Y-192864757D01*
X204743741Y-192864757D02*
X204815170Y-193007614D01*
X204815170Y-193007614D02*
X204815170Y-193150471D01*
X204815170Y-193150471D02*
X204100884Y-193293328D01*
X205458026Y-193650471D02*
X205529455Y-193721900D01*
X205529455Y-193721900D02*
X205458026Y-193793328D01*
X205458026Y-193793328D02*
X205386598Y-193721900D01*
X205386598Y-193721900D02*
X205458026Y-193650471D01*
X205458026Y-193650471D02*
X205458026Y-193793328D01*
X205458026Y-192864757D02*
X205529455Y-192936185D01*
X205529455Y-192936185D02*
X205458026Y-193007614D01*
X205458026Y-193007614D02*
X205386598Y-192936185D01*
X205386598Y-192936185D02*
X205458026Y-192864757D01*
X205458026Y-192864757D02*
X205458026Y-193007614D01*
D10*
D11*
X177002200Y-194507200D02*
X285002200Y-194507200D01*
D10*
D11*
X178458026Y-196593328D02*
X178458026Y-195093328D01*
X179315169Y-196593328D02*
X178672312Y-195736185D01*
X179315169Y-195093328D02*
X178458026Y-195950471D01*
X179958026Y-196593328D02*
X179958026Y-195593328D01*
X179958026Y-195093328D02*
X179886598Y-195164757D01*
X179886598Y-195164757D02*
X179958026Y-195236185D01*
X179958026Y-195236185D02*
X180029455Y-195164757D01*
X180029455Y-195164757D02*
X179958026Y-195093328D01*
X179958026Y-195093328D02*
X179958026Y-195236185D01*
X181529455Y-196450471D02*
X181458027Y-196521900D01*
X181458027Y-196521900D02*
X181243741Y-196593328D01*
X181243741Y-196593328D02*
X181100884Y-196593328D01*
X181100884Y-196593328D02*
X180886598Y-196521900D01*
X180886598Y-196521900D02*
X180743741Y-196379042D01*
X180743741Y-196379042D02*
X180672312Y-196236185D01*
X180672312Y-196236185D02*
X180600884Y-195950471D01*
X180600884Y-195950471D02*
X180600884Y-195736185D01*
X180600884Y-195736185D02*
X180672312Y-195450471D01*
X180672312Y-195450471D02*
X180743741Y-195307614D01*
X180743741Y-195307614D02*
X180886598Y-195164757D01*
X180886598Y-195164757D02*
X181100884Y-195093328D01*
X181100884Y-195093328D02*
X181243741Y-195093328D01*
X181243741Y-195093328D02*
X181458027Y-195164757D01*
X181458027Y-195164757D02*
X181529455Y-195236185D01*
X182815170Y-196593328D02*
X182815170Y-195807614D01*
X182815170Y-195807614D02*
X182743741Y-195664757D01*
X182743741Y-195664757D02*
X182600884Y-195593328D01*
X182600884Y-195593328D02*
X182315170Y-195593328D01*
X182315170Y-195593328D02*
X182172312Y-195664757D01*
X182815170Y-196521900D02*
X182672312Y-196593328D01*
X182672312Y-196593328D02*
X182315170Y-196593328D01*
X182315170Y-196593328D02*
X182172312Y-196521900D01*
X182172312Y-196521900D02*
X182100884Y-196379042D01*
X182100884Y-196379042D02*
X182100884Y-196236185D01*
X182100884Y-196236185D02*
X182172312Y-196093328D01*
X182172312Y-196093328D02*
X182315170Y-196021900D01*
X182315170Y-196021900D02*
X182672312Y-196021900D01*
X182672312Y-196021900D02*
X182815170Y-195950471D01*
X184172313Y-196593328D02*
X184172313Y-195093328D01*
X184172313Y-196521900D02*
X184029455Y-196593328D01*
X184029455Y-196593328D02*
X183743741Y-196593328D01*
X183743741Y-196593328D02*
X183600884Y-196521900D01*
X183600884Y-196521900D02*
X183529455Y-196450471D01*
X183529455Y-196450471D02*
X183458027Y-196307614D01*
X183458027Y-196307614D02*
X183458027Y-195879042D01*
X183458027Y-195879042D02*
X183529455Y-195736185D01*
X183529455Y-195736185D02*
X183600884Y-195664757D01*
X183600884Y-195664757D02*
X183743741Y-195593328D01*
X183743741Y-195593328D02*
X184029455Y-195593328D01*
X184029455Y-195593328D02*
X184172313Y-195664757D01*
X186029455Y-195807614D02*
X186529455Y-195807614D01*
X186743741Y-196593328D02*
X186029455Y-196593328D01*
X186029455Y-196593328D02*
X186029455Y-195093328D01*
X186029455Y-195093328D02*
X186743741Y-195093328D01*
X187386598Y-196450471D02*
X187458027Y-196521900D01*
X187458027Y-196521900D02*
X187386598Y-196593328D01*
X187386598Y-196593328D02*
X187315170Y-196521900D01*
X187315170Y-196521900D02*
X187386598Y-196450471D01*
X187386598Y-196450471D02*
X187386598Y-196593328D01*
X188100884Y-196593328D02*
X188100884Y-195093328D01*
X188100884Y-195093328D02*
X188458027Y-195093328D01*
X188458027Y-195093328D02*
X188672313Y-195164757D01*
X188672313Y-195164757D02*
X188815170Y-195307614D01*
X188815170Y-195307614D02*
X188886599Y-195450471D01*
X188886599Y-195450471D02*
X188958027Y-195736185D01*
X188958027Y-195736185D02*
X188958027Y-195950471D01*
X188958027Y-195950471D02*
X188886599Y-196236185D01*
X188886599Y-196236185D02*
X188815170Y-196379042D01*
X188815170Y-196379042D02*
X188672313Y-196521900D01*
X188672313Y-196521900D02*
X188458027Y-196593328D01*
X188458027Y-196593328D02*
X188100884Y-196593328D01*
X189600884Y-196450471D02*
X189672313Y-196521900D01*
X189672313Y-196521900D02*
X189600884Y-196593328D01*
X189600884Y-196593328D02*
X189529456Y-196521900D01*
X189529456Y-196521900D02*
X189600884Y-196450471D01*
X189600884Y-196450471D02*
X189600884Y-196593328D01*
X190243742Y-196164757D02*
X190958028Y-196164757D01*
X190100885Y-196593328D02*
X190600885Y-195093328D01*
X190600885Y-195093328D02*
X191100885Y-196593328D01*
X191600884Y-196450471D02*
X191672313Y-196521900D01*
X191672313Y-196521900D02*
X191600884Y-196593328D01*
X191600884Y-196593328D02*
X191529456Y-196521900D01*
X191529456Y-196521900D02*
X191600884Y-196450471D01*
X191600884Y-196450471D02*
X191600884Y-196593328D01*
X193529456Y-196593328D02*
X193815170Y-196593328D01*
X193815170Y-196593328D02*
X193958027Y-196521900D01*
X193958027Y-196521900D02*
X194029456Y-196450471D01*
X194029456Y-196450471D02*
X194172313Y-196236185D01*
X194172313Y-196236185D02*
X194243742Y-195950471D01*
X194243742Y-195950471D02*
X194243742Y-195379042D01*
X194243742Y-195379042D02*
X194172313Y-195236185D01*
X194172313Y-195236185D02*
X194100885Y-195164757D01*
X194100885Y-195164757D02*
X193958027Y-195093328D01*
X193958027Y-195093328D02*
X193672313Y-195093328D01*
X193672313Y-195093328D02*
X193529456Y-195164757D01*
X193529456Y-195164757D02*
X193458027Y-195236185D01*
X193458027Y-195236185D02*
X193386599Y-195379042D01*
X193386599Y-195379042D02*
X193386599Y-195736185D01*
X193386599Y-195736185D02*
X193458027Y-195879042D01*
X193458027Y-195879042D02*
X193529456Y-195950471D01*
X193529456Y-195950471D02*
X193672313Y-196021900D01*
X193672313Y-196021900D02*
X193958027Y-196021900D01*
X193958027Y-196021900D02*
X194100885Y-195950471D01*
X194100885Y-195950471D02*
X194172313Y-195879042D01*
X194172313Y-195879042D02*
X194243742Y-195736185D01*
X194886598Y-196450471D02*
X194958027Y-196521900D01*
X194958027Y-196521900D02*
X194886598Y-196593328D01*
X194886598Y-196593328D02*
X194815170Y-196521900D01*
X194815170Y-196521900D02*
X194886598Y-196450471D01*
X194886598Y-196450471D02*
X194886598Y-196593328D01*
X195886599Y-195093328D02*
X196029456Y-195093328D01*
X196029456Y-195093328D02*
X196172313Y-195164757D01*
X196172313Y-195164757D02*
X196243742Y-195236185D01*
X196243742Y-195236185D02*
X196315170Y-195379042D01*
X196315170Y-195379042D02*
X196386599Y-195664757D01*
X196386599Y-195664757D02*
X196386599Y-196021900D01*
X196386599Y-196021900D02*
X196315170Y-196307614D01*
X196315170Y-196307614D02*
X196243742Y-196450471D01*
X196243742Y-196450471D02*
X196172313Y-196521900D01*
X196172313Y-196521900D02*
X196029456Y-196593328D01*
X196029456Y-196593328D02*
X195886599Y-196593328D01*
X195886599Y-196593328D02*
X195743742Y-196521900D01*
X195743742Y-196521900D02*
X195672313Y-196450471D01*
X195672313Y-196450471D02*
X195600884Y-196307614D01*
X195600884Y-196307614D02*
X195529456Y-196021900D01*
X195529456Y-196021900D02*
X195529456Y-195664757D01*
X195529456Y-195664757D02*
X195600884Y-195379042D01*
X195600884Y-195379042D02*
X195672313Y-195236185D01*
X195672313Y-195236185D02*
X195743742Y-195164757D01*
X195743742Y-195164757D02*
X195886599Y-195093328D01*
X197029455Y-196450471D02*
X197100884Y-196521900D01*
X197100884Y-196521900D02*
X197029455Y-196593328D01*
X197029455Y-196593328D02*
X196958027Y-196521900D01*
X196958027Y-196521900D02*
X197029455Y-196450471D01*
X197029455Y-196450471D02*
X197029455Y-196593328D01*
X198386599Y-195093328D02*
X198100884Y-195093328D01*
X198100884Y-195093328D02*
X197958027Y-195164757D01*
X197958027Y-195164757D02*
X197886599Y-195236185D01*
X197886599Y-195236185D02*
X197743741Y-195450471D01*
X197743741Y-195450471D02*
X197672313Y-195736185D01*
X197672313Y-195736185D02*
X197672313Y-196307614D01*
X197672313Y-196307614D02*
X197743741Y-196450471D01*
X197743741Y-196450471D02*
X197815170Y-196521900D01*
X197815170Y-196521900D02*
X197958027Y-196593328D01*
X197958027Y-196593328D02*
X198243741Y-196593328D01*
X198243741Y-196593328D02*
X198386599Y-196521900D01*
X198386599Y-196521900D02*
X198458027Y-196450471D01*
X198458027Y-196450471D02*
X198529456Y-196307614D01*
X198529456Y-196307614D02*
X198529456Y-195950471D01*
X198529456Y-195950471D02*
X198458027Y-195807614D01*
X198458027Y-195807614D02*
X198386599Y-195736185D01*
X198386599Y-195736185D02*
X198243741Y-195664757D01*
X198243741Y-195664757D02*
X197958027Y-195664757D01*
X197958027Y-195664757D02*
X197815170Y-195736185D01*
X197815170Y-195736185D02*
X197743741Y-195807614D01*
X197743741Y-195807614D02*
X197672313Y-195950471D01*
D10*
D11*
X177002200Y-191507200D02*
X285002200Y-191507200D01*
D10*
D12*
X264413853Y-193785528D02*
X263913853Y-193071242D01*
X263556710Y-193785528D02*
X263556710Y-192285528D01*
X263556710Y-192285528D02*
X264128139Y-192285528D01*
X264128139Y-192285528D02*
X264270996Y-192356957D01*
X264270996Y-192356957D02*
X264342425Y-192428385D01*
X264342425Y-192428385D02*
X264413853Y-192571242D01*
X264413853Y-192571242D02*
X264413853Y-192785528D01*
X264413853Y-192785528D02*
X264342425Y-192928385D01*
X264342425Y-192928385D02*
X264270996Y-192999814D01*
X264270996Y-192999814D02*
X264128139Y-193071242D01*
X264128139Y-193071242D02*
X263556710Y-193071242D01*
X265628139Y-193714100D02*
X265485282Y-193785528D01*
X265485282Y-193785528D02*
X265199568Y-193785528D01*
X265199568Y-193785528D02*
X265056710Y-193714100D01*
X265056710Y-193714100D02*
X264985282Y-193571242D01*
X264985282Y-193571242D02*
X264985282Y-192999814D01*
X264985282Y-192999814D02*
X265056710Y-192856957D01*
X265056710Y-192856957D02*
X265199568Y-192785528D01*
X265199568Y-192785528D02*
X265485282Y-192785528D01*
X265485282Y-192785528D02*
X265628139Y-192856957D01*
X265628139Y-192856957D02*
X265699568Y-192999814D01*
X265699568Y-192999814D02*
X265699568Y-193142671D01*
X265699568Y-193142671D02*
X264985282Y-193285528D01*
X266199567Y-192785528D02*
X266556710Y-193785528D01*
X266556710Y-193785528D02*
X266913853Y-192785528D01*
X267485281Y-193642671D02*
X267556710Y-193714100D01*
X267556710Y-193714100D02*
X267485281Y-193785528D01*
X267485281Y-193785528D02*
X267413853Y-193714100D01*
X267413853Y-193714100D02*
X267485281Y-193642671D01*
X267485281Y-193642671D02*
X267485281Y-193785528D01*
X267485281Y-192856957D02*
X267556710Y-192928385D01*
X267556710Y-192928385D02*
X267485281Y-192999814D01*
X267485281Y-192999814D02*
X267413853Y-192928385D01*
X267413853Y-192928385D02*
X267485281Y-192856957D01*
X267485281Y-192856957D02*
X267485281Y-192999814D01*
D10*
D11*
X178386598Y-193721900D02*
X178600884Y-193793328D01*
X178600884Y-193793328D02*
X178958026Y-193793328D01*
X178958026Y-193793328D02*
X179100884Y-193721900D01*
X179100884Y-193721900D02*
X179172312Y-193650471D01*
X179172312Y-193650471D02*
X179243741Y-193507614D01*
X179243741Y-193507614D02*
X179243741Y-193364757D01*
X179243741Y-193364757D02*
X179172312Y-193221900D01*
X179172312Y-193221900D02*
X179100884Y-193150471D01*
X179100884Y-193150471D02*
X178958026Y-193079042D01*
X178958026Y-193079042D02*
X178672312Y-193007614D01*
X178672312Y-193007614D02*
X178529455Y-192936185D01*
X178529455Y-192936185D02*
X178458026Y-192864757D01*
X178458026Y-192864757D02*
X178386598Y-192721900D01*
X178386598Y-192721900D02*
X178386598Y-192579042D01*
X178386598Y-192579042D02*
X178458026Y-192436185D01*
X178458026Y-192436185D02*
X178529455Y-192364757D01*
X178529455Y-192364757D02*
X178672312Y-192293328D01*
X178672312Y-192293328D02*
X179029455Y-192293328D01*
X179029455Y-192293328D02*
X179243741Y-192364757D01*
X179886597Y-193793328D02*
X179886597Y-192793328D01*
X179886597Y-192293328D02*
X179815169Y-192364757D01*
X179815169Y-192364757D02*
X179886597Y-192436185D01*
X179886597Y-192436185D02*
X179958026Y-192364757D01*
X179958026Y-192364757D02*
X179886597Y-192293328D01*
X179886597Y-192293328D02*
X179886597Y-192436185D01*
X180458026Y-192793328D02*
X181243741Y-192793328D01*
X181243741Y-192793328D02*
X180458026Y-193793328D01*
X180458026Y-193793328D02*
X181243741Y-193793328D01*
X182386598Y-193721900D02*
X182243741Y-193793328D01*
X182243741Y-193793328D02*
X181958027Y-193793328D01*
X181958027Y-193793328D02*
X181815169Y-193721900D01*
X181815169Y-193721900D02*
X181743741Y-193579042D01*
X181743741Y-193579042D02*
X181743741Y-193007614D01*
X181743741Y-193007614D02*
X181815169Y-192864757D01*
X181815169Y-192864757D02*
X181958027Y-192793328D01*
X181958027Y-192793328D02*
X182243741Y-192793328D01*
X182243741Y-192793328D02*
X182386598Y-192864757D01*
X182386598Y-192864757D02*
X182458027Y-193007614D01*
X182458027Y-193007614D02*
X182458027Y-193150471D01*
X182458027Y-193150471D02*
X181743741Y-193293328D01*
X183100883Y-193650471D02*
X183172312Y-193721900D01*
X183172312Y-193721900D02*
X183100883Y-193793328D01*
X183100883Y-193793328D02*
X183029455Y-193721900D01*
X183029455Y-193721900D02*
X183100883Y-193650471D01*
X183100883Y-193650471D02*
X183100883Y-193793328D01*
X183100883Y-192864757D02*
X183172312Y-192936185D01*
X183172312Y-192936185D02*
X183100883Y-193007614D01*
X183100883Y-193007614D02*
X183029455Y-192936185D01*
X183029455Y-192936185D02*
X183100883Y-192864757D01*
X183100883Y-192864757D02*
X183100883Y-193007614D01*
X184886598Y-193364757D02*
X185600884Y-193364757D01*
X184743741Y-193793328D02*
X185243741Y-192293328D01*
X185243741Y-192293328D02*
X185743741Y-193793328D01*
X186886598Y-192793328D02*
X186886598Y-193793328D01*
X186529455Y-192221900D02*
X186172312Y-193293328D01*
X186172312Y-193293328D02*
X187100883Y-193293328D01*
D10*
D11*
X263458026Y-196593328D02*
X263458026Y-195093328D01*
X264815170Y-196593328D02*
X264815170Y-195093328D01*
X264815170Y-196521900D02*
X264672312Y-196593328D01*
X264672312Y-196593328D02*
X264386598Y-196593328D01*
X264386598Y-196593328D02*
X264243741Y-196521900D01*
X264243741Y-196521900D02*
X264172312Y-196450471D01*
X264172312Y-196450471D02*
X264100884Y-196307614D01*
X264100884Y-196307614D02*
X264100884Y-195879042D01*
X264100884Y-195879042D02*
X264172312Y-195736185D01*
X264172312Y-195736185D02*
X264243741Y-195664757D01*
X264243741Y-195664757D02*
X264386598Y-195593328D01*
X264386598Y-195593328D02*
X264672312Y-195593328D01*
X264672312Y-195593328D02*
X264815170Y-195664757D01*
X265529455Y-196450471D02*
X265600884Y-196521900D01*
X265600884Y-196521900D02*
X265529455Y-196593328D01*
X265529455Y-196593328D02*
X265458027Y-196521900D01*
X265458027Y-196521900D02*
X265529455Y-196450471D01*
X265529455Y-196450471D02*
X265529455Y-196593328D01*
X265529455Y-195664757D02*
X265600884Y-195736185D01*
X265600884Y-195736185D02*
X265529455Y-195807614D01*
X265529455Y-195807614D02*
X265458027Y-195736185D01*
X265458027Y-195736185D02*
X265529455Y-195664757D01*
X265529455Y-195664757D02*
X265529455Y-195807614D01*
X268100884Y-195093328D02*
X267386598Y-195093328D01*
X267386598Y-195093328D02*
X267315170Y-195807614D01*
X267315170Y-195807614D02*
X267386598Y-195736185D01*
X267386598Y-195736185D02*
X267529456Y-195664757D01*
X267529456Y-195664757D02*
X267886598Y-195664757D01*
X267886598Y-195664757D02*
X268029456Y-195736185D01*
X268029456Y-195736185D02*
X268100884Y-195807614D01*
X268100884Y-195807614D02*
X268172313Y-195950471D01*
X268172313Y-195950471D02*
X268172313Y-196307614D01*
X268172313Y-196307614D02*
X268100884Y-196450471D01*
X268100884Y-196450471D02*
X268029456Y-196521900D01*
X268029456Y-196521900D02*
X267886598Y-196593328D01*
X267886598Y-196593328D02*
X267529456Y-196593328D01*
X267529456Y-196593328D02*
X267386598Y-196521900D01*
X267386598Y-196521900D02*
X267315170Y-196450471D01*
X269886598Y-195021900D02*
X268600884Y-196950471D01*
X270458027Y-196593328D02*
X270743741Y-196593328D01*
X270743741Y-196593328D02*
X270886598Y-196521900D01*
X270886598Y-196521900D02*
X270958027Y-196450471D01*
X270958027Y-196450471D02*
X271100884Y-196236185D01*
X271100884Y-196236185D02*
X271172313Y-195950471D01*
X271172313Y-195950471D02*
X271172313Y-195379042D01*
X271172313Y-195379042D02*
X271100884Y-195236185D01*
X271100884Y-195236185D02*
X271029456Y-195164757D01*
X271029456Y-195164757D02*
X270886598Y-195093328D01*
X270886598Y-195093328D02*
X270600884Y-195093328D01*
X270600884Y-195093328D02*
X270458027Y-195164757D01*
X270458027Y-195164757D02*
X270386598Y-195236185D01*
X270386598Y-195236185D02*
X270315170Y-195379042D01*
X270315170Y-195379042D02*
X270315170Y-195736185D01*
X270315170Y-195736185D02*
X270386598Y-195879042D01*
X270386598Y-195879042D02*
X270458027Y-195950471D01*
X270458027Y-195950471D02*
X270600884Y-196021900D01*
X270600884Y-196021900D02*
X270886598Y-196021900D01*
X270886598Y-196021900D02*
X271029456Y-195950471D01*
X271029456Y-195950471D02*
X271100884Y-195879042D01*
X271100884Y-195879042D02*
X271172313Y-195736185D01*
D10*
D11*
X177002200Y-187507200D02*
X285002200Y-187507200D01*
D10*
D13*
X178693928Y-188211638D02*
X179836785Y-188211638D01*
X179015357Y-190211638D02*
X179265357Y-188211638D01*
X180253452Y-190211638D02*
X180420119Y-188878304D01*
X180503452Y-188211638D02*
X180396309Y-188306876D01*
X180396309Y-188306876D02*
X180479643Y-188402114D01*
X180479643Y-188402114D02*
X180586786Y-188306876D01*
X180586786Y-188306876D02*
X180503452Y-188211638D01*
X180503452Y-188211638D02*
X180479643Y-188402114D01*
X181086786Y-188878304D02*
X181848690Y-188878304D01*
X181455833Y-188211638D02*
X181241548Y-189925923D01*
X181241548Y-189925923D02*
X181312976Y-190116400D01*
X181312976Y-190116400D02*
X181491548Y-190211638D01*
X181491548Y-190211638D02*
X181682024Y-190211638D01*
X182634405Y-190211638D02*
X182455833Y-190116400D01*
X182455833Y-190116400D02*
X182384405Y-189925923D01*
X182384405Y-189925923D02*
X182598690Y-188211638D01*
X184170119Y-190116400D02*
X183967738Y-190211638D01*
X183967738Y-190211638D02*
X183586785Y-190211638D01*
X183586785Y-190211638D02*
X183408214Y-190116400D01*
X183408214Y-190116400D02*
X183336785Y-189925923D01*
X183336785Y-189925923D02*
X183432024Y-189164019D01*
X183432024Y-189164019D02*
X183551071Y-188973542D01*
X183551071Y-188973542D02*
X183753452Y-188878304D01*
X183753452Y-188878304D02*
X184134404Y-188878304D01*
X184134404Y-188878304D02*
X184312976Y-188973542D01*
X184312976Y-188973542D02*
X184384404Y-189164019D01*
X184384404Y-189164019D02*
X184360595Y-189354495D01*
X184360595Y-189354495D02*
X183384404Y-189544971D01*
X185134405Y-190021161D02*
X185217738Y-190116400D01*
X185217738Y-190116400D02*
X185110595Y-190211638D01*
X185110595Y-190211638D02*
X185027262Y-190116400D01*
X185027262Y-190116400D02*
X185134405Y-190021161D01*
X185134405Y-190021161D02*
X185110595Y-190211638D01*
X185265357Y-188973542D02*
X185348690Y-189068780D01*
X185348690Y-189068780D02*
X185241548Y-189164019D01*
X185241548Y-189164019D02*
X185158214Y-189068780D01*
X185158214Y-189068780D02*
X185265357Y-188973542D01*
X185265357Y-188973542D02*
X185241548Y-189164019D01*
D10*
D11*
X178958026Y-185607614D02*
X178458026Y-185607614D01*
X178458026Y-186393328D02*
X178458026Y-184893328D01*
X178458026Y-184893328D02*
X179172312Y-184893328D01*
X179743740Y-186393328D02*
X179743740Y-185393328D01*
X179743740Y-184893328D02*
X179672312Y-184964757D01*
X179672312Y-184964757D02*
X179743740Y-185036185D01*
X179743740Y-185036185D02*
X179815169Y-184964757D01*
X179815169Y-184964757D02*
X179743740Y-184893328D01*
X179743740Y-184893328D02*
X179743740Y-185036185D01*
X180672312Y-186393328D02*
X180529455Y-186321900D01*
X180529455Y-186321900D02*
X180458026Y-186179042D01*
X180458026Y-186179042D02*
X180458026Y-184893328D01*
X181815169Y-186321900D02*
X181672312Y-186393328D01*
X181672312Y-186393328D02*
X181386598Y-186393328D01*
X181386598Y-186393328D02*
X181243740Y-186321900D01*
X181243740Y-186321900D02*
X181172312Y-186179042D01*
X181172312Y-186179042D02*
X181172312Y-185607614D01*
X181172312Y-185607614D02*
X181243740Y-185464757D01*
X181243740Y-185464757D02*
X181386598Y-185393328D01*
X181386598Y-185393328D02*
X181672312Y-185393328D01*
X181672312Y-185393328D02*
X181815169Y-185464757D01*
X181815169Y-185464757D02*
X181886598Y-185607614D01*
X181886598Y-185607614D02*
X181886598Y-185750471D01*
X181886598Y-185750471D02*
X181172312Y-185893328D01*
X182529454Y-186250471D02*
X182600883Y-186321900D01*
X182600883Y-186321900D02*
X182529454Y-186393328D01*
X182529454Y-186393328D02*
X182458026Y-186321900D01*
X182458026Y-186321900D02*
X182529454Y-186250471D01*
X182529454Y-186250471D02*
X182529454Y-186393328D01*
X182529454Y-185464757D02*
X182600883Y-185536185D01*
X182600883Y-185536185D02*
X182529454Y-185607614D01*
X182529454Y-185607614D02*
X182458026Y-185536185D01*
X182458026Y-185536185D02*
X182529454Y-185464757D01*
X182529454Y-185464757D02*
X182529454Y-185607614D01*
X184386597Y-185393328D02*
X184386597Y-186893328D01*
X184386597Y-185464757D02*
X184529455Y-185393328D01*
X184529455Y-185393328D02*
X184815169Y-185393328D01*
X184815169Y-185393328D02*
X184958026Y-185464757D01*
X184958026Y-185464757D02*
X185029455Y-185536185D01*
X185029455Y-185536185D02*
X185100883Y-185679042D01*
X185100883Y-185679042D02*
X185100883Y-186107614D01*
X185100883Y-186107614D02*
X185029455Y-186250471D01*
X185029455Y-186250471D02*
X184958026Y-186321900D01*
X184958026Y-186321900D02*
X184815169Y-186393328D01*
X184815169Y-186393328D02*
X184529455Y-186393328D01*
X184529455Y-186393328D02*
X184386597Y-186321900D01*
X185743740Y-186393328D02*
X185743740Y-184893328D01*
X186386598Y-186393328D02*
X186386598Y-185607614D01*
X186386598Y-185607614D02*
X186315169Y-185464757D01*
X186315169Y-185464757D02*
X186172312Y-185393328D01*
X186172312Y-185393328D02*
X185958026Y-185393328D01*
X185958026Y-185393328D02*
X185815169Y-185464757D01*
X185815169Y-185464757D02*
X185743740Y-185536185D01*
X187315169Y-186393328D02*
X187172312Y-186321900D01*
X187172312Y-186321900D02*
X187100883Y-186250471D01*
X187100883Y-186250471D02*
X187029455Y-186107614D01*
X187029455Y-186107614D02*
X187029455Y-185679042D01*
X187029455Y-185679042D02*
X187100883Y-185536185D01*
X187100883Y-185536185D02*
X187172312Y-185464757D01*
X187172312Y-185464757D02*
X187315169Y-185393328D01*
X187315169Y-185393328D02*
X187529455Y-185393328D01*
X187529455Y-185393328D02*
X187672312Y-185464757D01*
X187672312Y-185464757D02*
X187743741Y-185536185D01*
X187743741Y-185536185D02*
X187815169Y-185679042D01*
X187815169Y-185679042D02*
X187815169Y-186107614D01*
X187815169Y-186107614D02*
X187743741Y-186250471D01*
X187743741Y-186250471D02*
X187672312Y-186321900D01*
X187672312Y-186321900D02*
X187529455Y-186393328D01*
X187529455Y-186393328D02*
X187315169Y-186393328D01*
X188458026Y-185393328D02*
X188458026Y-186393328D01*
X188458026Y-185536185D02*
X188529455Y-185464757D01*
X188529455Y-185464757D02*
X188672312Y-185393328D01*
X188672312Y-185393328D02*
X188886598Y-185393328D01*
X188886598Y-185393328D02*
X189029455Y-185464757D01*
X189029455Y-185464757D02*
X189100884Y-185607614D01*
X189100884Y-185607614D02*
X189100884Y-186393328D01*
X190386598Y-186321900D02*
X190243741Y-186393328D01*
X190243741Y-186393328D02*
X189958027Y-186393328D01*
X189958027Y-186393328D02*
X189815169Y-186321900D01*
X189815169Y-186321900D02*
X189743741Y-186179042D01*
X189743741Y-186179042D02*
X189743741Y-185607614D01*
X189743741Y-185607614D02*
X189815169Y-185464757D01*
X189815169Y-185464757D02*
X189958027Y-185393328D01*
X189958027Y-185393328D02*
X190243741Y-185393328D01*
X190243741Y-185393328D02*
X190386598Y-185464757D01*
X190386598Y-185464757D02*
X190458027Y-185607614D01*
X190458027Y-185607614D02*
X190458027Y-185750471D01*
X190458027Y-185750471D02*
X189743741Y-185893328D01*
X190743741Y-186536185D02*
X191886598Y-186536185D01*
X192243740Y-186393328D02*
X192243740Y-185393328D01*
X192243740Y-185536185D02*
X192315169Y-185464757D01*
X192315169Y-185464757D02*
X192458026Y-185393328D01*
X192458026Y-185393328D02*
X192672312Y-185393328D01*
X192672312Y-185393328D02*
X192815169Y-185464757D01*
X192815169Y-185464757D02*
X192886598Y-185607614D01*
X192886598Y-185607614D02*
X192886598Y-186393328D01*
X192886598Y-185607614D02*
X192958026Y-185464757D01*
X192958026Y-185464757D02*
X193100883Y-185393328D01*
X193100883Y-185393328D02*
X193315169Y-185393328D01*
X193315169Y-185393328D02*
X193458026Y-185464757D01*
X193458026Y-185464757D02*
X193529455Y-185607614D01*
X193529455Y-185607614D02*
X193529455Y-186393328D01*
X194243740Y-186393328D02*
X194243740Y-185393328D01*
X194243740Y-184893328D02*
X194172312Y-184964757D01*
X194172312Y-184964757D02*
X194243740Y-185036185D01*
X194243740Y-185036185D02*
X194315169Y-184964757D01*
X194315169Y-184964757D02*
X194243740Y-184893328D01*
X194243740Y-184893328D02*
X194243740Y-185036185D01*
X195600884Y-186321900D02*
X195458026Y-186393328D01*
X195458026Y-186393328D02*
X195172312Y-186393328D01*
X195172312Y-186393328D02*
X195029455Y-186321900D01*
X195029455Y-186321900D02*
X194958026Y-186250471D01*
X194958026Y-186250471D02*
X194886598Y-186107614D01*
X194886598Y-186107614D02*
X194886598Y-185679042D01*
X194886598Y-185679042D02*
X194958026Y-185536185D01*
X194958026Y-185536185D02*
X195029455Y-185464757D01*
X195029455Y-185464757D02*
X195172312Y-185393328D01*
X195172312Y-185393328D02*
X195458026Y-185393328D01*
X195458026Y-185393328D02*
X195600884Y-185464757D01*
X195886598Y-186536185D02*
X197029455Y-186536185D01*
X197386597Y-185393328D02*
X197386597Y-186679042D01*
X197386597Y-186679042D02*
X197315169Y-186821900D01*
X197315169Y-186821900D02*
X197172312Y-186893328D01*
X197172312Y-186893328D02*
X197100883Y-186893328D01*
X197386597Y-184893328D02*
X197315169Y-184964757D01*
X197315169Y-184964757D02*
X197386597Y-185036185D01*
X197386597Y-185036185D02*
X197458026Y-184964757D01*
X197458026Y-184964757D02*
X197386597Y-184893328D01*
X197386597Y-184893328D02*
X197386597Y-185036185D01*
X198029455Y-186321900D02*
X198172312Y-186393328D01*
X198172312Y-186393328D02*
X198458026Y-186393328D01*
X198458026Y-186393328D02*
X198600883Y-186321900D01*
X198600883Y-186321900D02*
X198672312Y-186179042D01*
X198672312Y-186179042D02*
X198672312Y-186107614D01*
X198672312Y-186107614D02*
X198600883Y-185964757D01*
X198600883Y-185964757D02*
X198458026Y-185893328D01*
X198458026Y-185893328D02*
X198243741Y-185893328D01*
X198243741Y-185893328D02*
X198100883Y-185821900D01*
X198100883Y-185821900D02*
X198029455Y-185679042D01*
X198029455Y-185679042D02*
X198029455Y-185607614D01*
X198029455Y-185607614D02*
X198100883Y-185464757D01*
X198100883Y-185464757D02*
X198243741Y-185393328D01*
X198243741Y-185393328D02*
X198458026Y-185393328D01*
X198458026Y-185393328D02*
X198600883Y-185464757D01*
X199100884Y-185393328D02*
X199672312Y-185393328D01*
X199315169Y-184893328D02*
X199315169Y-186179042D01*
X199315169Y-186179042D02*
X199386598Y-186321900D01*
X199386598Y-186321900D02*
X199529455Y-186393328D01*
X199529455Y-186393328D02*
X199672312Y-186393328D01*
X200172312Y-186250471D02*
X200243741Y-186321900D01*
X200243741Y-186321900D02*
X200172312Y-186393328D01*
X200172312Y-186393328D02*
X200100884Y-186321900D01*
X200100884Y-186321900D02*
X200172312Y-186250471D01*
X200172312Y-186250471D02*
X200172312Y-186393328D01*
X200886598Y-186393328D02*
X200886598Y-184893328D01*
X201029456Y-185821900D02*
X201458027Y-186393328D01*
X201458027Y-185393328D02*
X200886598Y-185964757D01*
X202100884Y-186393328D02*
X202100884Y-185393328D01*
X202100884Y-184893328D02*
X202029456Y-184964757D01*
X202029456Y-184964757D02*
X202100884Y-185036185D01*
X202100884Y-185036185D02*
X202172313Y-184964757D01*
X202172313Y-184964757D02*
X202100884Y-184893328D01*
X202100884Y-184893328D02*
X202100884Y-185036185D01*
X203458028Y-186321900D02*
X203315170Y-186393328D01*
X203315170Y-186393328D02*
X203029456Y-186393328D01*
X203029456Y-186393328D02*
X202886599Y-186321900D01*
X202886599Y-186321900D02*
X202815170Y-186250471D01*
X202815170Y-186250471D02*
X202743742Y-186107614D01*
X202743742Y-186107614D02*
X202743742Y-185679042D01*
X202743742Y-185679042D02*
X202815170Y-185536185D01*
X202815170Y-185536185D02*
X202886599Y-185464757D01*
X202886599Y-185464757D02*
X203029456Y-185393328D01*
X203029456Y-185393328D02*
X203315170Y-185393328D01*
X203315170Y-185393328D02*
X203458028Y-185464757D01*
X204743742Y-186393328D02*
X204743742Y-185607614D01*
X204743742Y-185607614D02*
X204672313Y-185464757D01*
X204672313Y-185464757D02*
X204529456Y-185393328D01*
X204529456Y-185393328D02*
X204243742Y-185393328D01*
X204243742Y-185393328D02*
X204100884Y-185464757D01*
X204743742Y-186321900D02*
X204600884Y-186393328D01*
X204600884Y-186393328D02*
X204243742Y-186393328D01*
X204243742Y-186393328D02*
X204100884Y-186321900D01*
X204100884Y-186321900D02*
X204029456Y-186179042D01*
X204029456Y-186179042D02*
X204029456Y-186036185D01*
X204029456Y-186036185D02*
X204100884Y-185893328D01*
X204100884Y-185893328D02*
X204243742Y-185821900D01*
X204243742Y-185821900D02*
X204600884Y-185821900D01*
X204600884Y-185821900D02*
X204743742Y-185750471D01*
X206100885Y-186393328D02*
X206100885Y-184893328D01*
X206100885Y-186321900D02*
X205958027Y-186393328D01*
X205958027Y-186393328D02*
X205672313Y-186393328D01*
X205672313Y-186393328D02*
X205529456Y-186321900D01*
X205529456Y-186321900D02*
X205458027Y-186250471D01*
X205458027Y-186250471D02*
X205386599Y-186107614D01*
X205386599Y-186107614D02*
X205386599Y-185679042D01*
X205386599Y-185679042D02*
X205458027Y-185536185D01*
X205458027Y-185536185D02*
X205529456Y-185464757D01*
X205529456Y-185464757D02*
X205672313Y-185393328D01*
X205672313Y-185393328D02*
X205958027Y-185393328D01*
X205958027Y-185393328D02*
X206100885Y-185464757D01*
X206458028Y-186536185D02*
X207600885Y-186536185D01*
X207958027Y-185393328D02*
X207958027Y-186893328D01*
X207958027Y-185464757D02*
X208100885Y-185393328D01*
X208100885Y-185393328D02*
X208386599Y-185393328D01*
X208386599Y-185393328D02*
X208529456Y-185464757D01*
X208529456Y-185464757D02*
X208600885Y-185536185D01*
X208600885Y-185536185D02*
X208672313Y-185679042D01*
X208672313Y-185679042D02*
X208672313Y-186107614D01*
X208672313Y-186107614D02*
X208600885Y-186250471D01*
X208600885Y-186250471D02*
X208529456Y-186321900D01*
X208529456Y-186321900D02*
X208386599Y-186393328D01*
X208386599Y-186393328D02*
X208100885Y-186393328D01*
X208100885Y-186393328D02*
X207958027Y-186321900D01*
X209958028Y-186321900D02*
X209815170Y-186393328D01*
X209815170Y-186393328D02*
X209529456Y-186393328D01*
X209529456Y-186393328D02*
X209386599Y-186321900D01*
X209386599Y-186321900D02*
X209315170Y-186250471D01*
X209315170Y-186250471D02*
X209243742Y-186107614D01*
X209243742Y-186107614D02*
X209243742Y-185679042D01*
X209243742Y-185679042D02*
X209315170Y-185536185D01*
X209315170Y-185536185D02*
X209386599Y-185464757D01*
X209386599Y-185464757D02*
X209529456Y-185393328D01*
X209529456Y-185393328D02*
X209815170Y-185393328D01*
X209815170Y-185393328D02*
X209958028Y-185464757D01*
X210600884Y-186393328D02*
X210600884Y-184893328D01*
X210600884Y-185464757D02*
X210743742Y-185393328D01*
X210743742Y-185393328D02*
X211029456Y-185393328D01*
X211029456Y-185393328D02*
X211172313Y-185464757D01*
X211172313Y-185464757D02*
X211243742Y-185536185D01*
X211243742Y-185536185D02*
X211315170Y-185679042D01*
X211315170Y-185679042D02*
X211315170Y-186107614D01*
X211315170Y-186107614D02*
X211243742Y-186250471D01*
X211243742Y-186250471D02*
X211172313Y-186321900D01*
X211172313Y-186321900D02*
X211029456Y-186393328D01*
X211029456Y-186393328D02*
X210743742Y-186393328D01*
X210743742Y-186393328D02*
X210600884Y-186321900D01*
D10*
D11*
X177002200Y-181507200D02*
X285002200Y-181507200D01*
D10*
D11*
X178386598Y-183621900D02*
X178600884Y-183693328D01*
X178600884Y-183693328D02*
X178958026Y-183693328D01*
X178958026Y-183693328D02*
X179100884Y-183621900D01*
X179100884Y-183621900D02*
X179172312Y-183550471D01*
X179172312Y-183550471D02*
X179243741Y-183407614D01*
X179243741Y-183407614D02*
X179243741Y-183264757D01*
X179243741Y-183264757D02*
X179172312Y-183121900D01*
X179172312Y-183121900D02*
X179100884Y-183050471D01*
X179100884Y-183050471D02*
X178958026Y-182979042D01*
X178958026Y-182979042D02*
X178672312Y-182907614D01*
X178672312Y-182907614D02*
X178529455Y-182836185D01*
X178529455Y-182836185D02*
X178458026Y-182764757D01*
X178458026Y-182764757D02*
X178386598Y-182621900D01*
X178386598Y-182621900D02*
X178386598Y-182479042D01*
X178386598Y-182479042D02*
X178458026Y-182336185D01*
X178458026Y-182336185D02*
X178529455Y-182264757D01*
X178529455Y-182264757D02*
X178672312Y-182193328D01*
X178672312Y-182193328D02*
X179029455Y-182193328D01*
X179029455Y-182193328D02*
X179243741Y-182264757D01*
X179886597Y-183693328D02*
X179886597Y-182193328D01*
X180529455Y-183693328D02*
X180529455Y-182907614D01*
X180529455Y-182907614D02*
X180458026Y-182764757D01*
X180458026Y-182764757D02*
X180315169Y-182693328D01*
X180315169Y-182693328D02*
X180100883Y-182693328D01*
X180100883Y-182693328D02*
X179958026Y-182764757D01*
X179958026Y-182764757D02*
X179886597Y-182836185D01*
X181815169Y-183621900D02*
X181672312Y-183693328D01*
X181672312Y-183693328D02*
X181386598Y-183693328D01*
X181386598Y-183693328D02*
X181243740Y-183621900D01*
X181243740Y-183621900D02*
X181172312Y-183479042D01*
X181172312Y-183479042D02*
X181172312Y-182907614D01*
X181172312Y-182907614D02*
X181243740Y-182764757D01*
X181243740Y-182764757D02*
X181386598Y-182693328D01*
X181386598Y-182693328D02*
X181672312Y-182693328D01*
X181672312Y-182693328D02*
X181815169Y-182764757D01*
X181815169Y-182764757D02*
X181886598Y-182907614D01*
X181886598Y-182907614D02*
X181886598Y-183050471D01*
X181886598Y-183050471D02*
X181172312Y-183193328D01*
X183100883Y-183621900D02*
X182958026Y-183693328D01*
X182958026Y-183693328D02*
X182672312Y-183693328D01*
X182672312Y-183693328D02*
X182529454Y-183621900D01*
X182529454Y-183621900D02*
X182458026Y-183479042D01*
X182458026Y-183479042D02*
X182458026Y-182907614D01*
X182458026Y-182907614D02*
X182529454Y-182764757D01*
X182529454Y-182764757D02*
X182672312Y-182693328D01*
X182672312Y-182693328D02*
X182958026Y-182693328D01*
X182958026Y-182693328D02*
X183100883Y-182764757D01*
X183100883Y-182764757D02*
X183172312Y-182907614D01*
X183172312Y-182907614D02*
X183172312Y-183050471D01*
X183172312Y-183050471D02*
X182458026Y-183193328D01*
X183600883Y-182693328D02*
X184172311Y-182693328D01*
X183815168Y-182193328D02*
X183815168Y-183479042D01*
X183815168Y-183479042D02*
X183886597Y-183621900D01*
X183886597Y-183621900D02*
X184029454Y-183693328D01*
X184029454Y-183693328D02*
X184172311Y-183693328D01*
X184672311Y-183550471D02*
X184743740Y-183621900D01*
X184743740Y-183621900D02*
X184672311Y-183693328D01*
X184672311Y-183693328D02*
X184600883Y-183621900D01*
X184600883Y-183621900D02*
X184672311Y-183550471D01*
X184672311Y-183550471D02*
X184672311Y-183693328D01*
X184672311Y-182764757D02*
X184743740Y-182836185D01*
X184743740Y-182836185D02*
X184672311Y-182907614D01*
X184672311Y-182907614D02*
X184600883Y-182836185D01*
X184600883Y-182836185D02*
X184672311Y-182764757D01*
X184672311Y-182764757D02*
X184672311Y-182907614D01*
D10*
D11*
X197002200Y-191507200D02*
X197002200Y-194507200D01*
D10*
D11*
X261002200Y-191507200D02*
X261002200Y-198007200D01*
X109311905Y-88014819D02*
X109311905Y-87014819D01*
X109311905Y-87014819D02*
X109550000Y-87014819D01*
X109550000Y-87014819D02*
X109692857Y-87062438D01*
X109692857Y-87062438D02*
X109788095Y-87157676D01*
X109788095Y-87157676D02*
X109835714Y-87252914D01*
X109835714Y-87252914D02*
X109883333Y-87443390D01*
X109883333Y-87443390D02*
X109883333Y-87586247D01*
X109883333Y-87586247D02*
X109835714Y-87776723D01*
X109835714Y-87776723D02*
X109788095Y-87871961D01*
X109788095Y-87871961D02*
X109692857Y-87967200D01*
X109692857Y-87967200D02*
X109550000Y-88014819D01*
X109550000Y-88014819D02*
X109311905Y-88014819D01*
X110835714Y-88014819D02*
X110264286Y-88014819D01*
X110550000Y-88014819D02*
X110550000Y-87014819D01*
X110550000Y-87014819D02*
X110454762Y-87157676D01*
X110454762Y-87157676D02*
X110359524Y-87252914D01*
X110359524Y-87252914D02*
X110264286Y-87300533D01*
X119816667Y-88107200D02*
X119959524Y-88154819D01*
X119959524Y-88154819D02*
X120197619Y-88154819D01*
X120197619Y-88154819D02*
X120292857Y-88107200D01*
X120292857Y-88107200D02*
X120340476Y-88059580D01*
X120340476Y-88059580D02*
X120388095Y-87964342D01*
X120388095Y-87964342D02*
X120388095Y-87869104D01*
X120388095Y-87869104D02*
X120340476Y-87773866D01*
X120340476Y-87773866D02*
X120292857Y-87726247D01*
X120292857Y-87726247D02*
X120197619Y-87678628D01*
X120197619Y-87678628D02*
X120007143Y-87631009D01*
X120007143Y-87631009D02*
X119911905Y-87583390D01*
X119911905Y-87583390D02*
X119864286Y-87535771D01*
X119864286Y-87535771D02*
X119816667Y-87440533D01*
X119816667Y-87440533D02*
X119816667Y-87345295D01*
X119816667Y-87345295D02*
X119864286Y-87250057D01*
X119864286Y-87250057D02*
X119911905Y-87202438D01*
X119911905Y-87202438D02*
X120007143Y-87154819D01*
X120007143Y-87154819D02*
X120245238Y-87154819D01*
X120245238Y-87154819D02*
X120388095Y-87202438D01*
X120721429Y-87154819D02*
X120959524Y-88154819D01*
X120959524Y-88154819D02*
X121150000Y-87440533D01*
X121150000Y-87440533D02*
X121340476Y-88154819D01*
X121340476Y-88154819D02*
X121578572Y-87154819D01*
X122483333Y-88154819D02*
X121911905Y-88154819D01*
X122197619Y-88154819D02*
X122197619Y-87154819D01*
X122197619Y-87154819D02*
X122102381Y-87297676D01*
X122102381Y-87297676D02*
X122007143Y-87392914D01*
X122007143Y-87392914D02*
X121911905Y-87440533D01*
X98214285Y-87474819D02*
X97880952Y-86998628D01*
X97642857Y-87474819D02*
X97642857Y-86474819D01*
X97642857Y-86474819D02*
X98023809Y-86474819D01*
X98023809Y-86474819D02*
X98119047Y-86522438D01*
X98119047Y-86522438D02*
X98166666Y-86570057D01*
X98166666Y-86570057D02*
X98214285Y-86665295D01*
X98214285Y-86665295D02*
X98214285Y-86808152D01*
X98214285Y-86808152D02*
X98166666Y-86903390D01*
X98166666Y-86903390D02*
X98119047Y-86951009D01*
X98119047Y-86951009D02*
X98023809Y-86998628D01*
X98023809Y-86998628D02*
X97642857Y-86998628D01*
X98404762Y-87570057D02*
X99166666Y-87570057D01*
X99880952Y-87474819D02*
X99404762Y-87474819D01*
X99404762Y-87474819D02*
X99404762Y-86474819D01*
X100214286Y-86951009D02*
X100547619Y-86951009D01*
X100690476Y-87474819D02*
X100214286Y-87474819D01*
X100214286Y-87474819D02*
X100214286Y-86474819D01*
X100214286Y-86474819D02*
X100690476Y-86474819D01*
X101119048Y-87474819D02*
X101119048Y-86474819D01*
X101119048Y-86474819D02*
X101357143Y-86474819D01*
X101357143Y-86474819D02*
X101500000Y-86522438D01*
X101500000Y-86522438D02*
X101595238Y-86617676D01*
X101595238Y-86617676D02*
X101642857Y-86712914D01*
X101642857Y-86712914D02*
X101690476Y-86903390D01*
X101690476Y-86903390D02*
X101690476Y-87046247D01*
X101690476Y-87046247D02*
X101642857Y-87236723D01*
X101642857Y-87236723D02*
X101595238Y-87331961D01*
X101595238Y-87331961D02*
X101500000Y-87427200D01*
X101500000Y-87427200D02*
X101357143Y-87474819D01*
X101357143Y-87474819D02*
X101119048Y-87474819D01*
X101880953Y-87570057D02*
X102642857Y-87570057D01*
X103404762Y-87474819D02*
X102833334Y-87474819D01*
X103119048Y-87474819D02*
X103119048Y-86474819D01*
X103119048Y-86474819D02*
X103023810Y-86617676D01*
X103023810Y-86617676D02*
X102928572Y-86712914D01*
X102928572Y-86712914D02*
X102833334Y-86760533D01*
X121634819Y-64166666D02*
X121158628Y-64499999D01*
X121634819Y-64738094D02*
X120634819Y-64738094D01*
X120634819Y-64738094D02*
X120634819Y-64357142D01*
X120634819Y-64357142D02*
X120682438Y-64261904D01*
X120682438Y-64261904D02*
X120730057Y-64214285D01*
X120730057Y-64214285D02*
X120825295Y-64166666D01*
X120825295Y-64166666D02*
X120968152Y-64166666D01*
X120968152Y-64166666D02*
X121063390Y-64214285D01*
X121063390Y-64214285D02*
X121111009Y-64261904D01*
X121111009Y-64261904D02*
X121158628Y-64357142D01*
X121158628Y-64357142D02*
X121158628Y-64738094D01*
X120634819Y-63833332D02*
X120634819Y-63214285D01*
X120634819Y-63214285D02*
X121015771Y-63547618D01*
X121015771Y-63547618D02*
X121015771Y-63404761D01*
X121015771Y-63404761D02*
X121063390Y-63309523D01*
X121063390Y-63309523D02*
X121111009Y-63261904D01*
X121111009Y-63261904D02*
X121206247Y-63214285D01*
X121206247Y-63214285D02*
X121444342Y-63214285D01*
X121444342Y-63214285D02*
X121539580Y-63261904D01*
X121539580Y-63261904D02*
X121587200Y-63309523D01*
X121587200Y-63309523D02*
X121634819Y-63404761D01*
X121634819Y-63404761D02*
X121634819Y-63690475D01*
X121634819Y-63690475D02*
X121587200Y-63785713D01*
X121587200Y-63785713D02*
X121539580Y-63833332D01*
X96184819Y-69166666D02*
X95708628Y-69499999D01*
X96184819Y-69738094D02*
X95184819Y-69738094D01*
X95184819Y-69738094D02*
X95184819Y-69357142D01*
X95184819Y-69357142D02*
X95232438Y-69261904D01*
X95232438Y-69261904D02*
X95280057Y-69214285D01*
X95280057Y-69214285D02*
X95375295Y-69166666D01*
X95375295Y-69166666D02*
X95518152Y-69166666D01*
X95518152Y-69166666D02*
X95613390Y-69214285D01*
X95613390Y-69214285D02*
X95661009Y-69261904D01*
X95661009Y-69261904D02*
X95708628Y-69357142D01*
X95708628Y-69357142D02*
X95708628Y-69738094D01*
X95518152Y-68309523D02*
X96184819Y-68309523D01*
X95137200Y-68547618D02*
X95851485Y-68785713D01*
X95851485Y-68785713D02*
X95851485Y-68166666D01*
X114124819Y-64116666D02*
X113648628Y-64449999D01*
X114124819Y-64688094D02*
X113124819Y-64688094D01*
X113124819Y-64688094D02*
X113124819Y-64307142D01*
X113124819Y-64307142D02*
X113172438Y-64211904D01*
X113172438Y-64211904D02*
X113220057Y-64164285D01*
X113220057Y-64164285D02*
X113315295Y-64116666D01*
X113315295Y-64116666D02*
X113458152Y-64116666D01*
X113458152Y-64116666D02*
X113553390Y-64164285D01*
X113553390Y-64164285D02*
X113601009Y-64211904D01*
X113601009Y-64211904D02*
X113648628Y-64307142D01*
X113648628Y-64307142D02*
X113648628Y-64688094D01*
X113220057Y-63735713D02*
X113172438Y-63688094D01*
X113172438Y-63688094D02*
X113124819Y-63592856D01*
X113124819Y-63592856D02*
X113124819Y-63354761D01*
X113124819Y-63354761D02*
X113172438Y-63259523D01*
X113172438Y-63259523D02*
X113220057Y-63211904D01*
X113220057Y-63211904D02*
X113315295Y-63164285D01*
X113315295Y-63164285D02*
X113410533Y-63164285D01*
X113410533Y-63164285D02*
X113553390Y-63211904D01*
X113553390Y-63211904D02*
X114124819Y-63783332D01*
X114124819Y-63783332D02*
X114124819Y-63164285D01*
X128754819Y-75483333D02*
X129469104Y-75483333D01*
X129469104Y-75483333D02*
X129611961Y-75530952D01*
X129611961Y-75530952D02*
X129707200Y-75626190D01*
X129707200Y-75626190D02*
X129754819Y-75769047D01*
X129754819Y-75769047D02*
X129754819Y-75864285D01*
X128850057Y-75054761D02*
X128802438Y-75007142D01*
X128802438Y-75007142D02*
X128754819Y-74911904D01*
X128754819Y-74911904D02*
X128754819Y-74673809D01*
X128754819Y-74673809D02*
X128802438Y-74578571D01*
X128802438Y-74578571D02*
X128850057Y-74530952D01*
X128850057Y-74530952D02*
X128945295Y-74483333D01*
X128945295Y-74483333D02*
X129040533Y-74483333D01*
X129040533Y-74483333D02*
X129183390Y-74530952D01*
X129183390Y-74530952D02*
X129754819Y-75102380D01*
X129754819Y-75102380D02*
X129754819Y-74483333D01*
X88116666Y-73204819D02*
X88116666Y-73919104D01*
X88116666Y-73919104D02*
X88069047Y-74061961D01*
X88069047Y-74061961D02*
X87973809Y-74157200D01*
X87973809Y-74157200D02*
X87830952Y-74204819D01*
X87830952Y-74204819D02*
X87735714Y-74204819D01*
X89116666Y-74204819D02*
X88545238Y-74204819D01*
X88830952Y-74204819D02*
X88830952Y-73204819D01*
X88830952Y-73204819D02*
X88735714Y-73347676D01*
X88735714Y-73347676D02*
X88640476Y-73442914D01*
X88640476Y-73442914D02*
X88545238Y-73490533D01*
X104333333Y-58409580D02*
X104285714Y-58457200D01*
X104285714Y-58457200D02*
X104142857Y-58504819D01*
X104142857Y-58504819D02*
X104047619Y-58504819D01*
X104047619Y-58504819D02*
X103904762Y-58457200D01*
X103904762Y-58457200D02*
X103809524Y-58361961D01*
X103809524Y-58361961D02*
X103761905Y-58266723D01*
X103761905Y-58266723D02*
X103714286Y-58076247D01*
X103714286Y-58076247D02*
X103714286Y-57933390D01*
X103714286Y-57933390D02*
X103761905Y-57742914D01*
X103761905Y-57742914D02*
X103809524Y-57647676D01*
X103809524Y-57647676D02*
X103904762Y-57552438D01*
X103904762Y-57552438D02*
X104047619Y-57504819D01*
X104047619Y-57504819D02*
X104142857Y-57504819D01*
X104142857Y-57504819D02*
X104285714Y-57552438D01*
X104285714Y-57552438D02*
X104333333Y-57600057D01*
X104714286Y-57600057D02*
X104761905Y-57552438D01*
X104761905Y-57552438D02*
X104857143Y-57504819D01*
X104857143Y-57504819D02*
X105095238Y-57504819D01*
X105095238Y-57504819D02*
X105190476Y-57552438D01*
X105190476Y-57552438D02*
X105238095Y-57600057D01*
X105238095Y-57600057D02*
X105285714Y-57695295D01*
X105285714Y-57695295D02*
X105285714Y-57790533D01*
X105285714Y-57790533D02*
X105238095Y-57933390D01*
X105238095Y-57933390D02*
X104666667Y-58504819D01*
X104666667Y-58504819D02*
X105285714Y-58504819D01*
X100533333Y-78809580D02*
X100485714Y-78857200D01*
X100485714Y-78857200D02*
X100342857Y-78904819D01*
X100342857Y-78904819D02*
X100247619Y-78904819D01*
X100247619Y-78904819D02*
X100104762Y-78857200D01*
X100104762Y-78857200D02*
X100009524Y-78761961D01*
X100009524Y-78761961D02*
X99961905Y-78666723D01*
X99961905Y-78666723D02*
X99914286Y-78476247D01*
X99914286Y-78476247D02*
X99914286Y-78333390D01*
X99914286Y-78333390D02*
X99961905Y-78142914D01*
X99961905Y-78142914D02*
X100009524Y-78047676D01*
X100009524Y-78047676D02*
X100104762Y-77952438D01*
X100104762Y-77952438D02*
X100247619Y-77904819D01*
X100247619Y-77904819D02*
X100342857Y-77904819D01*
X100342857Y-77904819D02*
X100485714Y-77952438D01*
X100485714Y-77952438D02*
X100533333Y-78000057D01*
X101485714Y-78904819D02*
X100914286Y-78904819D01*
X101200000Y-78904819D02*
X101200000Y-77904819D01*
X101200000Y-77904819D02*
X101104762Y-78047676D01*
X101104762Y-78047676D02*
X101009524Y-78142914D01*
X101009524Y-78142914D02*
X100914286Y-78190533D01*
X114933333Y-72584819D02*
X114600000Y-72108628D01*
X114361905Y-72584819D02*
X114361905Y-71584819D01*
X114361905Y-71584819D02*
X114742857Y-71584819D01*
X114742857Y-71584819D02*
X114838095Y-71632438D01*
X114838095Y-71632438D02*
X114885714Y-71680057D01*
X114885714Y-71680057D02*
X114933333Y-71775295D01*
X114933333Y-71775295D02*
X114933333Y-71918152D01*
X114933333Y-71918152D02*
X114885714Y-72013390D01*
X114885714Y-72013390D02*
X114838095Y-72061009D01*
X114838095Y-72061009D02*
X114742857Y-72108628D01*
X114742857Y-72108628D02*
X114361905Y-72108628D01*
X115885714Y-72584819D02*
X115314286Y-72584819D01*
X115600000Y-72584819D02*
X115600000Y-71584819D01*
X115600000Y-71584819D02*
X115504762Y-71727676D01*
X115504762Y-71727676D02*
X115409524Y-71822914D01*
X115409524Y-71822914D02*
X115314286Y-71870533D01*
X93824819Y-65433333D02*
X94539104Y-65433333D01*
X94539104Y-65433333D02*
X94681961Y-65480952D01*
X94681961Y-65480952D02*
X94777200Y-65576190D01*
X94777200Y-65576190D02*
X94824819Y-65719047D01*
X94824819Y-65719047D02*
X94824819Y-65814285D01*
X94158152Y-64528571D02*
X94824819Y-64528571D01*
X93777200Y-64766666D02*
X94491485Y-65004761D01*
X94491485Y-65004761D02*
X94491485Y-64385714D01*
D14*
%TO.C,D1*%
X111610000Y-83520000D02*
X111610000Y-83364000D01*
X111610000Y-85836000D02*
X111610000Y-85680000D01*
X108378563Y-83520000D02*
G75*
G02*
X111610000Y-83364484I1671437J-1080000D01*
G01*
X109009039Y-83520000D02*
G75*
G02*
X111090961Y-83520000I1040961J-1080000D01*
G01*
X111090961Y-85680000D02*
G75*
G02*
X109009039Y-85680000I-1040961J1080000D01*
G01*
X111610000Y-85835516D02*
G75*
G02*
X108378563Y-85680000I-1560000J1235516D01*
G01*
%TO.C,SW1*%
X114090000Y-81890000D02*
X114090000Y-86610000D01*
X114090000Y-84000000D02*
X114700000Y-84000000D01*
X114090000Y-85300000D02*
X114700000Y-85300000D01*
X114090000Y-86610000D02*
X128210000Y-86610000D01*
X114700000Y-82500000D02*
X114700000Y-86000000D01*
X114700000Y-86000000D02*
X116650000Y-86000000D01*
X116650000Y-86000000D02*
X116650000Y-86610000D01*
X117050000Y-83000000D02*
X117050000Y-82500000D01*
X117150000Y-82500000D02*
X117150000Y-83000000D01*
X117250000Y-82500000D02*
X117250000Y-83000000D01*
X117250000Y-83000000D02*
X117050000Y-83000000D01*
X119050000Y-83000000D02*
X119050000Y-82500000D01*
X119150000Y-82500000D02*
X119150000Y-83000000D01*
X119250000Y-82500000D02*
X119250000Y-83000000D01*
X119250000Y-83000000D02*
X119050000Y-83000000D01*
X121050000Y-83000000D02*
X121050000Y-82500000D01*
X121150000Y-82500000D02*
X121150000Y-83000000D01*
X121250000Y-82500000D02*
X121250000Y-83000000D01*
X121250000Y-83000000D02*
X121050000Y-83000000D01*
X123050000Y-83000000D02*
X123050000Y-82500000D01*
X123150000Y-82500000D02*
X123150000Y-83000000D01*
X123250000Y-82500000D02*
X123250000Y-83000000D01*
X123250000Y-83000000D02*
X123050000Y-83000000D01*
X125050000Y-83000000D02*
X125050000Y-82500000D01*
X125150000Y-82500000D02*
X125150000Y-83000000D01*
X125250000Y-82500000D02*
X125250000Y-83000000D01*
X125250000Y-83000000D02*
X125050000Y-83000000D01*
X125650000Y-86000000D02*
X127600000Y-86000000D01*
X125650000Y-86610000D02*
X125650000Y-86000000D01*
X126450000Y-86610000D02*
X126450000Y-86810000D01*
X126450000Y-86710000D02*
X126750000Y-86710000D01*
X126450000Y-86810000D02*
X126750000Y-86810000D01*
X126750000Y-86810000D02*
X126750000Y-86610000D01*
X127260000Y-86910000D02*
X128510000Y-86910000D01*
X127600000Y-82500000D02*
X114700000Y-82500000D01*
X127600000Y-86000000D02*
X127600000Y-82500000D01*
X128210000Y-81890000D02*
X114090000Y-81890000D01*
X128210000Y-84000000D02*
X127600000Y-84000000D01*
X128210000Y-85300000D02*
X127600000Y-85300000D01*
X128210000Y-86610000D02*
X128210000Y-81890000D01*
X128510000Y-86910000D02*
X128510000Y-85660000D01*
%TO.C,R_LED_1*%
X97230000Y-83280000D02*
X97230000Y-83610000D01*
X97230000Y-86020000D02*
X97230000Y-85690000D01*
X103770000Y-83280000D02*
X97230000Y-83280000D01*
X103770000Y-83610000D02*
X103770000Y-83280000D01*
X103770000Y-85690000D02*
X103770000Y-86020000D01*
X103770000Y-86020000D02*
X97230000Y-86020000D01*
%TO.C,R3*%
X122180000Y-60730000D02*
X122510000Y-60730000D01*
X122180000Y-67270000D02*
X122180000Y-60730000D01*
X122510000Y-67270000D02*
X122180000Y-67270000D01*
X124590000Y-67270000D02*
X124920000Y-67270000D01*
X124920000Y-60730000D02*
X124590000Y-60730000D01*
X124920000Y-67270000D02*
X124920000Y-60730000D01*
%TO.C,R4*%
X96730000Y-65730000D02*
X97060000Y-65730000D01*
X96730000Y-72270000D02*
X96730000Y-65730000D01*
X97060000Y-72270000D02*
X96730000Y-72270000D01*
X99140000Y-72270000D02*
X99470000Y-72270000D01*
X99470000Y-65730000D02*
X99140000Y-65730000D01*
X99470000Y-72270000D02*
X99470000Y-65730000D01*
%TO.C,R2*%
X109930000Y-60680000D02*
X109930000Y-67220000D01*
X109930000Y-67220000D02*
X110260000Y-67220000D01*
X110260000Y-60680000D02*
X109930000Y-60680000D01*
X112340000Y-60680000D02*
X112670000Y-60680000D01*
X112670000Y-60680000D02*
X112670000Y-67220000D01*
X112670000Y-67220000D02*
X112340000Y-67220000D01*
%TO.C,J2*%
X123490000Y-71090000D02*
X123490000Y-79210000D01*
X123490000Y-79210000D02*
X128210000Y-79210000D01*
X124100000Y-71700000D02*
X124100000Y-78600000D01*
X124100000Y-74050000D02*
X124600000Y-74050000D01*
X124100000Y-74150000D02*
X124600000Y-74150000D01*
X124100000Y-76050000D02*
X124600000Y-76050000D01*
X124100000Y-76150000D02*
X124600000Y-76150000D01*
X124100000Y-78600000D02*
X127600000Y-78600000D01*
X124600000Y-74050000D02*
X124600000Y-74250000D01*
X124600000Y-74250000D02*
X124100000Y-74250000D01*
X124600000Y-76050000D02*
X124600000Y-76250000D01*
X124600000Y-76250000D02*
X124100000Y-76250000D01*
X125600000Y-71090000D02*
X125600000Y-71700000D01*
X125600000Y-79210000D02*
X125600000Y-78600000D01*
X126900000Y-71090000D02*
X126900000Y-71700000D01*
X126900000Y-79210000D02*
X126900000Y-78600000D01*
X127600000Y-71700000D02*
X124100000Y-71700000D01*
X127600000Y-73650000D02*
X127600000Y-71700000D01*
X127600000Y-76650000D02*
X128210000Y-76650000D01*
X127600000Y-78600000D02*
X127600000Y-76650000D01*
X128210000Y-71090000D02*
X123490000Y-71090000D01*
X128210000Y-72850000D02*
X128410000Y-72850000D01*
X128210000Y-73650000D02*
X127600000Y-73650000D01*
X128210000Y-79210000D02*
X128210000Y-71090000D01*
X128310000Y-72850000D02*
X128310000Y-72550000D01*
X128410000Y-72550000D02*
X128210000Y-72550000D01*
X128410000Y-72850000D02*
X128410000Y-72550000D01*
X128510000Y-70790000D02*
X127260000Y-70790000D01*
X128510000Y-72040000D02*
X128510000Y-70790000D01*
%TO.C,J1*%
X83550000Y-75250000D02*
X83550000Y-76550000D01*
X83850000Y-75550000D02*
X85850000Y-75550000D01*
X83850000Y-90050000D02*
X83850000Y-75550000D01*
X85250000Y-75250000D02*
X83550000Y-75250000D01*
X91050000Y-75550000D02*
X93050000Y-75550000D01*
X93050000Y-75550000D02*
X93050000Y-76850000D01*
X93050000Y-81450000D02*
X93050000Y-90050000D01*
X93050000Y-90050000D02*
X83850000Y-90050000D01*
%TO.C,C2*%
X97145225Y-58675000D02*
X97645225Y-58675000D01*
X97395225Y-58425000D02*
X97395225Y-58925000D01*
X99950000Y-57570000D02*
X99950000Y-59110000D01*
X99950000Y-61190000D02*
X99950000Y-62730000D01*
X99990000Y-57570000D02*
X99990000Y-59110000D01*
X99990000Y-61190000D02*
X99990000Y-62730000D01*
X100030000Y-57571000D02*
X100030000Y-59110000D01*
X100030000Y-61190000D02*
X100030000Y-62729000D01*
X100070000Y-57573000D02*
X100070000Y-59110000D01*
X100070000Y-61190000D02*
X100070000Y-62727000D01*
X100110000Y-57575000D02*
X100110000Y-59110000D01*
X100110000Y-61190000D02*
X100110000Y-62725000D01*
X100150000Y-57578000D02*
X100150000Y-59110000D01*
X100150000Y-61190000D02*
X100150000Y-62722000D01*
X100190000Y-57581000D02*
X100190000Y-59110000D01*
X100190000Y-61190000D02*
X100190000Y-62719000D01*
X100230000Y-57585000D02*
X100230000Y-59110000D01*
X100230000Y-61190000D02*
X100230000Y-62715000D01*
X100270000Y-57590000D02*
X100270000Y-59110000D01*
X100270000Y-61190000D02*
X100270000Y-62710000D01*
X100310000Y-57595000D02*
X100310000Y-59110000D01*
X100310000Y-61190000D02*
X100310000Y-62705000D01*
X100350000Y-57601000D02*
X100350000Y-59110000D01*
X100350000Y-61190000D02*
X100350000Y-62699000D01*
X100390000Y-57607000D02*
X100390000Y-59110000D01*
X100390000Y-61190000D02*
X100390000Y-62693000D01*
X100430000Y-57614000D02*
X100430000Y-59110000D01*
X100430000Y-61190000D02*
X100430000Y-62686000D01*
X100470000Y-57622000D02*
X100470000Y-59110000D01*
X100470000Y-61190000D02*
X100470000Y-62678000D01*
X100510000Y-57631000D02*
X100510000Y-59110000D01*
X100510000Y-61190000D02*
X100510000Y-62669000D01*
X100550000Y-57640000D02*
X100550000Y-59110000D01*
X100550000Y-61190000D02*
X100550000Y-62660000D01*
X100590000Y-57649000D02*
X100590000Y-59110000D01*
X100590000Y-61190000D02*
X100590000Y-62651000D01*
X100630000Y-57660000D02*
X100630000Y-59110000D01*
X100630000Y-61190000D02*
X100630000Y-62640000D01*
X100670000Y-57671000D02*
X100670000Y-59110000D01*
X100670000Y-61190000D02*
X100670000Y-62629000D01*
X100710000Y-57683000D02*
X100710000Y-59110000D01*
X100710000Y-61190000D02*
X100710000Y-62617000D01*
X100750000Y-57695000D02*
X100750000Y-59110000D01*
X100750000Y-61190000D02*
X100750000Y-62605000D01*
X100790000Y-57708000D02*
X100790000Y-59110000D01*
X100790000Y-61190000D02*
X100790000Y-62592000D01*
X100830000Y-57722000D02*
X100830000Y-59110000D01*
X100830000Y-61190000D02*
X100830000Y-62578000D01*
X100870000Y-57737000D02*
X100870000Y-59110000D01*
X100870000Y-61190000D02*
X100870000Y-62563000D01*
X100910000Y-57752000D02*
X100910000Y-59110000D01*
X100910000Y-61190000D02*
X100910000Y-62548000D01*
X100950000Y-57768000D02*
X100950000Y-59110000D01*
X100950000Y-61190000D02*
X100950000Y-62532000D01*
X100990000Y-57785000D02*
X100990000Y-59110000D01*
X100990000Y-61190000D02*
X100990000Y-62515000D01*
X101030000Y-57803000D02*
X101030000Y-59110000D01*
X101030000Y-61190000D02*
X101030000Y-62497000D01*
X101070000Y-57821000D02*
X101070000Y-59110000D01*
X101070000Y-61190000D02*
X101070000Y-62479000D01*
X101110000Y-57841000D02*
X101110000Y-59110000D01*
X101110000Y-61190000D02*
X101110000Y-62459000D01*
X101150000Y-57861000D02*
X101150000Y-59110000D01*
X101150000Y-61190000D02*
X101150000Y-62439000D01*
X101190000Y-57882000D02*
X101190000Y-59110000D01*
X101190000Y-61190000D02*
X101190000Y-62418000D01*
X101230000Y-57904000D02*
X101230000Y-59110000D01*
X101230000Y-61190000D02*
X101230000Y-62396000D01*
X101270000Y-57927000D02*
X101270000Y-59110000D01*
X101270000Y-61190000D02*
X101270000Y-62373000D01*
X101310000Y-57951000D02*
X101310000Y-59110000D01*
X101310000Y-61190000D02*
X101310000Y-62349000D01*
X101350000Y-57975000D02*
X101350000Y-59110000D01*
X101350000Y-61190000D02*
X101350000Y-62325000D01*
X101390000Y-58001000D02*
X101390000Y-59110000D01*
X101390000Y-61190000D02*
X101390000Y-62299000D01*
X101430000Y-58028000D02*
X101430000Y-59110000D01*
X101430000Y-61190000D02*
X101430000Y-62272000D01*
X101470000Y-58056000D02*
X101470000Y-59110000D01*
X101470000Y-61190000D02*
X101470000Y-62244000D01*
X101510000Y-58085000D02*
X101510000Y-59110000D01*
X101510000Y-61190000D02*
X101510000Y-62215000D01*
X101550000Y-58115000D02*
X101550000Y-59110000D01*
X101550000Y-61190000D02*
X101550000Y-62185000D01*
X101590000Y-58147000D02*
X101590000Y-59110000D01*
X101590000Y-61190000D02*
X101590000Y-62153000D01*
X101630000Y-58180000D02*
X101630000Y-59110000D01*
X101630000Y-61190000D02*
X101630000Y-62120000D01*
X101670000Y-58214000D02*
X101670000Y-59110000D01*
X101670000Y-61190000D02*
X101670000Y-62086000D01*
X101710000Y-58249000D02*
X101710000Y-59110000D01*
X101710000Y-61190000D02*
X101710000Y-62051000D01*
X101750000Y-58286000D02*
X101750000Y-59110000D01*
X101750000Y-61190000D02*
X101750000Y-62014000D01*
X101790000Y-58325000D02*
X101790000Y-59110000D01*
X101790000Y-61190000D02*
X101790000Y-61975000D01*
X101830000Y-58365000D02*
X101830000Y-59110000D01*
X101830000Y-61190000D02*
X101830000Y-61935000D01*
X101870000Y-58407000D02*
X101870000Y-59110000D01*
X101870000Y-61190000D02*
X101870000Y-61893000D01*
X101910000Y-58451000D02*
X101910000Y-59110000D01*
X101910000Y-61190000D02*
X101910000Y-61849000D01*
X101950000Y-58498000D02*
X101950000Y-59110000D01*
X101950000Y-61190000D02*
X101950000Y-61802000D01*
X101990000Y-58546000D02*
X101990000Y-61754000D01*
X102030000Y-58597000D02*
X102030000Y-61703000D01*
X102070000Y-58651000D02*
X102070000Y-61649000D01*
X102110000Y-58707000D02*
X102110000Y-61593000D01*
X102150000Y-58767000D02*
X102150000Y-61533000D01*
X102190000Y-58831000D02*
X102190000Y-61469000D01*
X102230000Y-58899000D02*
X102230000Y-61401000D01*
X102270000Y-58973000D02*
X102270000Y-61327000D01*
X102310000Y-59052000D02*
X102310000Y-61248000D01*
X102350000Y-59139000D02*
X102350000Y-61161000D01*
X102390000Y-59236000D02*
X102390000Y-61064000D01*
X102430000Y-59345000D02*
X102430000Y-60955000D01*
X102470000Y-59473000D02*
X102470000Y-60827000D01*
X102510000Y-59633000D02*
X102510000Y-60667000D01*
X102550000Y-59867000D02*
X102550000Y-60433000D01*
X102570000Y-60150000D02*
G75*
G02*
X97330000Y-60150000I-2620000J0D01*
G01*
X97330000Y-60150000D02*
G75*
G02*
X102570000Y-60150000I2620000J0D01*
G01*
%TO.C,C1*%
X107320000Y-76000000D02*
G75*
G02*
X102080000Y-76000000I-2620000J0D01*
G01*
X102080000Y-76000000D02*
G75*
G02*
X107320000Y-76000000I2620000J0D01*
G01*
%TO.C,R1*%
X111830000Y-73130000D02*
X118370000Y-73130000D01*
X111830000Y-73460000D02*
X111830000Y-73130000D01*
X111830000Y-75540000D02*
X111830000Y-75870000D01*
X111830000Y-75870000D02*
X118370000Y-75870000D01*
X118370000Y-73130000D02*
X118370000Y-73460000D01*
X118370000Y-75870000D02*
X118370000Y-75540000D01*
%TO.C,J4*%
X82930000Y-57480000D02*
X93370000Y-57480000D01*
X82930000Y-59800000D02*
X82930000Y-57480000D01*
X82930000Y-72720000D02*
X82930000Y-60400000D01*
X83550000Y-57480000D02*
X83550000Y-72720000D01*
X84650000Y-57480000D02*
X84650000Y-72720000D01*
X93370000Y-57480000D02*
X93370000Y-72720000D01*
X93370000Y-72720000D02*
X82930000Y-72720000D01*
X82930000Y-60100000D02*
X82320000Y-60540000D01*
X82320000Y-59660000D01*
X82930000Y-60100000D01*
G36*
X82930000Y-60100000D02*
G01*
X82320000Y-60540000D01*
X82320000Y-59660000D01*
X82930000Y-60100000D01*
G37*
%TD*%
%LPC*%
D15*
%TO.C,D1*%
X111320000Y-84600000D03*
D16*
X108780000Y-84600000D03*
%TD*%
D17*
%TO.C,SW1*%
X126150000Y-84800000D03*
D18*
X124150000Y-84800000D03*
X122150000Y-84800000D03*
X120150000Y-84800000D03*
X118150000Y-84800000D03*
X116150000Y-84800000D03*
%TD*%
D19*
%TO.C,R_LED_1*%
X104310000Y-84650000D03*
X96690000Y-84650000D03*
%TD*%
D20*
%TO.C,REF\u002A\u002A*%
X132625000Y-87600000D03*
%TD*%
D19*
%TO.C,R3*%
X123550000Y-67810000D03*
X123550000Y-60190000D03*
%TD*%
%TO.C,R4*%
X98100000Y-72810000D03*
X98100000Y-65190000D03*
%TD*%
D20*
%TO.C,REF\u002A\u002A*%
X106050000Y-70450000D03*
%TD*%
D19*
%TO.C,R2*%
X111300000Y-60140000D03*
X111300000Y-67760000D03*
%TD*%
D21*
%TO.C,J2*%
X126400000Y-73150000D03*
D22*
X126400000Y-75150000D03*
X126400000Y-77150000D03*
%TD*%
D23*
%TO.C,J1*%
X88450000Y-76250000D03*
D24*
X88450000Y-82550000D03*
D25*
X93250000Y-79150000D03*
%TD*%
D26*
%TO.C,C2*%
X98950000Y-60150000D03*
D19*
X100950000Y-60150000D03*
%TD*%
%TO.C,C1*%
X103700000Y-76000000D03*
X105700000Y-76000000D03*
%TD*%
D20*
%TO.C,REF\u002A\u002A*%
X132350000Y-59650000D03*
%TD*%
D19*
%TO.C,R1*%
X111290000Y-74500000D03*
X118910000Y-74500000D03*
%TD*%
D27*
%TO.C,J4*%
X88450000Y-60100000D03*
D28*
X88450000Y-65100000D03*
X88450000Y-70100000D03*
%TD*%
D20*
%TO.C,REF\u002A\u002A*%
X79500000Y-87600000D03*
%TD*%
%LPD*%
M02*
