%TF.GenerationSoftware,KiCad,Pcbnew,9.0.6-9.0.6~ubuntu24.04.1*%
%TF.CreationDate,2025-11-30T17:38:24+01:00*%
%TF.ProjectId,phone_mic_jst,70686f6e-655f-46d6-9963-5f6a73742e6b,rev?*%
%TF.SameCoordinates,Original*%
%TF.FileFunction,Drillmap*%
%TF.FilePolarity,Positive*%
%FSLAX45Y45*%
G04 Gerber Fmt 4.5, Leading zero omitted, Abs format (unit mm)*
G04 Created by KiCad (PCBNEW 9.0.6-9.0.6~ubuntu24.04.1) date 2025-11-30 17:38:24*
%MOMM*%
%LPD*%
G01*
G04 APERTURE LIST*
%ADD10C,0.050000*%
%ADD11C,0.200000*%
%ADD12C,0.100000*%
%ADD13C,0.120000*%
%ADD14C,0.220000*%
G04 APERTURE END LIST*
D10*
X7585000Y-5605000D02*
X13585000Y-5605000D01*
X13585000Y-9105000D01*
X7585000Y-9105000D01*
X7585000Y-5605000D01*
D11*
D12*
X11577500Y-8442500D02*
X11652500Y-8517500D01*
X11652500Y-8442500D02*
X11577500Y-8517500D01*
X11777500Y-8442500D02*
X11852500Y-8517500D01*
X11852500Y-8442500D02*
X11777500Y-8517500D01*
X11977500Y-8442500D02*
X12052500Y-8517500D01*
X12052500Y-8442500D02*
X11977500Y-8517500D01*
X12177500Y-8442500D02*
X12252500Y-8517500D01*
X12252500Y-8442500D02*
X12177500Y-8517500D01*
X12377500Y-8442500D02*
X12452500Y-8517500D01*
X12452500Y-8442500D02*
X12377500Y-8517500D01*
X12577500Y-8442500D02*
X12652500Y-8517500D01*
X12652500Y-8442500D02*
X12577500Y-8517500D01*
X12602500Y-7277500D02*
X12677500Y-7352500D01*
X12677500Y-7277500D02*
X12602500Y-7352500D01*
X12602500Y-7477500D02*
X12677500Y-7552500D01*
X12677500Y-7477500D02*
X12602500Y-7552500D01*
X12602500Y-7677500D02*
X12677500Y-7752500D01*
X12677500Y-7677500D02*
X12602500Y-7752500D01*
X9709000Y-8465000D02*
G75*
G02*
X9629000Y-8465000I-40000J0D01*
G01*
X9629000Y-8465000D02*
G75*
G02*
X9709000Y-8465000I40000J0D01*
G01*
X9850000Y-6519000D02*
G75*
G02*
X9770000Y-6519000I-40000J0D01*
G01*
X9770000Y-6519000D02*
G75*
G02*
X9850000Y-6519000I40000J0D01*
G01*
X9850000Y-7281000D02*
G75*
G02*
X9770000Y-7281000I-40000J0D01*
G01*
X9770000Y-7281000D02*
G75*
G02*
X9850000Y-7281000I40000J0D01*
G01*
X9935000Y-6015000D02*
G75*
G02*
X9855000Y-6015000I-40000J0D01*
G01*
X9855000Y-6015000D02*
G75*
G02*
X9935000Y-6015000I40000J0D01*
G01*
X10135000Y-6015000D02*
G75*
G02*
X10055000Y-6015000I-40000J0D01*
G01*
X10055000Y-6015000D02*
G75*
G02*
X10135000Y-6015000I40000J0D01*
G01*
X10410000Y-7600000D02*
G75*
G02*
X10330000Y-7600000I-40000J0D01*
G01*
X10330000Y-7600000D02*
G75*
G02*
X10410000Y-7600000I40000J0D01*
G01*
X10471000Y-8465000D02*
G75*
G02*
X10391000Y-8465000I-40000J0D01*
G01*
X10391000Y-8465000D02*
G75*
G02*
X10471000Y-8465000I40000J0D01*
G01*
X10610000Y-7600000D02*
G75*
G02*
X10530000Y-7600000I-40000J0D01*
G01*
X10530000Y-7600000D02*
G75*
G02*
X10610000Y-7600000I40000J0D01*
G01*
X11169000Y-7450000D02*
G75*
G02*
X11089000Y-7450000I-40000J0D01*
G01*
X11089000Y-7450000D02*
G75*
G02*
X11169000Y-7450000I40000J0D01*
G01*
X11170000Y-6014000D02*
G75*
G02*
X11090000Y-6014000I-40000J0D01*
G01*
X11090000Y-6014000D02*
G75*
G02*
X11170000Y-6014000I40000J0D01*
G01*
X11170000Y-6776000D02*
G75*
G02*
X11090000Y-6776000I-40000J0D01*
G01*
X11090000Y-6776000D02*
G75*
G02*
X11170000Y-6776000I40000J0D01*
G01*
X11931000Y-7450000D02*
G75*
G02*
X11851000Y-7450000I-40000J0D01*
G01*
X11851000Y-7450000D02*
G75*
G02*
X11931000Y-7450000I40000J0D01*
G01*
X12395000Y-6019000D02*
G75*
G02*
X12315000Y-6019000I-40000J0D01*
G01*
X12315000Y-6019000D02*
G75*
G02*
X12395000Y-6019000I40000J0D01*
G01*
X12395000Y-6781000D02*
G75*
G02*
X12315000Y-6781000I-40000J0D01*
G01*
X12315000Y-6781000D02*
G75*
G02*
X12395000Y-6781000I40000J0D01*
G01*
X10878000Y-8415000D02*
X10878000Y-8505000D01*
X10833000Y-8460000D02*
X10923000Y-8460000D01*
X11132000Y-8415000D02*
X11132000Y-8505000D01*
X11087000Y-8460000D02*
X11177000Y-8460000D01*
X8880356Y-7660356D02*
X8880356Y-7589644D01*
X8809644Y-7589644D01*
X8809644Y-7660356D01*
X8880356Y-7660356D01*
X8715000Y-7675000D02*
X8975000Y-7675000D01*
X8975000Y-7575000D02*
G75*
G02*
X8975000Y-7675000I0J-50000D01*
G01*
X8975000Y-7575000D02*
X8715000Y-7575000D01*
X8715000Y-7575000D02*
G75*
G03*
X8715000Y-7675000I0J-50000D01*
G01*
X8880356Y-8290356D02*
X8880356Y-8219644D01*
X8809644Y-8219644D01*
X8809644Y-8290356D01*
X8880356Y-8290356D01*
X8735000Y-8305000D02*
X8955000Y-8305000D01*
X8955000Y-8205000D02*
G75*
G02*
X8955000Y-8305000I0J-50000D01*
G01*
X8955000Y-8205000D02*
X8735000Y-8205000D01*
X8735000Y-8205000D02*
G75*
G03*
X8735000Y-8305000I0J-50000D01*
G01*
X9360356Y-7950356D02*
X9360356Y-7879644D01*
X9289644Y-7879644D01*
X9289644Y-7950356D01*
X9360356Y-7950356D01*
X9275000Y-7805000D02*
X9275000Y-8025000D01*
X9375000Y-8025000D02*
G75*
G02*
X9275000Y-8025000I-50000J0D01*
G01*
X9375000Y-8025000D02*
X9375000Y-7805000D01*
X9375000Y-7805000D02*
G75*
G03*
X9275000Y-7805000I-50000J0D01*
G01*
D13*
X8845000Y-6070000D02*
X8905000Y-6010000D01*
X8845000Y-5950000D01*
X8785000Y-6010000D01*
X8845000Y-6070000D01*
X8845000Y-6570000D02*
X8905000Y-6510000D01*
X8845000Y-6450000D01*
X8785000Y-6510000D01*
X8845000Y-6570000D01*
X8845000Y-7070000D02*
X8905000Y-7010000D01*
X8845000Y-6950000D01*
X8785000Y-7010000D01*
X8845000Y-7070000D01*
D14*
X7840000Y-8650000D02*
X8060000Y-8870000D01*
X8060000Y-8650000D02*
X7840000Y-8870000D01*
X8060000Y-8760000D02*
G75*
G02*
X7840000Y-8760000I-110000J0D01*
G01*
X7840000Y-8760000D02*
G75*
G02*
X8060000Y-8760000I110000J0D01*
G01*
X10495000Y-6935000D02*
X10715000Y-7155000D01*
X10715000Y-6935000D02*
X10495000Y-7155000D01*
X10715000Y-7045000D02*
G75*
G02*
X10495000Y-7045000I-110000J0D01*
G01*
X10495000Y-7045000D02*
G75*
G02*
X10715000Y-7045000I110000J0D01*
G01*
X13125000Y-5855000D02*
X13345000Y-6075000D01*
X13345000Y-5855000D02*
X13125000Y-6075000D01*
X13345000Y-5965000D02*
G75*
G02*
X13125000Y-5965000I-110000J0D01*
G01*
X13125000Y-5965000D02*
G75*
G02*
X13345000Y-5965000I110000J0D01*
G01*
X13152500Y-8650000D02*
X13372500Y-8870000D01*
X13372500Y-8650000D02*
X13152500Y-8870000D01*
X13372500Y-8760000D02*
G75*
G02*
X13152500Y-8760000I-110000J0D01*
G01*
X13152500Y-8760000D02*
G75*
G02*
X13372500Y-8760000I110000J0D01*
G01*
D11*
X7843277Y-9418984D02*
X7843277Y-9218984D01*
X7843277Y-9218984D02*
X7890896Y-9218984D01*
X7890896Y-9218984D02*
X7919467Y-9228508D01*
X7919467Y-9228508D02*
X7938515Y-9247555D01*
X7938515Y-9247555D02*
X7948039Y-9266603D01*
X7948039Y-9266603D02*
X7957562Y-9304698D01*
X7957562Y-9304698D02*
X7957562Y-9333270D01*
X7957562Y-9333270D02*
X7948039Y-9371365D01*
X7948039Y-9371365D02*
X7938515Y-9390412D01*
X7938515Y-9390412D02*
X7919467Y-9409460D01*
X7919467Y-9409460D02*
X7890896Y-9418984D01*
X7890896Y-9418984D02*
X7843277Y-9418984D01*
X8043277Y-9418984D02*
X8043277Y-9285650D01*
X8043277Y-9323746D02*
X8052801Y-9304698D01*
X8052801Y-9304698D02*
X8062324Y-9295174D01*
X8062324Y-9295174D02*
X8081372Y-9285650D01*
X8081372Y-9285650D02*
X8100420Y-9285650D01*
X8167086Y-9418984D02*
X8167086Y-9285650D01*
X8167086Y-9218984D02*
X8157562Y-9228508D01*
X8157562Y-9228508D02*
X8167086Y-9238031D01*
X8167086Y-9238031D02*
X8176610Y-9228508D01*
X8176610Y-9228508D02*
X8167086Y-9218984D01*
X8167086Y-9218984D02*
X8167086Y-9238031D01*
X8290896Y-9418984D02*
X8271848Y-9409460D01*
X8271848Y-9409460D02*
X8262324Y-9390412D01*
X8262324Y-9390412D02*
X8262324Y-9218984D01*
X8395658Y-9418984D02*
X8376610Y-9409460D01*
X8376610Y-9409460D02*
X8367086Y-9390412D01*
X8367086Y-9390412D02*
X8367086Y-9218984D01*
X8624229Y-9418984D02*
X8624229Y-9218984D01*
X8624229Y-9218984D02*
X8690896Y-9361841D01*
X8690896Y-9361841D02*
X8757563Y-9218984D01*
X8757563Y-9218984D02*
X8757563Y-9418984D01*
X8938515Y-9418984D02*
X8938515Y-9314222D01*
X8938515Y-9314222D02*
X8928991Y-9295174D01*
X8928991Y-9295174D02*
X8909944Y-9285650D01*
X8909944Y-9285650D02*
X8871848Y-9285650D01*
X8871848Y-9285650D02*
X8852801Y-9295174D01*
X8938515Y-9409460D02*
X8919467Y-9418984D01*
X8919467Y-9418984D02*
X8871848Y-9418984D01*
X8871848Y-9418984D02*
X8852801Y-9409460D01*
X8852801Y-9409460D02*
X8843277Y-9390412D01*
X8843277Y-9390412D02*
X8843277Y-9371365D01*
X8843277Y-9371365D02*
X8852801Y-9352317D01*
X8852801Y-9352317D02*
X8871848Y-9342793D01*
X8871848Y-9342793D02*
X8919467Y-9342793D01*
X8919467Y-9342793D02*
X8938515Y-9333270D01*
X9033753Y-9285650D02*
X9033753Y-9485650D01*
X9033753Y-9295174D02*
X9052801Y-9285650D01*
X9052801Y-9285650D02*
X9090896Y-9285650D01*
X9090896Y-9285650D02*
X9109944Y-9295174D01*
X9109944Y-9295174D02*
X9119467Y-9304698D01*
X9119467Y-9304698D02*
X9128991Y-9323746D01*
X9128991Y-9323746D02*
X9128991Y-9380889D01*
X9128991Y-9380889D02*
X9119467Y-9399936D01*
X9119467Y-9399936D02*
X9109944Y-9409460D01*
X9109944Y-9409460D02*
X9090896Y-9418984D01*
X9090896Y-9418984D02*
X9052801Y-9418984D01*
X9052801Y-9418984D02*
X9033753Y-9409460D01*
X9214705Y-9399936D02*
X9224229Y-9409460D01*
X9224229Y-9409460D02*
X9214705Y-9418984D01*
X9214705Y-9418984D02*
X9205182Y-9409460D01*
X9205182Y-9409460D02*
X9214705Y-9399936D01*
X9214705Y-9399936D02*
X9214705Y-9418984D01*
X9214705Y-9295174D02*
X9224229Y-9304698D01*
X9224229Y-9304698D02*
X9214705Y-9314222D01*
X9214705Y-9314222D02*
X9205182Y-9304698D01*
X9205182Y-9304698D02*
X9214705Y-9295174D01*
X9214705Y-9295174D02*
X9214705Y-9314222D01*
D12*
X7507500Y-9710000D02*
X7582500Y-9785000D01*
X7582500Y-9710000D02*
X7507500Y-9785000D01*
D11*
X7881372Y-9638984D02*
X7900420Y-9638984D01*
X7900420Y-9638984D02*
X7919467Y-9648508D01*
X7919467Y-9648508D02*
X7928991Y-9658031D01*
X7928991Y-9658031D02*
X7938515Y-9677079D01*
X7938515Y-9677079D02*
X7948039Y-9715174D01*
X7948039Y-9715174D02*
X7948039Y-9762793D01*
X7948039Y-9762793D02*
X7938515Y-9800889D01*
X7938515Y-9800889D02*
X7928991Y-9819936D01*
X7928991Y-9819936D02*
X7919467Y-9829460D01*
X7919467Y-9829460D02*
X7900420Y-9838984D01*
X7900420Y-9838984D02*
X7881372Y-9838984D01*
X7881372Y-9838984D02*
X7862324Y-9829460D01*
X7862324Y-9829460D02*
X7852801Y-9819936D01*
X7852801Y-9819936D02*
X7843277Y-9800889D01*
X7843277Y-9800889D02*
X7833753Y-9762793D01*
X7833753Y-9762793D02*
X7833753Y-9715174D01*
X7833753Y-9715174D02*
X7843277Y-9677079D01*
X7843277Y-9677079D02*
X7852801Y-9658031D01*
X7852801Y-9658031D02*
X7862324Y-9648508D01*
X7862324Y-9648508D02*
X7881372Y-9638984D01*
X8033753Y-9819936D02*
X8043277Y-9829460D01*
X8043277Y-9829460D02*
X8033753Y-9838984D01*
X8033753Y-9838984D02*
X8024229Y-9829460D01*
X8024229Y-9829460D02*
X8033753Y-9819936D01*
X8033753Y-9819936D02*
X8033753Y-9838984D01*
X8109943Y-9638984D02*
X8243277Y-9638984D01*
X8243277Y-9638984D02*
X8157562Y-9838984D01*
X8414705Y-9638984D02*
X8319467Y-9638984D01*
X8319467Y-9638984D02*
X8309943Y-9734222D01*
X8309943Y-9734222D02*
X8319467Y-9724698D01*
X8319467Y-9724698D02*
X8338515Y-9715174D01*
X8338515Y-9715174D02*
X8386134Y-9715174D01*
X8386134Y-9715174D02*
X8405182Y-9724698D01*
X8405182Y-9724698D02*
X8414705Y-9734222D01*
X8414705Y-9734222D02*
X8424229Y-9753270D01*
X8424229Y-9753270D02*
X8424229Y-9800889D01*
X8424229Y-9800889D02*
X8414705Y-9819936D01*
X8414705Y-9819936D02*
X8405182Y-9829460D01*
X8405182Y-9829460D02*
X8386134Y-9838984D01*
X8386134Y-9838984D02*
X8338515Y-9838984D01*
X8338515Y-9838984D02*
X8319467Y-9829460D01*
X8319467Y-9829460D02*
X8309943Y-9819936D01*
X8548039Y-9638984D02*
X8567086Y-9638984D01*
X8567086Y-9638984D02*
X8586134Y-9648508D01*
X8586134Y-9648508D02*
X8595658Y-9658031D01*
X8595658Y-9658031D02*
X8605182Y-9677079D01*
X8605182Y-9677079D02*
X8614705Y-9715174D01*
X8614705Y-9715174D02*
X8614705Y-9762793D01*
X8614705Y-9762793D02*
X8605182Y-9800889D01*
X8605182Y-9800889D02*
X8595658Y-9819936D01*
X8595658Y-9819936D02*
X8586134Y-9829460D01*
X8586134Y-9829460D02*
X8567086Y-9838984D01*
X8567086Y-9838984D02*
X8548039Y-9838984D01*
X8548039Y-9838984D02*
X8528991Y-9829460D01*
X8528991Y-9829460D02*
X8519467Y-9819936D01*
X8519467Y-9819936D02*
X8509944Y-9800889D01*
X8509944Y-9800889D02*
X8500420Y-9762793D01*
X8500420Y-9762793D02*
X8500420Y-9715174D01*
X8500420Y-9715174D02*
X8509944Y-9677079D01*
X8509944Y-9677079D02*
X8519467Y-9658031D01*
X8519467Y-9658031D02*
X8528991Y-9648508D01*
X8528991Y-9648508D02*
X8548039Y-9638984D01*
X8700420Y-9838984D02*
X8700420Y-9705650D01*
X8700420Y-9724698D02*
X8709944Y-9715174D01*
X8709944Y-9715174D02*
X8728991Y-9705650D01*
X8728991Y-9705650D02*
X8757563Y-9705650D01*
X8757563Y-9705650D02*
X8776610Y-9715174D01*
X8776610Y-9715174D02*
X8786134Y-9734222D01*
X8786134Y-9734222D02*
X8786134Y-9838984D01*
X8786134Y-9734222D02*
X8795658Y-9715174D01*
X8795658Y-9715174D02*
X8814705Y-9705650D01*
X8814705Y-9705650D02*
X8843277Y-9705650D01*
X8843277Y-9705650D02*
X8862325Y-9715174D01*
X8862325Y-9715174D02*
X8871848Y-9734222D01*
X8871848Y-9734222D02*
X8871848Y-9838984D01*
X8967086Y-9838984D02*
X8967086Y-9705650D01*
X8967086Y-9724698D02*
X8976610Y-9715174D01*
X8976610Y-9715174D02*
X8995658Y-9705650D01*
X8995658Y-9705650D02*
X9024229Y-9705650D01*
X9024229Y-9705650D02*
X9043277Y-9715174D01*
X9043277Y-9715174D02*
X9052801Y-9734222D01*
X9052801Y-9734222D02*
X9052801Y-9838984D01*
X9052801Y-9734222D02*
X9062325Y-9715174D01*
X9062325Y-9715174D02*
X9081372Y-9705650D01*
X9081372Y-9705650D02*
X9109944Y-9705650D01*
X9109944Y-9705650D02*
X9128991Y-9715174D01*
X9128991Y-9715174D02*
X9138515Y-9734222D01*
X9138515Y-9734222D02*
X9138515Y-9838984D01*
X9528991Y-9629460D02*
X9357563Y-9886603D01*
X9786134Y-9638984D02*
X9805182Y-9638984D01*
X9805182Y-9638984D02*
X9824229Y-9648508D01*
X9824229Y-9648508D02*
X9833753Y-9658031D01*
X9833753Y-9658031D02*
X9843277Y-9677079D01*
X9843277Y-9677079D02*
X9852801Y-9715174D01*
X9852801Y-9715174D02*
X9852801Y-9762793D01*
X9852801Y-9762793D02*
X9843277Y-9800889D01*
X9843277Y-9800889D02*
X9833753Y-9819936D01*
X9833753Y-9819936D02*
X9824229Y-9829460D01*
X9824229Y-9829460D02*
X9805182Y-9838984D01*
X9805182Y-9838984D02*
X9786134Y-9838984D01*
X9786134Y-9838984D02*
X9767087Y-9829460D01*
X9767087Y-9829460D02*
X9757563Y-9819936D01*
X9757563Y-9819936D02*
X9748039Y-9800889D01*
X9748039Y-9800889D02*
X9738515Y-9762793D01*
X9738515Y-9762793D02*
X9738515Y-9715174D01*
X9738515Y-9715174D02*
X9748039Y-9677079D01*
X9748039Y-9677079D02*
X9757563Y-9658031D01*
X9757563Y-9658031D02*
X9767087Y-9648508D01*
X9767087Y-9648508D02*
X9786134Y-9638984D01*
X9938515Y-9819936D02*
X9948039Y-9829460D01*
X9948039Y-9829460D02*
X9938515Y-9838984D01*
X9938515Y-9838984D02*
X9928991Y-9829460D01*
X9928991Y-9829460D02*
X9938515Y-9819936D01*
X9938515Y-9819936D02*
X9938515Y-9838984D01*
X10071848Y-9638984D02*
X10090896Y-9638984D01*
X10090896Y-9638984D02*
X10109944Y-9648508D01*
X10109944Y-9648508D02*
X10119468Y-9658031D01*
X10119468Y-9658031D02*
X10128991Y-9677079D01*
X10128991Y-9677079D02*
X10138515Y-9715174D01*
X10138515Y-9715174D02*
X10138515Y-9762793D01*
X10138515Y-9762793D02*
X10128991Y-9800889D01*
X10128991Y-9800889D02*
X10119468Y-9819936D01*
X10119468Y-9819936D02*
X10109944Y-9829460D01*
X10109944Y-9829460D02*
X10090896Y-9838984D01*
X10090896Y-9838984D02*
X10071848Y-9838984D01*
X10071848Y-9838984D02*
X10052801Y-9829460D01*
X10052801Y-9829460D02*
X10043277Y-9819936D01*
X10043277Y-9819936D02*
X10033753Y-9800889D01*
X10033753Y-9800889D02*
X10024229Y-9762793D01*
X10024229Y-9762793D02*
X10024229Y-9715174D01*
X10024229Y-9715174D02*
X10033753Y-9677079D01*
X10033753Y-9677079D02*
X10043277Y-9658031D01*
X10043277Y-9658031D02*
X10052801Y-9648508D01*
X10052801Y-9648508D02*
X10071848Y-9638984D01*
X10214706Y-9658031D02*
X10224229Y-9648508D01*
X10224229Y-9648508D02*
X10243277Y-9638984D01*
X10243277Y-9638984D02*
X10290896Y-9638984D01*
X10290896Y-9638984D02*
X10309944Y-9648508D01*
X10309944Y-9648508D02*
X10319468Y-9658031D01*
X10319468Y-9658031D02*
X10328991Y-9677079D01*
X10328991Y-9677079D02*
X10328991Y-9696127D01*
X10328991Y-9696127D02*
X10319468Y-9724698D01*
X10319468Y-9724698D02*
X10205182Y-9838984D01*
X10205182Y-9838984D02*
X10328991Y-9838984D01*
X10424229Y-9838984D02*
X10462325Y-9838984D01*
X10462325Y-9838984D02*
X10481372Y-9829460D01*
X10481372Y-9829460D02*
X10490896Y-9819936D01*
X10490896Y-9819936D02*
X10509944Y-9791365D01*
X10509944Y-9791365D02*
X10519468Y-9753270D01*
X10519468Y-9753270D02*
X10519468Y-9677079D01*
X10519468Y-9677079D02*
X10509944Y-9658031D01*
X10509944Y-9658031D02*
X10500420Y-9648508D01*
X10500420Y-9648508D02*
X10481372Y-9638984D01*
X10481372Y-9638984D02*
X10443277Y-9638984D01*
X10443277Y-9638984D02*
X10424229Y-9648508D01*
X10424229Y-9648508D02*
X10414706Y-9658031D01*
X10414706Y-9658031D02*
X10405182Y-9677079D01*
X10405182Y-9677079D02*
X10405182Y-9724698D01*
X10405182Y-9724698D02*
X10414706Y-9743746D01*
X10414706Y-9743746D02*
X10424229Y-9753270D01*
X10424229Y-9753270D02*
X10443277Y-9762793D01*
X10443277Y-9762793D02*
X10481372Y-9762793D01*
X10481372Y-9762793D02*
X10500420Y-9753270D01*
X10500420Y-9753270D02*
X10509944Y-9743746D01*
X10509944Y-9743746D02*
X10519468Y-9724698D01*
X10700420Y-9638984D02*
X10605182Y-9638984D01*
X10605182Y-9638984D02*
X10595658Y-9734222D01*
X10595658Y-9734222D02*
X10605182Y-9724698D01*
X10605182Y-9724698D02*
X10624229Y-9715174D01*
X10624229Y-9715174D02*
X10671849Y-9715174D01*
X10671849Y-9715174D02*
X10690896Y-9724698D01*
X10690896Y-9724698D02*
X10700420Y-9734222D01*
X10700420Y-9734222D02*
X10709944Y-9753270D01*
X10709944Y-9753270D02*
X10709944Y-9800889D01*
X10709944Y-9800889D02*
X10700420Y-9819936D01*
X10700420Y-9819936D02*
X10690896Y-9829460D01*
X10690896Y-9829460D02*
X10671849Y-9838984D01*
X10671849Y-9838984D02*
X10624229Y-9838984D01*
X10624229Y-9838984D02*
X10605182Y-9829460D01*
X10605182Y-9829460D02*
X10595658Y-9819936D01*
X10786134Y-9638984D02*
X10786134Y-9677079D01*
X10862325Y-9638984D02*
X10862325Y-9677079D01*
X11157563Y-9915174D02*
X11148039Y-9905650D01*
X11148039Y-9905650D02*
X11128991Y-9877079D01*
X11128991Y-9877079D02*
X11119468Y-9858031D01*
X11119468Y-9858031D02*
X11109944Y-9829460D01*
X11109944Y-9829460D02*
X11100420Y-9781841D01*
X11100420Y-9781841D02*
X11100420Y-9743746D01*
X11100420Y-9743746D02*
X11109944Y-9696127D01*
X11109944Y-9696127D02*
X11119468Y-9667555D01*
X11119468Y-9667555D02*
X11128991Y-9648508D01*
X11128991Y-9648508D02*
X11148039Y-9619936D01*
X11148039Y-9619936D02*
X11157563Y-9610412D01*
X11243277Y-9838984D02*
X11281372Y-9838984D01*
X11281372Y-9838984D02*
X11300420Y-9829460D01*
X11300420Y-9829460D02*
X11309944Y-9819936D01*
X11309944Y-9819936D02*
X11328991Y-9791365D01*
X11328991Y-9791365D02*
X11338515Y-9753270D01*
X11338515Y-9753270D02*
X11338515Y-9677079D01*
X11338515Y-9677079D02*
X11328991Y-9658031D01*
X11328991Y-9658031D02*
X11319468Y-9648508D01*
X11319468Y-9648508D02*
X11300420Y-9638984D01*
X11300420Y-9638984D02*
X11262325Y-9638984D01*
X11262325Y-9638984D02*
X11243277Y-9648508D01*
X11243277Y-9648508D02*
X11233753Y-9658031D01*
X11233753Y-9658031D02*
X11224229Y-9677079D01*
X11224229Y-9677079D02*
X11224229Y-9724698D01*
X11224229Y-9724698D02*
X11233753Y-9743746D01*
X11233753Y-9743746D02*
X11243277Y-9753270D01*
X11243277Y-9753270D02*
X11262325Y-9762793D01*
X11262325Y-9762793D02*
X11300420Y-9762793D01*
X11300420Y-9762793D02*
X11319468Y-9753270D01*
X11319468Y-9753270D02*
X11328991Y-9743746D01*
X11328991Y-9743746D02*
X11338515Y-9724698D01*
X11576610Y-9838984D02*
X11576610Y-9638984D01*
X11662325Y-9838984D02*
X11662325Y-9734222D01*
X11662325Y-9734222D02*
X11652801Y-9715174D01*
X11652801Y-9715174D02*
X11633753Y-9705650D01*
X11633753Y-9705650D02*
X11605182Y-9705650D01*
X11605182Y-9705650D02*
X11586134Y-9715174D01*
X11586134Y-9715174D02*
X11576610Y-9724698D01*
X11786134Y-9838984D02*
X11767087Y-9829460D01*
X11767087Y-9829460D02*
X11757563Y-9819936D01*
X11757563Y-9819936D02*
X11748039Y-9800889D01*
X11748039Y-9800889D02*
X11748039Y-9743746D01*
X11748039Y-9743746D02*
X11757563Y-9724698D01*
X11757563Y-9724698D02*
X11767087Y-9715174D01*
X11767087Y-9715174D02*
X11786134Y-9705650D01*
X11786134Y-9705650D02*
X11814706Y-9705650D01*
X11814706Y-9705650D02*
X11833753Y-9715174D01*
X11833753Y-9715174D02*
X11843277Y-9724698D01*
X11843277Y-9724698D02*
X11852801Y-9743746D01*
X11852801Y-9743746D02*
X11852801Y-9800889D01*
X11852801Y-9800889D02*
X11843277Y-9819936D01*
X11843277Y-9819936D02*
X11833753Y-9829460D01*
X11833753Y-9829460D02*
X11814706Y-9838984D01*
X11814706Y-9838984D02*
X11786134Y-9838984D01*
X11967087Y-9838984D02*
X11948039Y-9829460D01*
X11948039Y-9829460D02*
X11938515Y-9810412D01*
X11938515Y-9810412D02*
X11938515Y-9638984D01*
X12119468Y-9829460D02*
X12100420Y-9838984D01*
X12100420Y-9838984D02*
X12062325Y-9838984D01*
X12062325Y-9838984D02*
X12043277Y-9829460D01*
X12043277Y-9829460D02*
X12033753Y-9810412D01*
X12033753Y-9810412D02*
X12033753Y-9734222D01*
X12033753Y-9734222D02*
X12043277Y-9715174D01*
X12043277Y-9715174D02*
X12062325Y-9705650D01*
X12062325Y-9705650D02*
X12100420Y-9705650D01*
X12100420Y-9705650D02*
X12119468Y-9715174D01*
X12119468Y-9715174D02*
X12128991Y-9734222D01*
X12128991Y-9734222D02*
X12128991Y-9753270D01*
X12128991Y-9753270D02*
X12033753Y-9772317D01*
X12205182Y-9829460D02*
X12224230Y-9838984D01*
X12224230Y-9838984D02*
X12262325Y-9838984D01*
X12262325Y-9838984D02*
X12281372Y-9829460D01*
X12281372Y-9829460D02*
X12290896Y-9810412D01*
X12290896Y-9810412D02*
X12290896Y-9800889D01*
X12290896Y-9800889D02*
X12281372Y-9781841D01*
X12281372Y-9781841D02*
X12262325Y-9772317D01*
X12262325Y-9772317D02*
X12233753Y-9772317D01*
X12233753Y-9772317D02*
X12214706Y-9762793D01*
X12214706Y-9762793D02*
X12205182Y-9743746D01*
X12205182Y-9743746D02*
X12205182Y-9734222D01*
X12205182Y-9734222D02*
X12214706Y-9715174D01*
X12214706Y-9715174D02*
X12233753Y-9705650D01*
X12233753Y-9705650D02*
X12262325Y-9705650D01*
X12262325Y-9705650D02*
X12281372Y-9715174D01*
X12357563Y-9915174D02*
X12367087Y-9905650D01*
X12367087Y-9905650D02*
X12386134Y-9877079D01*
X12386134Y-9877079D02*
X12395658Y-9858031D01*
X12395658Y-9858031D02*
X12405182Y-9829460D01*
X12405182Y-9829460D02*
X12414706Y-9781841D01*
X12414706Y-9781841D02*
X12414706Y-9743746D01*
X12414706Y-9743746D02*
X12405182Y-9696127D01*
X12405182Y-9696127D02*
X12395658Y-9667555D01*
X12395658Y-9667555D02*
X12386134Y-9648508D01*
X12386134Y-9648508D02*
X12367087Y-9619936D01*
X12367087Y-9619936D02*
X12357563Y-9610412D01*
D12*
X7582500Y-10011500D02*
G75*
G02*
X7502500Y-10011500I-40000J0D01*
G01*
X7502500Y-10011500D02*
G75*
G02*
X7582500Y-10011500I40000J0D01*
G01*
D11*
X7881372Y-9902984D02*
X7900420Y-9902984D01*
X7900420Y-9902984D02*
X7919467Y-9912508D01*
X7919467Y-9912508D02*
X7928991Y-9922031D01*
X7928991Y-9922031D02*
X7938515Y-9941079D01*
X7938515Y-9941079D02*
X7948039Y-9979174D01*
X7948039Y-9979174D02*
X7948039Y-10026793D01*
X7948039Y-10026793D02*
X7938515Y-10064889D01*
X7938515Y-10064889D02*
X7928991Y-10083936D01*
X7928991Y-10083936D02*
X7919467Y-10093460D01*
X7919467Y-10093460D02*
X7900420Y-10102984D01*
X7900420Y-10102984D02*
X7881372Y-10102984D01*
X7881372Y-10102984D02*
X7862324Y-10093460D01*
X7862324Y-10093460D02*
X7852801Y-10083936D01*
X7852801Y-10083936D02*
X7843277Y-10064889D01*
X7843277Y-10064889D02*
X7833753Y-10026793D01*
X7833753Y-10026793D02*
X7833753Y-9979174D01*
X7833753Y-9979174D02*
X7843277Y-9941079D01*
X7843277Y-9941079D02*
X7852801Y-9922031D01*
X7852801Y-9922031D02*
X7862324Y-9912508D01*
X7862324Y-9912508D02*
X7881372Y-9902984D01*
X8033753Y-10083936D02*
X8043277Y-10093460D01*
X8043277Y-10093460D02*
X8033753Y-10102984D01*
X8033753Y-10102984D02*
X8024229Y-10093460D01*
X8024229Y-10093460D02*
X8033753Y-10083936D01*
X8033753Y-10083936D02*
X8033753Y-10102984D01*
X8157562Y-9988698D02*
X8138515Y-9979174D01*
X8138515Y-9979174D02*
X8128991Y-9969650D01*
X8128991Y-9969650D02*
X8119467Y-9950603D01*
X8119467Y-9950603D02*
X8119467Y-9941079D01*
X8119467Y-9941079D02*
X8128991Y-9922031D01*
X8128991Y-9922031D02*
X8138515Y-9912508D01*
X8138515Y-9912508D02*
X8157562Y-9902984D01*
X8157562Y-9902984D02*
X8195658Y-9902984D01*
X8195658Y-9902984D02*
X8214705Y-9912508D01*
X8214705Y-9912508D02*
X8224229Y-9922031D01*
X8224229Y-9922031D02*
X8233753Y-9941079D01*
X8233753Y-9941079D02*
X8233753Y-9950603D01*
X8233753Y-9950603D02*
X8224229Y-9969650D01*
X8224229Y-9969650D02*
X8214705Y-9979174D01*
X8214705Y-9979174D02*
X8195658Y-9988698D01*
X8195658Y-9988698D02*
X8157562Y-9988698D01*
X8157562Y-9988698D02*
X8138515Y-9998222D01*
X8138515Y-9998222D02*
X8128991Y-10007746D01*
X8128991Y-10007746D02*
X8119467Y-10026793D01*
X8119467Y-10026793D02*
X8119467Y-10064889D01*
X8119467Y-10064889D02*
X8128991Y-10083936D01*
X8128991Y-10083936D02*
X8138515Y-10093460D01*
X8138515Y-10093460D02*
X8157562Y-10102984D01*
X8157562Y-10102984D02*
X8195658Y-10102984D01*
X8195658Y-10102984D02*
X8214705Y-10093460D01*
X8214705Y-10093460D02*
X8224229Y-10083936D01*
X8224229Y-10083936D02*
X8233753Y-10064889D01*
X8233753Y-10064889D02*
X8233753Y-10026793D01*
X8233753Y-10026793D02*
X8224229Y-10007746D01*
X8224229Y-10007746D02*
X8214705Y-9998222D01*
X8214705Y-9998222D02*
X8195658Y-9988698D01*
X8357562Y-9902984D02*
X8376610Y-9902984D01*
X8376610Y-9902984D02*
X8395658Y-9912508D01*
X8395658Y-9912508D02*
X8405182Y-9922031D01*
X8405182Y-9922031D02*
X8414705Y-9941079D01*
X8414705Y-9941079D02*
X8424229Y-9979174D01*
X8424229Y-9979174D02*
X8424229Y-10026793D01*
X8424229Y-10026793D02*
X8414705Y-10064889D01*
X8414705Y-10064889D02*
X8405182Y-10083936D01*
X8405182Y-10083936D02*
X8395658Y-10093460D01*
X8395658Y-10093460D02*
X8376610Y-10102984D01*
X8376610Y-10102984D02*
X8357562Y-10102984D01*
X8357562Y-10102984D02*
X8338515Y-10093460D01*
X8338515Y-10093460D02*
X8328991Y-10083936D01*
X8328991Y-10083936D02*
X8319467Y-10064889D01*
X8319467Y-10064889D02*
X8309943Y-10026793D01*
X8309943Y-10026793D02*
X8309943Y-9979174D01*
X8309943Y-9979174D02*
X8319467Y-9941079D01*
X8319467Y-9941079D02*
X8328991Y-9922031D01*
X8328991Y-9922031D02*
X8338515Y-9912508D01*
X8338515Y-9912508D02*
X8357562Y-9902984D01*
X8548039Y-9902984D02*
X8567086Y-9902984D01*
X8567086Y-9902984D02*
X8586134Y-9912508D01*
X8586134Y-9912508D02*
X8595658Y-9922031D01*
X8595658Y-9922031D02*
X8605182Y-9941079D01*
X8605182Y-9941079D02*
X8614705Y-9979174D01*
X8614705Y-9979174D02*
X8614705Y-10026793D01*
X8614705Y-10026793D02*
X8605182Y-10064889D01*
X8605182Y-10064889D02*
X8595658Y-10083936D01*
X8595658Y-10083936D02*
X8586134Y-10093460D01*
X8586134Y-10093460D02*
X8567086Y-10102984D01*
X8567086Y-10102984D02*
X8548039Y-10102984D01*
X8548039Y-10102984D02*
X8528991Y-10093460D01*
X8528991Y-10093460D02*
X8519467Y-10083936D01*
X8519467Y-10083936D02*
X8509944Y-10064889D01*
X8509944Y-10064889D02*
X8500420Y-10026793D01*
X8500420Y-10026793D02*
X8500420Y-9979174D01*
X8500420Y-9979174D02*
X8509944Y-9941079D01*
X8509944Y-9941079D02*
X8519467Y-9922031D01*
X8519467Y-9922031D02*
X8528991Y-9912508D01*
X8528991Y-9912508D02*
X8548039Y-9902984D01*
X8700420Y-10102984D02*
X8700420Y-9969650D01*
X8700420Y-9988698D02*
X8709944Y-9979174D01*
X8709944Y-9979174D02*
X8728991Y-9969650D01*
X8728991Y-9969650D02*
X8757563Y-9969650D01*
X8757563Y-9969650D02*
X8776610Y-9979174D01*
X8776610Y-9979174D02*
X8786134Y-9998222D01*
X8786134Y-9998222D02*
X8786134Y-10102984D01*
X8786134Y-9998222D02*
X8795658Y-9979174D01*
X8795658Y-9979174D02*
X8814705Y-9969650D01*
X8814705Y-9969650D02*
X8843277Y-9969650D01*
X8843277Y-9969650D02*
X8862325Y-9979174D01*
X8862325Y-9979174D02*
X8871848Y-9998222D01*
X8871848Y-9998222D02*
X8871848Y-10102984D01*
X8967086Y-10102984D02*
X8967086Y-9969650D01*
X8967086Y-9988698D02*
X8976610Y-9979174D01*
X8976610Y-9979174D02*
X8995658Y-9969650D01*
X8995658Y-9969650D02*
X9024229Y-9969650D01*
X9024229Y-9969650D02*
X9043277Y-9979174D01*
X9043277Y-9979174D02*
X9052801Y-9998222D01*
X9052801Y-9998222D02*
X9052801Y-10102984D01*
X9052801Y-9998222D02*
X9062325Y-9979174D01*
X9062325Y-9979174D02*
X9081372Y-9969650D01*
X9081372Y-9969650D02*
X9109944Y-9969650D01*
X9109944Y-9969650D02*
X9128991Y-9979174D01*
X9128991Y-9979174D02*
X9138515Y-9998222D01*
X9138515Y-9998222D02*
X9138515Y-10102984D01*
X9528991Y-9893460D02*
X9357563Y-10150603D01*
X9786134Y-9902984D02*
X9805182Y-9902984D01*
X9805182Y-9902984D02*
X9824229Y-9912508D01*
X9824229Y-9912508D02*
X9833753Y-9922031D01*
X9833753Y-9922031D02*
X9843277Y-9941079D01*
X9843277Y-9941079D02*
X9852801Y-9979174D01*
X9852801Y-9979174D02*
X9852801Y-10026793D01*
X9852801Y-10026793D02*
X9843277Y-10064889D01*
X9843277Y-10064889D02*
X9833753Y-10083936D01*
X9833753Y-10083936D02*
X9824229Y-10093460D01*
X9824229Y-10093460D02*
X9805182Y-10102984D01*
X9805182Y-10102984D02*
X9786134Y-10102984D01*
X9786134Y-10102984D02*
X9767087Y-10093460D01*
X9767087Y-10093460D02*
X9757563Y-10083936D01*
X9757563Y-10083936D02*
X9748039Y-10064889D01*
X9748039Y-10064889D02*
X9738515Y-10026793D01*
X9738515Y-10026793D02*
X9738515Y-9979174D01*
X9738515Y-9979174D02*
X9748039Y-9941079D01*
X9748039Y-9941079D02*
X9757563Y-9922031D01*
X9757563Y-9922031D02*
X9767087Y-9912508D01*
X9767087Y-9912508D02*
X9786134Y-9902984D01*
X9938515Y-10083936D02*
X9948039Y-10093460D01*
X9948039Y-10093460D02*
X9938515Y-10102984D01*
X9938515Y-10102984D02*
X9928991Y-10093460D01*
X9928991Y-10093460D02*
X9938515Y-10083936D01*
X9938515Y-10083936D02*
X9938515Y-10102984D01*
X10071848Y-9902984D02*
X10090896Y-9902984D01*
X10090896Y-9902984D02*
X10109944Y-9912508D01*
X10109944Y-9912508D02*
X10119468Y-9922031D01*
X10119468Y-9922031D02*
X10128991Y-9941079D01*
X10128991Y-9941079D02*
X10138515Y-9979174D01*
X10138515Y-9979174D02*
X10138515Y-10026793D01*
X10138515Y-10026793D02*
X10128991Y-10064889D01*
X10128991Y-10064889D02*
X10119468Y-10083936D01*
X10119468Y-10083936D02*
X10109944Y-10093460D01*
X10109944Y-10093460D02*
X10090896Y-10102984D01*
X10090896Y-10102984D02*
X10071848Y-10102984D01*
X10071848Y-10102984D02*
X10052801Y-10093460D01*
X10052801Y-10093460D02*
X10043277Y-10083936D01*
X10043277Y-10083936D02*
X10033753Y-10064889D01*
X10033753Y-10064889D02*
X10024229Y-10026793D01*
X10024229Y-10026793D02*
X10024229Y-9979174D01*
X10024229Y-9979174D02*
X10033753Y-9941079D01*
X10033753Y-9941079D02*
X10043277Y-9922031D01*
X10043277Y-9922031D02*
X10052801Y-9912508D01*
X10052801Y-9912508D02*
X10071848Y-9902984D01*
X10205182Y-9902984D02*
X10328991Y-9902984D01*
X10328991Y-9902984D02*
X10262325Y-9979174D01*
X10262325Y-9979174D02*
X10290896Y-9979174D01*
X10290896Y-9979174D02*
X10309944Y-9988698D01*
X10309944Y-9988698D02*
X10319468Y-9998222D01*
X10319468Y-9998222D02*
X10328991Y-10017270D01*
X10328991Y-10017270D02*
X10328991Y-10064889D01*
X10328991Y-10064889D02*
X10319468Y-10083936D01*
X10319468Y-10083936D02*
X10309944Y-10093460D01*
X10309944Y-10093460D02*
X10290896Y-10102984D01*
X10290896Y-10102984D02*
X10233753Y-10102984D01*
X10233753Y-10102984D02*
X10214706Y-10093460D01*
X10214706Y-10093460D02*
X10205182Y-10083936D01*
X10519468Y-10102984D02*
X10405182Y-10102984D01*
X10462325Y-10102984D02*
X10462325Y-9902984D01*
X10462325Y-9902984D02*
X10443277Y-9931555D01*
X10443277Y-9931555D02*
X10424229Y-9950603D01*
X10424229Y-9950603D02*
X10405182Y-9960127D01*
X10700420Y-9902984D02*
X10605182Y-9902984D01*
X10605182Y-9902984D02*
X10595658Y-9998222D01*
X10595658Y-9998222D02*
X10605182Y-9988698D01*
X10605182Y-9988698D02*
X10624229Y-9979174D01*
X10624229Y-9979174D02*
X10671849Y-9979174D01*
X10671849Y-9979174D02*
X10690896Y-9988698D01*
X10690896Y-9988698D02*
X10700420Y-9998222D01*
X10700420Y-9998222D02*
X10709944Y-10017270D01*
X10709944Y-10017270D02*
X10709944Y-10064889D01*
X10709944Y-10064889D02*
X10700420Y-10083936D01*
X10700420Y-10083936D02*
X10690896Y-10093460D01*
X10690896Y-10093460D02*
X10671849Y-10102984D01*
X10671849Y-10102984D02*
X10624229Y-10102984D01*
X10624229Y-10102984D02*
X10605182Y-10093460D01*
X10605182Y-10093460D02*
X10595658Y-10083936D01*
X10786134Y-9902984D02*
X10786134Y-9941079D01*
X10862325Y-9902984D02*
X10862325Y-9941079D01*
X11157563Y-10179174D02*
X11148039Y-10169650D01*
X11148039Y-10169650D02*
X11128991Y-10141079D01*
X11128991Y-10141079D02*
X11119468Y-10122031D01*
X11119468Y-10122031D02*
X11109944Y-10093460D01*
X11109944Y-10093460D02*
X11100420Y-10045841D01*
X11100420Y-10045841D02*
X11100420Y-10007746D01*
X11100420Y-10007746D02*
X11109944Y-9960127D01*
X11109944Y-9960127D02*
X11119468Y-9931555D01*
X11119468Y-9931555D02*
X11128991Y-9912508D01*
X11128991Y-9912508D02*
X11148039Y-9883936D01*
X11148039Y-9883936D02*
X11157563Y-9874412D01*
X11338515Y-10102984D02*
X11224229Y-10102984D01*
X11281372Y-10102984D02*
X11281372Y-9902984D01*
X11281372Y-9902984D02*
X11262325Y-9931555D01*
X11262325Y-9931555D02*
X11243277Y-9950603D01*
X11243277Y-9950603D02*
X11224229Y-9960127D01*
X11509944Y-9969650D02*
X11509944Y-10102984D01*
X11462325Y-9893460D02*
X11414706Y-10036317D01*
X11414706Y-10036317D02*
X11538515Y-10036317D01*
X11767087Y-10102984D02*
X11767087Y-9902984D01*
X11852801Y-10102984D02*
X11852801Y-9998222D01*
X11852801Y-9998222D02*
X11843277Y-9979174D01*
X11843277Y-9979174D02*
X11824230Y-9969650D01*
X11824230Y-9969650D02*
X11795658Y-9969650D01*
X11795658Y-9969650D02*
X11776610Y-9979174D01*
X11776610Y-9979174D02*
X11767087Y-9988698D01*
X11976610Y-10102984D02*
X11957563Y-10093460D01*
X11957563Y-10093460D02*
X11948039Y-10083936D01*
X11948039Y-10083936D02*
X11938515Y-10064889D01*
X11938515Y-10064889D02*
X11938515Y-10007746D01*
X11938515Y-10007746D02*
X11948039Y-9988698D01*
X11948039Y-9988698D02*
X11957563Y-9979174D01*
X11957563Y-9979174D02*
X11976610Y-9969650D01*
X11976610Y-9969650D02*
X12005182Y-9969650D01*
X12005182Y-9969650D02*
X12024230Y-9979174D01*
X12024230Y-9979174D02*
X12033753Y-9988698D01*
X12033753Y-9988698D02*
X12043277Y-10007746D01*
X12043277Y-10007746D02*
X12043277Y-10064889D01*
X12043277Y-10064889D02*
X12033753Y-10083936D01*
X12033753Y-10083936D02*
X12024230Y-10093460D01*
X12024230Y-10093460D02*
X12005182Y-10102984D01*
X12005182Y-10102984D02*
X11976610Y-10102984D01*
X12157563Y-10102984D02*
X12138515Y-10093460D01*
X12138515Y-10093460D02*
X12128991Y-10074412D01*
X12128991Y-10074412D02*
X12128991Y-9902984D01*
X12309944Y-10093460D02*
X12290896Y-10102984D01*
X12290896Y-10102984D02*
X12252801Y-10102984D01*
X12252801Y-10102984D02*
X12233753Y-10093460D01*
X12233753Y-10093460D02*
X12224230Y-10074412D01*
X12224230Y-10074412D02*
X12224230Y-9998222D01*
X12224230Y-9998222D02*
X12233753Y-9979174D01*
X12233753Y-9979174D02*
X12252801Y-9969650D01*
X12252801Y-9969650D02*
X12290896Y-9969650D01*
X12290896Y-9969650D02*
X12309944Y-9979174D01*
X12309944Y-9979174D02*
X12319468Y-9998222D01*
X12319468Y-9998222D02*
X12319468Y-10017270D01*
X12319468Y-10017270D02*
X12224230Y-10036317D01*
X12395658Y-10093460D02*
X12414706Y-10102984D01*
X12414706Y-10102984D02*
X12452801Y-10102984D01*
X12452801Y-10102984D02*
X12471849Y-10093460D01*
X12471849Y-10093460D02*
X12481372Y-10074412D01*
X12481372Y-10074412D02*
X12481372Y-10064889D01*
X12481372Y-10064889D02*
X12471849Y-10045841D01*
X12471849Y-10045841D02*
X12452801Y-10036317D01*
X12452801Y-10036317D02*
X12424230Y-10036317D01*
X12424230Y-10036317D02*
X12405182Y-10026793D01*
X12405182Y-10026793D02*
X12395658Y-10007746D01*
X12395658Y-10007746D02*
X12395658Y-9998222D01*
X12395658Y-9998222D02*
X12405182Y-9979174D01*
X12405182Y-9979174D02*
X12424230Y-9969650D01*
X12424230Y-9969650D02*
X12452801Y-9969650D01*
X12452801Y-9969650D02*
X12471849Y-9979174D01*
X12548039Y-10179174D02*
X12557563Y-10169650D01*
X12557563Y-10169650D02*
X12576611Y-10141079D01*
X12576611Y-10141079D02*
X12586134Y-10122031D01*
X12586134Y-10122031D02*
X12595658Y-10093460D01*
X12595658Y-10093460D02*
X12605182Y-10045841D01*
X12605182Y-10045841D02*
X12605182Y-10007746D01*
X12605182Y-10007746D02*
X12595658Y-9960127D01*
X12595658Y-9960127D02*
X12586134Y-9931555D01*
X12586134Y-9931555D02*
X12576611Y-9912508D01*
X12576611Y-9912508D02*
X12557563Y-9883936D01*
X12557563Y-9883936D02*
X12548039Y-9874412D01*
D12*
X7537500Y-10230500D02*
X7537500Y-10320500D01*
X7492500Y-10275500D02*
X7582500Y-10275500D01*
D11*
X7881372Y-10166984D02*
X7900420Y-10166984D01*
X7900420Y-10166984D02*
X7919467Y-10176508D01*
X7919467Y-10176508D02*
X7928991Y-10186031D01*
X7928991Y-10186031D02*
X7938515Y-10205079D01*
X7938515Y-10205079D02*
X7948039Y-10243174D01*
X7948039Y-10243174D02*
X7948039Y-10290793D01*
X7948039Y-10290793D02*
X7938515Y-10328889D01*
X7938515Y-10328889D02*
X7928991Y-10347936D01*
X7928991Y-10347936D02*
X7919467Y-10357460D01*
X7919467Y-10357460D02*
X7900420Y-10366984D01*
X7900420Y-10366984D02*
X7881372Y-10366984D01*
X7881372Y-10366984D02*
X7862324Y-10357460D01*
X7862324Y-10357460D02*
X7852801Y-10347936D01*
X7852801Y-10347936D02*
X7843277Y-10328889D01*
X7843277Y-10328889D02*
X7833753Y-10290793D01*
X7833753Y-10290793D02*
X7833753Y-10243174D01*
X7833753Y-10243174D02*
X7843277Y-10205079D01*
X7843277Y-10205079D02*
X7852801Y-10186031D01*
X7852801Y-10186031D02*
X7862324Y-10176508D01*
X7862324Y-10176508D02*
X7881372Y-10166984D01*
X8033753Y-10347936D02*
X8043277Y-10357460D01*
X8043277Y-10357460D02*
X8033753Y-10366984D01*
X8033753Y-10366984D02*
X8024229Y-10357460D01*
X8024229Y-10357460D02*
X8033753Y-10347936D01*
X8033753Y-10347936D02*
X8033753Y-10366984D01*
X8138515Y-10366984D02*
X8176610Y-10366984D01*
X8176610Y-10366984D02*
X8195658Y-10357460D01*
X8195658Y-10357460D02*
X8205182Y-10347936D01*
X8205182Y-10347936D02*
X8224229Y-10319365D01*
X8224229Y-10319365D02*
X8233753Y-10281270D01*
X8233753Y-10281270D02*
X8233753Y-10205079D01*
X8233753Y-10205079D02*
X8224229Y-10186031D01*
X8224229Y-10186031D02*
X8214705Y-10176508D01*
X8214705Y-10176508D02*
X8195658Y-10166984D01*
X8195658Y-10166984D02*
X8157562Y-10166984D01*
X8157562Y-10166984D02*
X8138515Y-10176508D01*
X8138515Y-10176508D02*
X8128991Y-10186031D01*
X8128991Y-10186031D02*
X8119467Y-10205079D01*
X8119467Y-10205079D02*
X8119467Y-10252698D01*
X8119467Y-10252698D02*
X8128991Y-10271746D01*
X8128991Y-10271746D02*
X8138515Y-10281270D01*
X8138515Y-10281270D02*
X8157562Y-10290793D01*
X8157562Y-10290793D02*
X8195658Y-10290793D01*
X8195658Y-10290793D02*
X8214705Y-10281270D01*
X8214705Y-10281270D02*
X8224229Y-10271746D01*
X8224229Y-10271746D02*
X8233753Y-10252698D01*
X8357562Y-10166984D02*
X8376610Y-10166984D01*
X8376610Y-10166984D02*
X8395658Y-10176508D01*
X8395658Y-10176508D02*
X8405182Y-10186031D01*
X8405182Y-10186031D02*
X8414705Y-10205079D01*
X8414705Y-10205079D02*
X8424229Y-10243174D01*
X8424229Y-10243174D02*
X8424229Y-10290793D01*
X8424229Y-10290793D02*
X8414705Y-10328889D01*
X8414705Y-10328889D02*
X8405182Y-10347936D01*
X8405182Y-10347936D02*
X8395658Y-10357460D01*
X8395658Y-10357460D02*
X8376610Y-10366984D01*
X8376610Y-10366984D02*
X8357562Y-10366984D01*
X8357562Y-10366984D02*
X8338515Y-10357460D01*
X8338515Y-10357460D02*
X8328991Y-10347936D01*
X8328991Y-10347936D02*
X8319467Y-10328889D01*
X8319467Y-10328889D02*
X8309943Y-10290793D01*
X8309943Y-10290793D02*
X8309943Y-10243174D01*
X8309943Y-10243174D02*
X8319467Y-10205079D01*
X8319467Y-10205079D02*
X8328991Y-10186031D01*
X8328991Y-10186031D02*
X8338515Y-10176508D01*
X8338515Y-10176508D02*
X8357562Y-10166984D01*
X8548039Y-10166984D02*
X8567086Y-10166984D01*
X8567086Y-10166984D02*
X8586134Y-10176508D01*
X8586134Y-10176508D02*
X8595658Y-10186031D01*
X8595658Y-10186031D02*
X8605182Y-10205079D01*
X8605182Y-10205079D02*
X8614705Y-10243174D01*
X8614705Y-10243174D02*
X8614705Y-10290793D01*
X8614705Y-10290793D02*
X8605182Y-10328889D01*
X8605182Y-10328889D02*
X8595658Y-10347936D01*
X8595658Y-10347936D02*
X8586134Y-10357460D01*
X8586134Y-10357460D02*
X8567086Y-10366984D01*
X8567086Y-10366984D02*
X8548039Y-10366984D01*
X8548039Y-10366984D02*
X8528991Y-10357460D01*
X8528991Y-10357460D02*
X8519467Y-10347936D01*
X8519467Y-10347936D02*
X8509944Y-10328889D01*
X8509944Y-10328889D02*
X8500420Y-10290793D01*
X8500420Y-10290793D02*
X8500420Y-10243174D01*
X8500420Y-10243174D02*
X8509944Y-10205079D01*
X8509944Y-10205079D02*
X8519467Y-10186031D01*
X8519467Y-10186031D02*
X8528991Y-10176508D01*
X8528991Y-10176508D02*
X8548039Y-10166984D01*
X8700420Y-10366984D02*
X8700420Y-10233650D01*
X8700420Y-10252698D02*
X8709944Y-10243174D01*
X8709944Y-10243174D02*
X8728991Y-10233650D01*
X8728991Y-10233650D02*
X8757563Y-10233650D01*
X8757563Y-10233650D02*
X8776610Y-10243174D01*
X8776610Y-10243174D02*
X8786134Y-10262222D01*
X8786134Y-10262222D02*
X8786134Y-10366984D01*
X8786134Y-10262222D02*
X8795658Y-10243174D01*
X8795658Y-10243174D02*
X8814705Y-10233650D01*
X8814705Y-10233650D02*
X8843277Y-10233650D01*
X8843277Y-10233650D02*
X8862325Y-10243174D01*
X8862325Y-10243174D02*
X8871848Y-10262222D01*
X8871848Y-10262222D02*
X8871848Y-10366984D01*
X8967086Y-10366984D02*
X8967086Y-10233650D01*
X8967086Y-10252698D02*
X8976610Y-10243174D01*
X8976610Y-10243174D02*
X8995658Y-10233650D01*
X8995658Y-10233650D02*
X9024229Y-10233650D01*
X9024229Y-10233650D02*
X9043277Y-10243174D01*
X9043277Y-10243174D02*
X9052801Y-10262222D01*
X9052801Y-10262222D02*
X9052801Y-10366984D01*
X9052801Y-10262222D02*
X9062325Y-10243174D01*
X9062325Y-10243174D02*
X9081372Y-10233650D01*
X9081372Y-10233650D02*
X9109944Y-10233650D01*
X9109944Y-10233650D02*
X9128991Y-10243174D01*
X9128991Y-10243174D02*
X9138515Y-10262222D01*
X9138515Y-10262222D02*
X9138515Y-10366984D01*
X9528991Y-10157460D02*
X9357563Y-10414603D01*
X9786134Y-10166984D02*
X9805182Y-10166984D01*
X9805182Y-10166984D02*
X9824229Y-10176508D01*
X9824229Y-10176508D02*
X9833753Y-10186031D01*
X9833753Y-10186031D02*
X9843277Y-10205079D01*
X9843277Y-10205079D02*
X9852801Y-10243174D01*
X9852801Y-10243174D02*
X9852801Y-10290793D01*
X9852801Y-10290793D02*
X9843277Y-10328889D01*
X9843277Y-10328889D02*
X9833753Y-10347936D01*
X9833753Y-10347936D02*
X9824229Y-10357460D01*
X9824229Y-10357460D02*
X9805182Y-10366984D01*
X9805182Y-10366984D02*
X9786134Y-10366984D01*
X9786134Y-10366984D02*
X9767087Y-10357460D01*
X9767087Y-10357460D02*
X9757563Y-10347936D01*
X9757563Y-10347936D02*
X9748039Y-10328889D01*
X9748039Y-10328889D02*
X9738515Y-10290793D01*
X9738515Y-10290793D02*
X9738515Y-10243174D01*
X9738515Y-10243174D02*
X9748039Y-10205079D01*
X9748039Y-10205079D02*
X9757563Y-10186031D01*
X9757563Y-10186031D02*
X9767087Y-10176508D01*
X9767087Y-10176508D02*
X9786134Y-10166984D01*
X9938515Y-10347936D02*
X9948039Y-10357460D01*
X9948039Y-10357460D02*
X9938515Y-10366984D01*
X9938515Y-10366984D02*
X9928991Y-10357460D01*
X9928991Y-10357460D02*
X9938515Y-10347936D01*
X9938515Y-10347936D02*
X9938515Y-10366984D01*
X10071848Y-10166984D02*
X10090896Y-10166984D01*
X10090896Y-10166984D02*
X10109944Y-10176508D01*
X10109944Y-10176508D02*
X10119468Y-10186031D01*
X10119468Y-10186031D02*
X10128991Y-10205079D01*
X10128991Y-10205079D02*
X10138515Y-10243174D01*
X10138515Y-10243174D02*
X10138515Y-10290793D01*
X10138515Y-10290793D02*
X10128991Y-10328889D01*
X10128991Y-10328889D02*
X10119468Y-10347936D01*
X10119468Y-10347936D02*
X10109944Y-10357460D01*
X10109944Y-10357460D02*
X10090896Y-10366984D01*
X10090896Y-10366984D02*
X10071848Y-10366984D01*
X10071848Y-10366984D02*
X10052801Y-10357460D01*
X10052801Y-10357460D02*
X10043277Y-10347936D01*
X10043277Y-10347936D02*
X10033753Y-10328889D01*
X10033753Y-10328889D02*
X10024229Y-10290793D01*
X10024229Y-10290793D02*
X10024229Y-10243174D01*
X10024229Y-10243174D02*
X10033753Y-10205079D01*
X10033753Y-10205079D02*
X10043277Y-10186031D01*
X10043277Y-10186031D02*
X10052801Y-10176508D01*
X10052801Y-10176508D02*
X10071848Y-10166984D01*
X10205182Y-10166984D02*
X10328991Y-10166984D01*
X10328991Y-10166984D02*
X10262325Y-10243174D01*
X10262325Y-10243174D02*
X10290896Y-10243174D01*
X10290896Y-10243174D02*
X10309944Y-10252698D01*
X10309944Y-10252698D02*
X10319468Y-10262222D01*
X10319468Y-10262222D02*
X10328991Y-10281270D01*
X10328991Y-10281270D02*
X10328991Y-10328889D01*
X10328991Y-10328889D02*
X10319468Y-10347936D01*
X10319468Y-10347936D02*
X10309944Y-10357460D01*
X10309944Y-10357460D02*
X10290896Y-10366984D01*
X10290896Y-10366984D02*
X10233753Y-10366984D01*
X10233753Y-10366984D02*
X10214706Y-10357460D01*
X10214706Y-10357460D02*
X10205182Y-10347936D01*
X10509944Y-10166984D02*
X10414706Y-10166984D01*
X10414706Y-10166984D02*
X10405182Y-10262222D01*
X10405182Y-10262222D02*
X10414706Y-10252698D01*
X10414706Y-10252698D02*
X10433753Y-10243174D01*
X10433753Y-10243174D02*
X10481372Y-10243174D01*
X10481372Y-10243174D02*
X10500420Y-10252698D01*
X10500420Y-10252698D02*
X10509944Y-10262222D01*
X10509944Y-10262222D02*
X10519468Y-10281270D01*
X10519468Y-10281270D02*
X10519468Y-10328889D01*
X10519468Y-10328889D02*
X10509944Y-10347936D01*
X10509944Y-10347936D02*
X10500420Y-10357460D01*
X10500420Y-10357460D02*
X10481372Y-10366984D01*
X10481372Y-10366984D02*
X10433753Y-10366984D01*
X10433753Y-10366984D02*
X10414706Y-10357460D01*
X10414706Y-10357460D02*
X10405182Y-10347936D01*
X10690896Y-10233650D02*
X10690896Y-10366984D01*
X10643277Y-10157460D02*
X10595658Y-10300317D01*
X10595658Y-10300317D02*
X10719468Y-10300317D01*
X10786134Y-10166984D02*
X10786134Y-10205079D01*
X10862325Y-10166984D02*
X10862325Y-10205079D01*
X11157563Y-10443174D02*
X11148039Y-10433650D01*
X11148039Y-10433650D02*
X11128991Y-10405079D01*
X11128991Y-10405079D02*
X11119468Y-10386031D01*
X11119468Y-10386031D02*
X11109944Y-10357460D01*
X11109944Y-10357460D02*
X11100420Y-10309841D01*
X11100420Y-10309841D02*
X11100420Y-10271746D01*
X11100420Y-10271746D02*
X11109944Y-10224127D01*
X11109944Y-10224127D02*
X11119468Y-10195555D01*
X11119468Y-10195555D02*
X11128991Y-10176508D01*
X11128991Y-10176508D02*
X11148039Y-10147936D01*
X11148039Y-10147936D02*
X11157563Y-10138412D01*
X11224229Y-10186031D02*
X11233753Y-10176508D01*
X11233753Y-10176508D02*
X11252801Y-10166984D01*
X11252801Y-10166984D02*
X11300420Y-10166984D01*
X11300420Y-10166984D02*
X11319468Y-10176508D01*
X11319468Y-10176508D02*
X11328991Y-10186031D01*
X11328991Y-10186031D02*
X11338515Y-10205079D01*
X11338515Y-10205079D02*
X11338515Y-10224127D01*
X11338515Y-10224127D02*
X11328991Y-10252698D01*
X11328991Y-10252698D02*
X11214706Y-10366984D01*
X11214706Y-10366984D02*
X11338515Y-10366984D01*
X11576610Y-10366984D02*
X11576610Y-10166984D01*
X11662325Y-10366984D02*
X11662325Y-10262222D01*
X11662325Y-10262222D02*
X11652801Y-10243174D01*
X11652801Y-10243174D02*
X11633753Y-10233650D01*
X11633753Y-10233650D02*
X11605182Y-10233650D01*
X11605182Y-10233650D02*
X11586134Y-10243174D01*
X11586134Y-10243174D02*
X11576610Y-10252698D01*
X11786134Y-10366984D02*
X11767087Y-10357460D01*
X11767087Y-10357460D02*
X11757563Y-10347936D01*
X11757563Y-10347936D02*
X11748039Y-10328889D01*
X11748039Y-10328889D02*
X11748039Y-10271746D01*
X11748039Y-10271746D02*
X11757563Y-10252698D01*
X11757563Y-10252698D02*
X11767087Y-10243174D01*
X11767087Y-10243174D02*
X11786134Y-10233650D01*
X11786134Y-10233650D02*
X11814706Y-10233650D01*
X11814706Y-10233650D02*
X11833753Y-10243174D01*
X11833753Y-10243174D02*
X11843277Y-10252698D01*
X11843277Y-10252698D02*
X11852801Y-10271746D01*
X11852801Y-10271746D02*
X11852801Y-10328889D01*
X11852801Y-10328889D02*
X11843277Y-10347936D01*
X11843277Y-10347936D02*
X11833753Y-10357460D01*
X11833753Y-10357460D02*
X11814706Y-10366984D01*
X11814706Y-10366984D02*
X11786134Y-10366984D01*
X11967087Y-10366984D02*
X11948039Y-10357460D01*
X11948039Y-10357460D02*
X11938515Y-10338412D01*
X11938515Y-10338412D02*
X11938515Y-10166984D01*
X12119468Y-10357460D02*
X12100420Y-10366984D01*
X12100420Y-10366984D02*
X12062325Y-10366984D01*
X12062325Y-10366984D02*
X12043277Y-10357460D01*
X12043277Y-10357460D02*
X12033753Y-10338412D01*
X12033753Y-10338412D02*
X12033753Y-10262222D01*
X12033753Y-10262222D02*
X12043277Y-10243174D01*
X12043277Y-10243174D02*
X12062325Y-10233650D01*
X12062325Y-10233650D02*
X12100420Y-10233650D01*
X12100420Y-10233650D02*
X12119468Y-10243174D01*
X12119468Y-10243174D02*
X12128991Y-10262222D01*
X12128991Y-10262222D02*
X12128991Y-10281270D01*
X12128991Y-10281270D02*
X12033753Y-10300317D01*
X12205182Y-10357460D02*
X12224230Y-10366984D01*
X12224230Y-10366984D02*
X12262325Y-10366984D01*
X12262325Y-10366984D02*
X12281372Y-10357460D01*
X12281372Y-10357460D02*
X12290896Y-10338412D01*
X12290896Y-10338412D02*
X12290896Y-10328889D01*
X12290896Y-10328889D02*
X12281372Y-10309841D01*
X12281372Y-10309841D02*
X12262325Y-10300317D01*
X12262325Y-10300317D02*
X12233753Y-10300317D01*
X12233753Y-10300317D02*
X12214706Y-10290793D01*
X12214706Y-10290793D02*
X12205182Y-10271746D01*
X12205182Y-10271746D02*
X12205182Y-10262222D01*
X12205182Y-10262222D02*
X12214706Y-10243174D01*
X12214706Y-10243174D02*
X12233753Y-10233650D01*
X12233753Y-10233650D02*
X12262325Y-10233650D01*
X12262325Y-10233650D02*
X12281372Y-10243174D01*
X12357563Y-10443174D02*
X12367087Y-10433650D01*
X12367087Y-10433650D02*
X12386134Y-10405079D01*
X12386134Y-10405079D02*
X12395658Y-10386031D01*
X12395658Y-10386031D02*
X12405182Y-10357460D01*
X12405182Y-10357460D02*
X12414706Y-10309841D01*
X12414706Y-10309841D02*
X12414706Y-10271746D01*
X12414706Y-10271746D02*
X12405182Y-10224127D01*
X12405182Y-10224127D02*
X12395658Y-10195555D01*
X12395658Y-10195555D02*
X12386134Y-10176508D01*
X12386134Y-10176508D02*
X12367087Y-10147936D01*
X12367087Y-10147936D02*
X12357563Y-10138412D01*
D12*
X7567856Y-10574856D02*
X7567856Y-10504144D01*
X7497144Y-10504144D01*
X7497144Y-10574856D01*
X7567856Y-10574856D01*
D11*
X7948039Y-10630984D02*
X7833753Y-10630984D01*
X7890896Y-10630984D02*
X7890896Y-10430984D01*
X7890896Y-10430984D02*
X7871848Y-10459555D01*
X7871848Y-10459555D02*
X7852801Y-10478603D01*
X7852801Y-10478603D02*
X7833753Y-10488127D01*
X8033753Y-10611936D02*
X8043277Y-10621460D01*
X8043277Y-10621460D02*
X8033753Y-10630984D01*
X8033753Y-10630984D02*
X8024229Y-10621460D01*
X8024229Y-10621460D02*
X8033753Y-10611936D01*
X8033753Y-10611936D02*
X8033753Y-10630984D01*
X8167086Y-10430984D02*
X8186134Y-10430984D01*
X8186134Y-10430984D02*
X8205182Y-10440508D01*
X8205182Y-10440508D02*
X8214705Y-10450031D01*
X8214705Y-10450031D02*
X8224229Y-10469079D01*
X8224229Y-10469079D02*
X8233753Y-10507174D01*
X8233753Y-10507174D02*
X8233753Y-10554793D01*
X8233753Y-10554793D02*
X8224229Y-10592889D01*
X8224229Y-10592889D02*
X8214705Y-10611936D01*
X8214705Y-10611936D02*
X8205182Y-10621460D01*
X8205182Y-10621460D02*
X8186134Y-10630984D01*
X8186134Y-10630984D02*
X8167086Y-10630984D01*
X8167086Y-10630984D02*
X8148039Y-10621460D01*
X8148039Y-10621460D02*
X8138515Y-10611936D01*
X8138515Y-10611936D02*
X8128991Y-10592889D01*
X8128991Y-10592889D02*
X8119467Y-10554793D01*
X8119467Y-10554793D02*
X8119467Y-10507174D01*
X8119467Y-10507174D02*
X8128991Y-10469079D01*
X8128991Y-10469079D02*
X8138515Y-10450031D01*
X8138515Y-10450031D02*
X8148039Y-10440508D01*
X8148039Y-10440508D02*
X8167086Y-10430984D01*
X8357562Y-10430984D02*
X8376610Y-10430984D01*
X8376610Y-10430984D02*
X8395658Y-10440508D01*
X8395658Y-10440508D02*
X8405182Y-10450031D01*
X8405182Y-10450031D02*
X8414705Y-10469079D01*
X8414705Y-10469079D02*
X8424229Y-10507174D01*
X8424229Y-10507174D02*
X8424229Y-10554793D01*
X8424229Y-10554793D02*
X8414705Y-10592889D01*
X8414705Y-10592889D02*
X8405182Y-10611936D01*
X8405182Y-10611936D02*
X8395658Y-10621460D01*
X8395658Y-10621460D02*
X8376610Y-10630984D01*
X8376610Y-10630984D02*
X8357562Y-10630984D01*
X8357562Y-10630984D02*
X8338515Y-10621460D01*
X8338515Y-10621460D02*
X8328991Y-10611936D01*
X8328991Y-10611936D02*
X8319467Y-10592889D01*
X8319467Y-10592889D02*
X8309943Y-10554793D01*
X8309943Y-10554793D02*
X8309943Y-10507174D01*
X8309943Y-10507174D02*
X8319467Y-10469079D01*
X8319467Y-10469079D02*
X8328991Y-10450031D01*
X8328991Y-10450031D02*
X8338515Y-10440508D01*
X8338515Y-10440508D02*
X8357562Y-10430984D01*
X8548039Y-10430984D02*
X8567086Y-10430984D01*
X8567086Y-10430984D02*
X8586134Y-10440508D01*
X8586134Y-10440508D02*
X8595658Y-10450031D01*
X8595658Y-10450031D02*
X8605182Y-10469079D01*
X8605182Y-10469079D02*
X8614705Y-10507174D01*
X8614705Y-10507174D02*
X8614705Y-10554793D01*
X8614705Y-10554793D02*
X8605182Y-10592889D01*
X8605182Y-10592889D02*
X8595658Y-10611936D01*
X8595658Y-10611936D02*
X8586134Y-10621460D01*
X8586134Y-10621460D02*
X8567086Y-10630984D01*
X8567086Y-10630984D02*
X8548039Y-10630984D01*
X8548039Y-10630984D02*
X8528991Y-10621460D01*
X8528991Y-10621460D02*
X8519467Y-10611936D01*
X8519467Y-10611936D02*
X8509944Y-10592889D01*
X8509944Y-10592889D02*
X8500420Y-10554793D01*
X8500420Y-10554793D02*
X8500420Y-10507174D01*
X8500420Y-10507174D02*
X8509944Y-10469079D01*
X8509944Y-10469079D02*
X8519467Y-10450031D01*
X8519467Y-10450031D02*
X8528991Y-10440508D01*
X8528991Y-10440508D02*
X8548039Y-10430984D01*
X8700420Y-10630984D02*
X8700420Y-10497650D01*
X8700420Y-10516698D02*
X8709944Y-10507174D01*
X8709944Y-10507174D02*
X8728991Y-10497650D01*
X8728991Y-10497650D02*
X8757563Y-10497650D01*
X8757563Y-10497650D02*
X8776610Y-10507174D01*
X8776610Y-10507174D02*
X8786134Y-10526222D01*
X8786134Y-10526222D02*
X8786134Y-10630984D01*
X8786134Y-10526222D02*
X8795658Y-10507174D01*
X8795658Y-10507174D02*
X8814705Y-10497650D01*
X8814705Y-10497650D02*
X8843277Y-10497650D01*
X8843277Y-10497650D02*
X8862325Y-10507174D01*
X8862325Y-10507174D02*
X8871848Y-10526222D01*
X8871848Y-10526222D02*
X8871848Y-10630984D01*
X8967086Y-10630984D02*
X8967086Y-10497650D01*
X8967086Y-10516698D02*
X8976610Y-10507174D01*
X8976610Y-10507174D02*
X8995658Y-10497650D01*
X8995658Y-10497650D02*
X9024229Y-10497650D01*
X9024229Y-10497650D02*
X9043277Y-10507174D01*
X9043277Y-10507174D02*
X9052801Y-10526222D01*
X9052801Y-10526222D02*
X9052801Y-10630984D01*
X9052801Y-10526222D02*
X9062325Y-10507174D01*
X9062325Y-10507174D02*
X9081372Y-10497650D01*
X9081372Y-10497650D02*
X9109944Y-10497650D01*
X9109944Y-10497650D02*
X9128991Y-10507174D01*
X9128991Y-10507174D02*
X9138515Y-10526222D01*
X9138515Y-10526222D02*
X9138515Y-10630984D01*
X9528991Y-10421460D02*
X9357563Y-10678603D01*
X9786134Y-10430984D02*
X9805182Y-10430984D01*
X9805182Y-10430984D02*
X9824229Y-10440508D01*
X9824229Y-10440508D02*
X9833753Y-10450031D01*
X9833753Y-10450031D02*
X9843277Y-10469079D01*
X9843277Y-10469079D02*
X9852801Y-10507174D01*
X9852801Y-10507174D02*
X9852801Y-10554793D01*
X9852801Y-10554793D02*
X9843277Y-10592889D01*
X9843277Y-10592889D02*
X9833753Y-10611936D01*
X9833753Y-10611936D02*
X9824229Y-10621460D01*
X9824229Y-10621460D02*
X9805182Y-10630984D01*
X9805182Y-10630984D02*
X9786134Y-10630984D01*
X9786134Y-10630984D02*
X9767087Y-10621460D01*
X9767087Y-10621460D02*
X9757563Y-10611936D01*
X9757563Y-10611936D02*
X9748039Y-10592889D01*
X9748039Y-10592889D02*
X9738515Y-10554793D01*
X9738515Y-10554793D02*
X9738515Y-10507174D01*
X9738515Y-10507174D02*
X9748039Y-10469079D01*
X9748039Y-10469079D02*
X9757563Y-10450031D01*
X9757563Y-10450031D02*
X9767087Y-10440508D01*
X9767087Y-10440508D02*
X9786134Y-10430984D01*
X9938515Y-10611936D02*
X9948039Y-10621460D01*
X9948039Y-10621460D02*
X9938515Y-10630984D01*
X9938515Y-10630984D02*
X9928991Y-10621460D01*
X9928991Y-10621460D02*
X9938515Y-10611936D01*
X9938515Y-10611936D02*
X9938515Y-10630984D01*
X10071848Y-10430984D02*
X10090896Y-10430984D01*
X10090896Y-10430984D02*
X10109944Y-10440508D01*
X10109944Y-10440508D02*
X10119468Y-10450031D01*
X10119468Y-10450031D02*
X10128991Y-10469079D01*
X10128991Y-10469079D02*
X10138515Y-10507174D01*
X10138515Y-10507174D02*
X10138515Y-10554793D01*
X10138515Y-10554793D02*
X10128991Y-10592889D01*
X10128991Y-10592889D02*
X10119468Y-10611936D01*
X10119468Y-10611936D02*
X10109944Y-10621460D01*
X10109944Y-10621460D02*
X10090896Y-10630984D01*
X10090896Y-10630984D02*
X10071848Y-10630984D01*
X10071848Y-10630984D02*
X10052801Y-10621460D01*
X10052801Y-10621460D02*
X10043277Y-10611936D01*
X10043277Y-10611936D02*
X10033753Y-10592889D01*
X10033753Y-10592889D02*
X10024229Y-10554793D01*
X10024229Y-10554793D02*
X10024229Y-10507174D01*
X10024229Y-10507174D02*
X10033753Y-10469079D01*
X10033753Y-10469079D02*
X10043277Y-10450031D01*
X10043277Y-10450031D02*
X10052801Y-10440508D01*
X10052801Y-10440508D02*
X10071848Y-10430984D01*
X10205182Y-10430984D02*
X10328991Y-10430984D01*
X10328991Y-10430984D02*
X10262325Y-10507174D01*
X10262325Y-10507174D02*
X10290896Y-10507174D01*
X10290896Y-10507174D02*
X10309944Y-10516698D01*
X10309944Y-10516698D02*
X10319468Y-10526222D01*
X10319468Y-10526222D02*
X10328991Y-10545270D01*
X10328991Y-10545270D02*
X10328991Y-10592889D01*
X10328991Y-10592889D02*
X10319468Y-10611936D01*
X10319468Y-10611936D02*
X10309944Y-10621460D01*
X10309944Y-10621460D02*
X10290896Y-10630984D01*
X10290896Y-10630984D02*
X10233753Y-10630984D01*
X10233753Y-10630984D02*
X10214706Y-10621460D01*
X10214706Y-10621460D02*
X10205182Y-10611936D01*
X10424229Y-10630984D02*
X10462325Y-10630984D01*
X10462325Y-10630984D02*
X10481372Y-10621460D01*
X10481372Y-10621460D02*
X10490896Y-10611936D01*
X10490896Y-10611936D02*
X10509944Y-10583365D01*
X10509944Y-10583365D02*
X10519468Y-10545270D01*
X10519468Y-10545270D02*
X10519468Y-10469079D01*
X10519468Y-10469079D02*
X10509944Y-10450031D01*
X10509944Y-10450031D02*
X10500420Y-10440508D01*
X10500420Y-10440508D02*
X10481372Y-10430984D01*
X10481372Y-10430984D02*
X10443277Y-10430984D01*
X10443277Y-10430984D02*
X10424229Y-10440508D01*
X10424229Y-10440508D02*
X10414706Y-10450031D01*
X10414706Y-10450031D02*
X10405182Y-10469079D01*
X10405182Y-10469079D02*
X10405182Y-10516698D01*
X10405182Y-10516698D02*
X10414706Y-10535746D01*
X10414706Y-10535746D02*
X10424229Y-10545270D01*
X10424229Y-10545270D02*
X10443277Y-10554793D01*
X10443277Y-10554793D02*
X10481372Y-10554793D01*
X10481372Y-10554793D02*
X10500420Y-10545270D01*
X10500420Y-10545270D02*
X10509944Y-10535746D01*
X10509944Y-10535746D02*
X10519468Y-10516698D01*
X10690896Y-10497650D02*
X10690896Y-10630984D01*
X10643277Y-10421460D02*
X10595658Y-10564317D01*
X10595658Y-10564317D02*
X10719468Y-10564317D01*
X10786134Y-10430984D02*
X10786134Y-10469079D01*
X10862325Y-10430984D02*
X10862325Y-10469079D01*
X11157563Y-10707174D02*
X11148039Y-10697650D01*
X11148039Y-10697650D02*
X11128991Y-10669079D01*
X11128991Y-10669079D02*
X11119468Y-10650031D01*
X11119468Y-10650031D02*
X11109944Y-10621460D01*
X11109944Y-10621460D02*
X11100420Y-10573841D01*
X11100420Y-10573841D02*
X11100420Y-10535746D01*
X11100420Y-10535746D02*
X11109944Y-10488127D01*
X11109944Y-10488127D02*
X11119468Y-10459555D01*
X11119468Y-10459555D02*
X11128991Y-10440508D01*
X11128991Y-10440508D02*
X11148039Y-10411936D01*
X11148039Y-10411936D02*
X11157563Y-10402412D01*
X11271848Y-10430984D02*
X11290896Y-10430984D01*
X11290896Y-10430984D02*
X11309944Y-10440508D01*
X11309944Y-10440508D02*
X11319468Y-10450031D01*
X11319468Y-10450031D02*
X11328991Y-10469079D01*
X11328991Y-10469079D02*
X11338515Y-10507174D01*
X11338515Y-10507174D02*
X11338515Y-10554793D01*
X11338515Y-10554793D02*
X11328991Y-10592889D01*
X11328991Y-10592889D02*
X11319468Y-10611936D01*
X11319468Y-10611936D02*
X11309944Y-10621460D01*
X11309944Y-10621460D02*
X11290896Y-10630984D01*
X11290896Y-10630984D02*
X11271848Y-10630984D01*
X11271848Y-10630984D02*
X11252801Y-10621460D01*
X11252801Y-10621460D02*
X11243277Y-10611936D01*
X11243277Y-10611936D02*
X11233753Y-10592889D01*
X11233753Y-10592889D02*
X11224229Y-10554793D01*
X11224229Y-10554793D02*
X11224229Y-10507174D01*
X11224229Y-10507174D02*
X11233753Y-10469079D01*
X11233753Y-10469079D02*
X11243277Y-10450031D01*
X11243277Y-10450031D02*
X11252801Y-10440508D01*
X11252801Y-10440508D02*
X11271848Y-10430984D01*
X11576610Y-10630984D02*
X11576610Y-10430984D01*
X11662325Y-10630984D02*
X11662325Y-10526222D01*
X11662325Y-10526222D02*
X11652801Y-10507174D01*
X11652801Y-10507174D02*
X11633753Y-10497650D01*
X11633753Y-10497650D02*
X11605182Y-10497650D01*
X11605182Y-10497650D02*
X11586134Y-10507174D01*
X11586134Y-10507174D02*
X11576610Y-10516698D01*
X11786134Y-10630984D02*
X11767087Y-10621460D01*
X11767087Y-10621460D02*
X11757563Y-10611936D01*
X11757563Y-10611936D02*
X11748039Y-10592889D01*
X11748039Y-10592889D02*
X11748039Y-10535746D01*
X11748039Y-10535746D02*
X11757563Y-10516698D01*
X11757563Y-10516698D02*
X11767087Y-10507174D01*
X11767087Y-10507174D02*
X11786134Y-10497650D01*
X11786134Y-10497650D02*
X11814706Y-10497650D01*
X11814706Y-10497650D02*
X11833753Y-10507174D01*
X11833753Y-10507174D02*
X11843277Y-10516698D01*
X11843277Y-10516698D02*
X11852801Y-10535746D01*
X11852801Y-10535746D02*
X11852801Y-10592889D01*
X11852801Y-10592889D02*
X11843277Y-10611936D01*
X11843277Y-10611936D02*
X11833753Y-10621460D01*
X11833753Y-10621460D02*
X11814706Y-10630984D01*
X11814706Y-10630984D02*
X11786134Y-10630984D01*
X11967087Y-10630984D02*
X11948039Y-10621460D01*
X11948039Y-10621460D02*
X11938515Y-10602412D01*
X11938515Y-10602412D02*
X11938515Y-10430984D01*
X12119468Y-10621460D02*
X12100420Y-10630984D01*
X12100420Y-10630984D02*
X12062325Y-10630984D01*
X12062325Y-10630984D02*
X12043277Y-10621460D01*
X12043277Y-10621460D02*
X12033753Y-10602412D01*
X12033753Y-10602412D02*
X12033753Y-10526222D01*
X12033753Y-10526222D02*
X12043277Y-10507174D01*
X12043277Y-10507174D02*
X12062325Y-10497650D01*
X12062325Y-10497650D02*
X12100420Y-10497650D01*
X12100420Y-10497650D02*
X12119468Y-10507174D01*
X12119468Y-10507174D02*
X12128991Y-10526222D01*
X12128991Y-10526222D02*
X12128991Y-10545270D01*
X12128991Y-10545270D02*
X12033753Y-10564317D01*
X12205182Y-10621460D02*
X12224230Y-10630984D01*
X12224230Y-10630984D02*
X12262325Y-10630984D01*
X12262325Y-10630984D02*
X12281372Y-10621460D01*
X12281372Y-10621460D02*
X12290896Y-10602412D01*
X12290896Y-10602412D02*
X12290896Y-10592889D01*
X12290896Y-10592889D02*
X12281372Y-10573841D01*
X12281372Y-10573841D02*
X12262325Y-10564317D01*
X12262325Y-10564317D02*
X12233753Y-10564317D01*
X12233753Y-10564317D02*
X12214706Y-10554793D01*
X12214706Y-10554793D02*
X12205182Y-10535746D01*
X12205182Y-10535746D02*
X12205182Y-10526222D01*
X12205182Y-10526222D02*
X12214706Y-10507174D01*
X12214706Y-10507174D02*
X12233753Y-10497650D01*
X12233753Y-10497650D02*
X12262325Y-10497650D01*
X12262325Y-10497650D02*
X12281372Y-10507174D01*
X12528992Y-10554793D02*
X12681373Y-10554793D01*
X12605182Y-10630984D02*
X12605182Y-10478603D01*
X12909944Y-10430984D02*
X13033753Y-10430984D01*
X13033753Y-10430984D02*
X12967087Y-10507174D01*
X12967087Y-10507174D02*
X12995658Y-10507174D01*
X12995658Y-10507174D02*
X13014706Y-10516698D01*
X13014706Y-10516698D02*
X13024230Y-10526222D01*
X13024230Y-10526222D02*
X13033753Y-10545270D01*
X13033753Y-10545270D02*
X13033753Y-10592889D01*
X13033753Y-10592889D02*
X13024230Y-10611936D01*
X13024230Y-10611936D02*
X13014706Y-10621460D01*
X13014706Y-10621460D02*
X12995658Y-10630984D01*
X12995658Y-10630984D02*
X12938515Y-10630984D01*
X12938515Y-10630984D02*
X12919468Y-10621460D01*
X12919468Y-10621460D02*
X12909944Y-10611936D01*
X13262325Y-10621460D02*
X13281373Y-10630984D01*
X13281373Y-10630984D02*
X13319468Y-10630984D01*
X13319468Y-10630984D02*
X13338515Y-10621460D01*
X13338515Y-10621460D02*
X13348039Y-10602412D01*
X13348039Y-10602412D02*
X13348039Y-10592889D01*
X13348039Y-10592889D02*
X13338515Y-10573841D01*
X13338515Y-10573841D02*
X13319468Y-10564317D01*
X13319468Y-10564317D02*
X13290896Y-10564317D01*
X13290896Y-10564317D02*
X13271849Y-10554793D01*
X13271849Y-10554793D02*
X13262325Y-10535746D01*
X13262325Y-10535746D02*
X13262325Y-10526222D01*
X13262325Y-10526222D02*
X13271849Y-10507174D01*
X13271849Y-10507174D02*
X13290896Y-10497650D01*
X13290896Y-10497650D02*
X13319468Y-10497650D01*
X13319468Y-10497650D02*
X13338515Y-10507174D01*
X13462325Y-10630984D02*
X13443277Y-10621460D01*
X13443277Y-10621460D02*
X13433754Y-10602412D01*
X13433754Y-10602412D02*
X13433754Y-10430984D01*
X13567087Y-10630984D02*
X13548039Y-10621460D01*
X13548039Y-10621460D02*
X13538515Y-10611936D01*
X13538515Y-10611936D02*
X13528992Y-10592889D01*
X13528992Y-10592889D02*
X13528992Y-10535746D01*
X13528992Y-10535746D02*
X13538515Y-10516698D01*
X13538515Y-10516698D02*
X13548039Y-10507174D01*
X13548039Y-10507174D02*
X13567087Y-10497650D01*
X13567087Y-10497650D02*
X13595658Y-10497650D01*
X13595658Y-10497650D02*
X13614706Y-10507174D01*
X13614706Y-10507174D02*
X13624230Y-10516698D01*
X13624230Y-10516698D02*
X13633754Y-10535746D01*
X13633754Y-10535746D02*
X13633754Y-10592889D01*
X13633754Y-10592889D02*
X13624230Y-10611936D01*
X13624230Y-10611936D02*
X13614706Y-10621460D01*
X13614706Y-10621460D02*
X13595658Y-10630984D01*
X13595658Y-10630984D02*
X13567087Y-10630984D01*
X13690896Y-10497650D02*
X13767087Y-10497650D01*
X13719468Y-10430984D02*
X13719468Y-10602412D01*
X13719468Y-10602412D02*
X13728992Y-10621460D01*
X13728992Y-10621460D02*
X13748039Y-10630984D01*
X13748039Y-10630984D02*
X13767087Y-10630984D01*
X13824230Y-10621460D02*
X13843277Y-10630984D01*
X13843277Y-10630984D02*
X13881373Y-10630984D01*
X13881373Y-10630984D02*
X13900420Y-10621460D01*
X13900420Y-10621460D02*
X13909944Y-10602412D01*
X13909944Y-10602412D02*
X13909944Y-10592889D01*
X13909944Y-10592889D02*
X13900420Y-10573841D01*
X13900420Y-10573841D02*
X13881373Y-10564317D01*
X13881373Y-10564317D02*
X13852801Y-10564317D01*
X13852801Y-10564317D02*
X13833754Y-10554793D01*
X13833754Y-10554793D02*
X13824230Y-10535746D01*
X13824230Y-10535746D02*
X13824230Y-10526222D01*
X13824230Y-10526222D02*
X13833754Y-10507174D01*
X13833754Y-10507174D02*
X13852801Y-10497650D01*
X13852801Y-10497650D02*
X13881373Y-10497650D01*
X13881373Y-10497650D02*
X13900420Y-10507174D01*
X13976611Y-10707174D02*
X13986135Y-10697650D01*
X13986135Y-10697650D02*
X14005182Y-10669079D01*
X14005182Y-10669079D02*
X14014706Y-10650031D01*
X14014706Y-10650031D02*
X14024230Y-10621460D01*
X14024230Y-10621460D02*
X14033754Y-10573841D01*
X14033754Y-10573841D02*
X14033754Y-10535746D01*
X14033754Y-10535746D02*
X14024230Y-10488127D01*
X14024230Y-10488127D02*
X14014706Y-10459555D01*
X14014706Y-10459555D02*
X14005182Y-10440508D01*
X14005182Y-10440508D02*
X13986135Y-10411936D01*
X13986135Y-10411936D02*
X13976611Y-10402412D01*
D13*
X7522500Y-10863500D02*
X7582500Y-10803500D01*
X7522500Y-10743500D01*
X7462500Y-10803500D01*
X7522500Y-10863500D01*
D11*
X7948039Y-10894984D02*
X7833753Y-10894984D01*
X7890896Y-10894984D02*
X7890896Y-10694984D01*
X7890896Y-10694984D02*
X7871848Y-10723555D01*
X7871848Y-10723555D02*
X7852801Y-10742603D01*
X7852801Y-10742603D02*
X7833753Y-10752127D01*
X8033753Y-10875936D02*
X8043277Y-10885460D01*
X8043277Y-10885460D02*
X8033753Y-10894984D01*
X8033753Y-10894984D02*
X8024229Y-10885460D01*
X8024229Y-10885460D02*
X8033753Y-10875936D01*
X8033753Y-10875936D02*
X8033753Y-10894984D01*
X8119467Y-10714031D02*
X8128991Y-10704508D01*
X8128991Y-10704508D02*
X8148039Y-10694984D01*
X8148039Y-10694984D02*
X8195658Y-10694984D01*
X8195658Y-10694984D02*
X8214705Y-10704508D01*
X8214705Y-10704508D02*
X8224229Y-10714031D01*
X8224229Y-10714031D02*
X8233753Y-10733079D01*
X8233753Y-10733079D02*
X8233753Y-10752127D01*
X8233753Y-10752127D02*
X8224229Y-10780698D01*
X8224229Y-10780698D02*
X8109943Y-10894984D01*
X8109943Y-10894984D02*
X8233753Y-10894984D01*
X8357562Y-10694984D02*
X8376610Y-10694984D01*
X8376610Y-10694984D02*
X8395658Y-10704508D01*
X8395658Y-10704508D02*
X8405182Y-10714031D01*
X8405182Y-10714031D02*
X8414705Y-10733079D01*
X8414705Y-10733079D02*
X8424229Y-10771174D01*
X8424229Y-10771174D02*
X8424229Y-10818793D01*
X8424229Y-10818793D02*
X8414705Y-10856889D01*
X8414705Y-10856889D02*
X8405182Y-10875936D01*
X8405182Y-10875936D02*
X8395658Y-10885460D01*
X8395658Y-10885460D02*
X8376610Y-10894984D01*
X8376610Y-10894984D02*
X8357562Y-10894984D01*
X8357562Y-10894984D02*
X8338515Y-10885460D01*
X8338515Y-10885460D02*
X8328991Y-10875936D01*
X8328991Y-10875936D02*
X8319467Y-10856889D01*
X8319467Y-10856889D02*
X8309943Y-10818793D01*
X8309943Y-10818793D02*
X8309943Y-10771174D01*
X8309943Y-10771174D02*
X8319467Y-10733079D01*
X8319467Y-10733079D02*
X8328991Y-10714031D01*
X8328991Y-10714031D02*
X8338515Y-10704508D01*
X8338515Y-10704508D02*
X8357562Y-10694984D01*
X8548039Y-10694984D02*
X8567086Y-10694984D01*
X8567086Y-10694984D02*
X8586134Y-10704508D01*
X8586134Y-10704508D02*
X8595658Y-10714031D01*
X8595658Y-10714031D02*
X8605182Y-10733079D01*
X8605182Y-10733079D02*
X8614705Y-10771174D01*
X8614705Y-10771174D02*
X8614705Y-10818793D01*
X8614705Y-10818793D02*
X8605182Y-10856889D01*
X8605182Y-10856889D02*
X8595658Y-10875936D01*
X8595658Y-10875936D02*
X8586134Y-10885460D01*
X8586134Y-10885460D02*
X8567086Y-10894984D01*
X8567086Y-10894984D02*
X8548039Y-10894984D01*
X8548039Y-10894984D02*
X8528991Y-10885460D01*
X8528991Y-10885460D02*
X8519467Y-10875936D01*
X8519467Y-10875936D02*
X8509944Y-10856889D01*
X8509944Y-10856889D02*
X8500420Y-10818793D01*
X8500420Y-10818793D02*
X8500420Y-10771174D01*
X8500420Y-10771174D02*
X8509944Y-10733079D01*
X8509944Y-10733079D02*
X8519467Y-10714031D01*
X8519467Y-10714031D02*
X8528991Y-10704508D01*
X8528991Y-10704508D02*
X8548039Y-10694984D01*
X8700420Y-10894984D02*
X8700420Y-10761650D01*
X8700420Y-10780698D02*
X8709944Y-10771174D01*
X8709944Y-10771174D02*
X8728991Y-10761650D01*
X8728991Y-10761650D02*
X8757563Y-10761650D01*
X8757563Y-10761650D02*
X8776610Y-10771174D01*
X8776610Y-10771174D02*
X8786134Y-10790222D01*
X8786134Y-10790222D02*
X8786134Y-10894984D01*
X8786134Y-10790222D02*
X8795658Y-10771174D01*
X8795658Y-10771174D02*
X8814705Y-10761650D01*
X8814705Y-10761650D02*
X8843277Y-10761650D01*
X8843277Y-10761650D02*
X8862325Y-10771174D01*
X8862325Y-10771174D02*
X8871848Y-10790222D01*
X8871848Y-10790222D02*
X8871848Y-10894984D01*
X8967086Y-10894984D02*
X8967086Y-10761650D01*
X8967086Y-10780698D02*
X8976610Y-10771174D01*
X8976610Y-10771174D02*
X8995658Y-10761650D01*
X8995658Y-10761650D02*
X9024229Y-10761650D01*
X9024229Y-10761650D02*
X9043277Y-10771174D01*
X9043277Y-10771174D02*
X9052801Y-10790222D01*
X9052801Y-10790222D02*
X9052801Y-10894984D01*
X9052801Y-10790222D02*
X9062325Y-10771174D01*
X9062325Y-10771174D02*
X9081372Y-10761650D01*
X9081372Y-10761650D02*
X9109944Y-10761650D01*
X9109944Y-10761650D02*
X9128991Y-10771174D01*
X9128991Y-10771174D02*
X9138515Y-10790222D01*
X9138515Y-10790222D02*
X9138515Y-10894984D01*
X9528991Y-10685460D02*
X9357563Y-10942603D01*
X9786134Y-10694984D02*
X9805182Y-10694984D01*
X9805182Y-10694984D02*
X9824229Y-10704508D01*
X9824229Y-10704508D02*
X9833753Y-10714031D01*
X9833753Y-10714031D02*
X9843277Y-10733079D01*
X9843277Y-10733079D02*
X9852801Y-10771174D01*
X9852801Y-10771174D02*
X9852801Y-10818793D01*
X9852801Y-10818793D02*
X9843277Y-10856889D01*
X9843277Y-10856889D02*
X9833753Y-10875936D01*
X9833753Y-10875936D02*
X9824229Y-10885460D01*
X9824229Y-10885460D02*
X9805182Y-10894984D01*
X9805182Y-10894984D02*
X9786134Y-10894984D01*
X9786134Y-10894984D02*
X9767087Y-10885460D01*
X9767087Y-10885460D02*
X9757563Y-10875936D01*
X9757563Y-10875936D02*
X9748039Y-10856889D01*
X9748039Y-10856889D02*
X9738515Y-10818793D01*
X9738515Y-10818793D02*
X9738515Y-10771174D01*
X9738515Y-10771174D02*
X9748039Y-10733079D01*
X9748039Y-10733079D02*
X9757563Y-10714031D01*
X9757563Y-10714031D02*
X9767087Y-10704508D01*
X9767087Y-10704508D02*
X9786134Y-10694984D01*
X9938515Y-10875936D02*
X9948039Y-10885460D01*
X9948039Y-10885460D02*
X9938515Y-10894984D01*
X9938515Y-10894984D02*
X9928991Y-10885460D01*
X9928991Y-10885460D02*
X9938515Y-10875936D01*
X9938515Y-10875936D02*
X9938515Y-10894984D01*
X10071848Y-10694984D02*
X10090896Y-10694984D01*
X10090896Y-10694984D02*
X10109944Y-10704508D01*
X10109944Y-10704508D02*
X10119468Y-10714031D01*
X10119468Y-10714031D02*
X10128991Y-10733079D01*
X10128991Y-10733079D02*
X10138515Y-10771174D01*
X10138515Y-10771174D02*
X10138515Y-10818793D01*
X10138515Y-10818793D02*
X10128991Y-10856889D01*
X10128991Y-10856889D02*
X10119468Y-10875936D01*
X10119468Y-10875936D02*
X10109944Y-10885460D01*
X10109944Y-10885460D02*
X10090896Y-10894984D01*
X10090896Y-10894984D02*
X10071848Y-10894984D01*
X10071848Y-10894984D02*
X10052801Y-10885460D01*
X10052801Y-10885460D02*
X10043277Y-10875936D01*
X10043277Y-10875936D02*
X10033753Y-10856889D01*
X10033753Y-10856889D02*
X10024229Y-10818793D01*
X10024229Y-10818793D02*
X10024229Y-10771174D01*
X10024229Y-10771174D02*
X10033753Y-10733079D01*
X10033753Y-10733079D02*
X10043277Y-10714031D01*
X10043277Y-10714031D02*
X10052801Y-10704508D01*
X10052801Y-10704508D02*
X10071848Y-10694984D01*
X10309944Y-10761650D02*
X10309944Y-10894984D01*
X10262325Y-10685460D02*
X10214706Y-10828317D01*
X10214706Y-10828317D02*
X10338515Y-10828317D01*
X10395658Y-10694984D02*
X10528991Y-10694984D01*
X10528991Y-10694984D02*
X10443277Y-10894984D01*
X10595658Y-10714031D02*
X10605182Y-10704508D01*
X10605182Y-10704508D02*
X10624229Y-10694984D01*
X10624229Y-10694984D02*
X10671849Y-10694984D01*
X10671849Y-10694984D02*
X10690896Y-10704508D01*
X10690896Y-10704508D02*
X10700420Y-10714031D01*
X10700420Y-10714031D02*
X10709944Y-10733079D01*
X10709944Y-10733079D02*
X10709944Y-10752127D01*
X10709944Y-10752127D02*
X10700420Y-10780698D01*
X10700420Y-10780698D02*
X10586134Y-10894984D01*
X10586134Y-10894984D02*
X10709944Y-10894984D01*
X10786134Y-10694984D02*
X10786134Y-10733079D01*
X10862325Y-10694984D02*
X10862325Y-10733079D01*
X11157563Y-10971174D02*
X11148039Y-10961650D01*
X11148039Y-10961650D02*
X11128991Y-10933079D01*
X11128991Y-10933079D02*
X11119468Y-10914031D01*
X11119468Y-10914031D02*
X11109944Y-10885460D01*
X11109944Y-10885460D02*
X11100420Y-10837841D01*
X11100420Y-10837841D02*
X11100420Y-10799746D01*
X11100420Y-10799746D02*
X11109944Y-10752127D01*
X11109944Y-10752127D02*
X11119468Y-10723555D01*
X11119468Y-10723555D02*
X11128991Y-10704508D01*
X11128991Y-10704508D02*
X11148039Y-10675936D01*
X11148039Y-10675936D02*
X11157563Y-10666412D01*
X11214706Y-10694984D02*
X11338515Y-10694984D01*
X11338515Y-10694984D02*
X11271848Y-10771174D01*
X11271848Y-10771174D02*
X11300420Y-10771174D01*
X11300420Y-10771174D02*
X11319468Y-10780698D01*
X11319468Y-10780698D02*
X11328991Y-10790222D01*
X11328991Y-10790222D02*
X11338515Y-10809270D01*
X11338515Y-10809270D02*
X11338515Y-10856889D01*
X11338515Y-10856889D02*
X11328991Y-10875936D01*
X11328991Y-10875936D02*
X11319468Y-10885460D01*
X11319468Y-10885460D02*
X11300420Y-10894984D01*
X11300420Y-10894984D02*
X11243277Y-10894984D01*
X11243277Y-10894984D02*
X11224229Y-10885460D01*
X11224229Y-10885460D02*
X11214706Y-10875936D01*
X11576610Y-10894984D02*
X11576610Y-10694984D01*
X11662325Y-10894984D02*
X11662325Y-10790222D01*
X11662325Y-10790222D02*
X11652801Y-10771174D01*
X11652801Y-10771174D02*
X11633753Y-10761650D01*
X11633753Y-10761650D02*
X11605182Y-10761650D01*
X11605182Y-10761650D02*
X11586134Y-10771174D01*
X11586134Y-10771174D02*
X11576610Y-10780698D01*
X11786134Y-10894984D02*
X11767087Y-10885460D01*
X11767087Y-10885460D02*
X11757563Y-10875936D01*
X11757563Y-10875936D02*
X11748039Y-10856889D01*
X11748039Y-10856889D02*
X11748039Y-10799746D01*
X11748039Y-10799746D02*
X11757563Y-10780698D01*
X11757563Y-10780698D02*
X11767087Y-10771174D01*
X11767087Y-10771174D02*
X11786134Y-10761650D01*
X11786134Y-10761650D02*
X11814706Y-10761650D01*
X11814706Y-10761650D02*
X11833753Y-10771174D01*
X11833753Y-10771174D02*
X11843277Y-10780698D01*
X11843277Y-10780698D02*
X11852801Y-10799746D01*
X11852801Y-10799746D02*
X11852801Y-10856889D01*
X11852801Y-10856889D02*
X11843277Y-10875936D01*
X11843277Y-10875936D02*
X11833753Y-10885460D01*
X11833753Y-10885460D02*
X11814706Y-10894984D01*
X11814706Y-10894984D02*
X11786134Y-10894984D01*
X11967087Y-10894984D02*
X11948039Y-10885460D01*
X11948039Y-10885460D02*
X11938515Y-10866412D01*
X11938515Y-10866412D02*
X11938515Y-10694984D01*
X12119468Y-10885460D02*
X12100420Y-10894984D01*
X12100420Y-10894984D02*
X12062325Y-10894984D01*
X12062325Y-10894984D02*
X12043277Y-10885460D01*
X12043277Y-10885460D02*
X12033753Y-10866412D01*
X12033753Y-10866412D02*
X12033753Y-10790222D01*
X12033753Y-10790222D02*
X12043277Y-10771174D01*
X12043277Y-10771174D02*
X12062325Y-10761650D01*
X12062325Y-10761650D02*
X12100420Y-10761650D01*
X12100420Y-10761650D02*
X12119468Y-10771174D01*
X12119468Y-10771174D02*
X12128991Y-10790222D01*
X12128991Y-10790222D02*
X12128991Y-10809270D01*
X12128991Y-10809270D02*
X12033753Y-10828317D01*
X12205182Y-10885460D02*
X12224230Y-10894984D01*
X12224230Y-10894984D02*
X12262325Y-10894984D01*
X12262325Y-10894984D02*
X12281372Y-10885460D01*
X12281372Y-10885460D02*
X12290896Y-10866412D01*
X12290896Y-10866412D02*
X12290896Y-10856889D01*
X12290896Y-10856889D02*
X12281372Y-10837841D01*
X12281372Y-10837841D02*
X12262325Y-10828317D01*
X12262325Y-10828317D02*
X12233753Y-10828317D01*
X12233753Y-10828317D02*
X12214706Y-10818793D01*
X12214706Y-10818793D02*
X12205182Y-10799746D01*
X12205182Y-10799746D02*
X12205182Y-10790222D01*
X12205182Y-10790222D02*
X12214706Y-10771174D01*
X12214706Y-10771174D02*
X12233753Y-10761650D01*
X12233753Y-10761650D02*
X12262325Y-10761650D01*
X12262325Y-10761650D02*
X12281372Y-10771174D01*
X12357563Y-10971174D02*
X12367087Y-10961650D01*
X12367087Y-10961650D02*
X12386134Y-10933079D01*
X12386134Y-10933079D02*
X12395658Y-10914031D01*
X12395658Y-10914031D02*
X12405182Y-10885460D01*
X12405182Y-10885460D02*
X12414706Y-10837841D01*
X12414706Y-10837841D02*
X12414706Y-10799746D01*
X12414706Y-10799746D02*
X12405182Y-10752127D01*
X12405182Y-10752127D02*
X12395658Y-10723555D01*
X12395658Y-10723555D02*
X12386134Y-10704508D01*
X12386134Y-10704508D02*
X12367087Y-10675936D01*
X12367087Y-10675936D02*
X12357563Y-10666412D01*
X7382500Y-10967500D02*
X7582500Y-11167500D01*
X7582500Y-10967500D02*
X7382500Y-11167500D01*
X7582500Y-11067500D02*
G75*
G02*
X7382500Y-11067500I-100000J0D01*
G01*
X7382500Y-11067500D02*
G75*
G02*
X7582500Y-11067500I100000J0D01*
G01*
X7833753Y-10978031D02*
X7843277Y-10968508D01*
X7843277Y-10968508D02*
X7862324Y-10958984D01*
X7862324Y-10958984D02*
X7909943Y-10958984D01*
X7909943Y-10958984D02*
X7928991Y-10968508D01*
X7928991Y-10968508D02*
X7938515Y-10978031D01*
X7938515Y-10978031D02*
X7948039Y-10997079D01*
X7948039Y-10997079D02*
X7948039Y-11016127D01*
X7948039Y-11016127D02*
X7938515Y-11044698D01*
X7938515Y-11044698D02*
X7824229Y-11158984D01*
X7824229Y-11158984D02*
X7948039Y-11158984D01*
X8033753Y-11139936D02*
X8043277Y-11149460D01*
X8043277Y-11149460D02*
X8033753Y-11158984D01*
X8033753Y-11158984D02*
X8024229Y-11149460D01*
X8024229Y-11149460D02*
X8033753Y-11139936D01*
X8033753Y-11139936D02*
X8033753Y-11158984D01*
X8119467Y-10978031D02*
X8128991Y-10968508D01*
X8128991Y-10968508D02*
X8148039Y-10958984D01*
X8148039Y-10958984D02*
X8195658Y-10958984D01*
X8195658Y-10958984D02*
X8214705Y-10968508D01*
X8214705Y-10968508D02*
X8224229Y-10978031D01*
X8224229Y-10978031D02*
X8233753Y-10997079D01*
X8233753Y-10997079D02*
X8233753Y-11016127D01*
X8233753Y-11016127D02*
X8224229Y-11044698D01*
X8224229Y-11044698D02*
X8109943Y-11158984D01*
X8109943Y-11158984D02*
X8233753Y-11158984D01*
X8357562Y-10958984D02*
X8376610Y-10958984D01*
X8376610Y-10958984D02*
X8395658Y-10968508D01*
X8395658Y-10968508D02*
X8405182Y-10978031D01*
X8405182Y-10978031D02*
X8414705Y-10997079D01*
X8414705Y-10997079D02*
X8424229Y-11035174D01*
X8424229Y-11035174D02*
X8424229Y-11082793D01*
X8424229Y-11082793D02*
X8414705Y-11120889D01*
X8414705Y-11120889D02*
X8405182Y-11139936D01*
X8405182Y-11139936D02*
X8395658Y-11149460D01*
X8395658Y-11149460D02*
X8376610Y-11158984D01*
X8376610Y-11158984D02*
X8357562Y-11158984D01*
X8357562Y-11158984D02*
X8338515Y-11149460D01*
X8338515Y-11149460D02*
X8328991Y-11139936D01*
X8328991Y-11139936D02*
X8319467Y-11120889D01*
X8319467Y-11120889D02*
X8309943Y-11082793D01*
X8309943Y-11082793D02*
X8309943Y-11035174D01*
X8309943Y-11035174D02*
X8319467Y-10997079D01*
X8319467Y-10997079D02*
X8328991Y-10978031D01*
X8328991Y-10978031D02*
X8338515Y-10968508D01*
X8338515Y-10968508D02*
X8357562Y-10958984D01*
X8548039Y-10958984D02*
X8567086Y-10958984D01*
X8567086Y-10958984D02*
X8586134Y-10968508D01*
X8586134Y-10968508D02*
X8595658Y-10978031D01*
X8595658Y-10978031D02*
X8605182Y-10997079D01*
X8605182Y-10997079D02*
X8614705Y-11035174D01*
X8614705Y-11035174D02*
X8614705Y-11082793D01*
X8614705Y-11082793D02*
X8605182Y-11120889D01*
X8605182Y-11120889D02*
X8595658Y-11139936D01*
X8595658Y-11139936D02*
X8586134Y-11149460D01*
X8586134Y-11149460D02*
X8567086Y-11158984D01*
X8567086Y-11158984D02*
X8548039Y-11158984D01*
X8548039Y-11158984D02*
X8528991Y-11149460D01*
X8528991Y-11149460D02*
X8519467Y-11139936D01*
X8519467Y-11139936D02*
X8509944Y-11120889D01*
X8509944Y-11120889D02*
X8500420Y-11082793D01*
X8500420Y-11082793D02*
X8500420Y-11035174D01*
X8500420Y-11035174D02*
X8509944Y-10997079D01*
X8509944Y-10997079D02*
X8519467Y-10978031D01*
X8519467Y-10978031D02*
X8528991Y-10968508D01*
X8528991Y-10968508D02*
X8548039Y-10958984D01*
X8700420Y-11158984D02*
X8700420Y-11025650D01*
X8700420Y-11044698D02*
X8709944Y-11035174D01*
X8709944Y-11035174D02*
X8728991Y-11025650D01*
X8728991Y-11025650D02*
X8757563Y-11025650D01*
X8757563Y-11025650D02*
X8776610Y-11035174D01*
X8776610Y-11035174D02*
X8786134Y-11054222D01*
X8786134Y-11054222D02*
X8786134Y-11158984D01*
X8786134Y-11054222D02*
X8795658Y-11035174D01*
X8795658Y-11035174D02*
X8814705Y-11025650D01*
X8814705Y-11025650D02*
X8843277Y-11025650D01*
X8843277Y-11025650D02*
X8862325Y-11035174D01*
X8862325Y-11035174D02*
X8871848Y-11054222D01*
X8871848Y-11054222D02*
X8871848Y-11158984D01*
X8967086Y-11158984D02*
X8967086Y-11025650D01*
X8967086Y-11044698D02*
X8976610Y-11035174D01*
X8976610Y-11035174D02*
X8995658Y-11025650D01*
X8995658Y-11025650D02*
X9024229Y-11025650D01*
X9024229Y-11025650D02*
X9043277Y-11035174D01*
X9043277Y-11035174D02*
X9052801Y-11054222D01*
X9052801Y-11054222D02*
X9052801Y-11158984D01*
X9052801Y-11054222D02*
X9062325Y-11035174D01*
X9062325Y-11035174D02*
X9081372Y-11025650D01*
X9081372Y-11025650D02*
X9109944Y-11025650D01*
X9109944Y-11025650D02*
X9128991Y-11035174D01*
X9128991Y-11035174D02*
X9138515Y-11054222D01*
X9138515Y-11054222D02*
X9138515Y-11158984D01*
X9528991Y-10949460D02*
X9357563Y-11206603D01*
X9786134Y-10958984D02*
X9805182Y-10958984D01*
X9805182Y-10958984D02*
X9824229Y-10968508D01*
X9824229Y-10968508D02*
X9833753Y-10978031D01*
X9833753Y-10978031D02*
X9843277Y-10997079D01*
X9843277Y-10997079D02*
X9852801Y-11035174D01*
X9852801Y-11035174D02*
X9852801Y-11082793D01*
X9852801Y-11082793D02*
X9843277Y-11120889D01*
X9843277Y-11120889D02*
X9833753Y-11139936D01*
X9833753Y-11139936D02*
X9824229Y-11149460D01*
X9824229Y-11149460D02*
X9805182Y-11158984D01*
X9805182Y-11158984D02*
X9786134Y-11158984D01*
X9786134Y-11158984D02*
X9767087Y-11149460D01*
X9767087Y-11149460D02*
X9757563Y-11139936D01*
X9757563Y-11139936D02*
X9748039Y-11120889D01*
X9748039Y-11120889D02*
X9738515Y-11082793D01*
X9738515Y-11082793D02*
X9738515Y-11035174D01*
X9738515Y-11035174D02*
X9748039Y-10997079D01*
X9748039Y-10997079D02*
X9757563Y-10978031D01*
X9757563Y-10978031D02*
X9767087Y-10968508D01*
X9767087Y-10968508D02*
X9786134Y-10958984D01*
X9938515Y-11139936D02*
X9948039Y-11149460D01*
X9948039Y-11149460D02*
X9938515Y-11158984D01*
X9938515Y-11158984D02*
X9928991Y-11149460D01*
X9928991Y-11149460D02*
X9938515Y-11139936D01*
X9938515Y-11139936D02*
X9938515Y-11158984D01*
X10071848Y-10958984D02*
X10090896Y-10958984D01*
X10090896Y-10958984D02*
X10109944Y-10968508D01*
X10109944Y-10968508D02*
X10119468Y-10978031D01*
X10119468Y-10978031D02*
X10128991Y-10997079D01*
X10128991Y-10997079D02*
X10138515Y-11035174D01*
X10138515Y-11035174D02*
X10138515Y-11082793D01*
X10138515Y-11082793D02*
X10128991Y-11120889D01*
X10128991Y-11120889D02*
X10119468Y-11139936D01*
X10119468Y-11139936D02*
X10109944Y-11149460D01*
X10109944Y-11149460D02*
X10090896Y-11158984D01*
X10090896Y-11158984D02*
X10071848Y-11158984D01*
X10071848Y-11158984D02*
X10052801Y-11149460D01*
X10052801Y-11149460D02*
X10043277Y-11139936D01*
X10043277Y-11139936D02*
X10033753Y-11120889D01*
X10033753Y-11120889D02*
X10024229Y-11082793D01*
X10024229Y-11082793D02*
X10024229Y-11035174D01*
X10024229Y-11035174D02*
X10033753Y-10997079D01*
X10033753Y-10997079D02*
X10043277Y-10978031D01*
X10043277Y-10978031D02*
X10052801Y-10968508D01*
X10052801Y-10968508D02*
X10071848Y-10958984D01*
X10252801Y-11044698D02*
X10233753Y-11035174D01*
X10233753Y-11035174D02*
X10224229Y-11025650D01*
X10224229Y-11025650D02*
X10214706Y-11006603D01*
X10214706Y-11006603D02*
X10214706Y-10997079D01*
X10214706Y-10997079D02*
X10224229Y-10978031D01*
X10224229Y-10978031D02*
X10233753Y-10968508D01*
X10233753Y-10968508D02*
X10252801Y-10958984D01*
X10252801Y-10958984D02*
X10290896Y-10958984D01*
X10290896Y-10958984D02*
X10309944Y-10968508D01*
X10309944Y-10968508D02*
X10319468Y-10978031D01*
X10319468Y-10978031D02*
X10328991Y-10997079D01*
X10328991Y-10997079D02*
X10328991Y-11006603D01*
X10328991Y-11006603D02*
X10319468Y-11025650D01*
X10319468Y-11025650D02*
X10309944Y-11035174D01*
X10309944Y-11035174D02*
X10290896Y-11044698D01*
X10290896Y-11044698D02*
X10252801Y-11044698D01*
X10252801Y-11044698D02*
X10233753Y-11054222D01*
X10233753Y-11054222D02*
X10224229Y-11063746D01*
X10224229Y-11063746D02*
X10214706Y-11082793D01*
X10214706Y-11082793D02*
X10214706Y-11120889D01*
X10214706Y-11120889D02*
X10224229Y-11139936D01*
X10224229Y-11139936D02*
X10233753Y-11149460D01*
X10233753Y-11149460D02*
X10252801Y-11158984D01*
X10252801Y-11158984D02*
X10290896Y-11158984D01*
X10290896Y-11158984D02*
X10309944Y-11149460D01*
X10309944Y-11149460D02*
X10319468Y-11139936D01*
X10319468Y-11139936D02*
X10328991Y-11120889D01*
X10328991Y-11120889D02*
X10328991Y-11082793D01*
X10328991Y-11082793D02*
X10319468Y-11063746D01*
X10319468Y-11063746D02*
X10309944Y-11054222D01*
X10309944Y-11054222D02*
X10290896Y-11044698D01*
X10500420Y-10958984D02*
X10462325Y-10958984D01*
X10462325Y-10958984D02*
X10443277Y-10968508D01*
X10443277Y-10968508D02*
X10433753Y-10978031D01*
X10433753Y-10978031D02*
X10414706Y-11006603D01*
X10414706Y-11006603D02*
X10405182Y-11044698D01*
X10405182Y-11044698D02*
X10405182Y-11120889D01*
X10405182Y-11120889D02*
X10414706Y-11139936D01*
X10414706Y-11139936D02*
X10424229Y-11149460D01*
X10424229Y-11149460D02*
X10443277Y-11158984D01*
X10443277Y-11158984D02*
X10481372Y-11158984D01*
X10481372Y-11158984D02*
X10500420Y-11149460D01*
X10500420Y-11149460D02*
X10509944Y-11139936D01*
X10509944Y-11139936D02*
X10519468Y-11120889D01*
X10519468Y-11120889D02*
X10519468Y-11073270D01*
X10519468Y-11073270D02*
X10509944Y-11054222D01*
X10509944Y-11054222D02*
X10500420Y-11044698D01*
X10500420Y-11044698D02*
X10481372Y-11035174D01*
X10481372Y-11035174D02*
X10443277Y-11035174D01*
X10443277Y-11035174D02*
X10424229Y-11044698D01*
X10424229Y-11044698D02*
X10414706Y-11054222D01*
X10414706Y-11054222D02*
X10405182Y-11073270D01*
X10690896Y-10958984D02*
X10652801Y-10958984D01*
X10652801Y-10958984D02*
X10633753Y-10968508D01*
X10633753Y-10968508D02*
X10624229Y-10978031D01*
X10624229Y-10978031D02*
X10605182Y-11006603D01*
X10605182Y-11006603D02*
X10595658Y-11044698D01*
X10595658Y-11044698D02*
X10595658Y-11120889D01*
X10595658Y-11120889D02*
X10605182Y-11139936D01*
X10605182Y-11139936D02*
X10614706Y-11149460D01*
X10614706Y-11149460D02*
X10633753Y-11158984D01*
X10633753Y-11158984D02*
X10671849Y-11158984D01*
X10671849Y-11158984D02*
X10690896Y-11149460D01*
X10690896Y-11149460D02*
X10700420Y-11139936D01*
X10700420Y-11139936D02*
X10709944Y-11120889D01*
X10709944Y-11120889D02*
X10709944Y-11073270D01*
X10709944Y-11073270D02*
X10700420Y-11054222D01*
X10700420Y-11054222D02*
X10690896Y-11044698D01*
X10690896Y-11044698D02*
X10671849Y-11035174D01*
X10671849Y-11035174D02*
X10633753Y-11035174D01*
X10633753Y-11035174D02*
X10614706Y-11044698D01*
X10614706Y-11044698D02*
X10605182Y-11054222D01*
X10605182Y-11054222D02*
X10595658Y-11073270D01*
X10786134Y-10958984D02*
X10786134Y-10997079D01*
X10862325Y-10958984D02*
X10862325Y-10997079D01*
X11157563Y-11235174D02*
X11148039Y-11225650D01*
X11148039Y-11225650D02*
X11128991Y-11197079D01*
X11128991Y-11197079D02*
X11119468Y-11178031D01*
X11119468Y-11178031D02*
X11109944Y-11149460D01*
X11109944Y-11149460D02*
X11100420Y-11101841D01*
X11100420Y-11101841D02*
X11100420Y-11063746D01*
X11100420Y-11063746D02*
X11109944Y-11016127D01*
X11109944Y-11016127D02*
X11119468Y-10987555D01*
X11119468Y-10987555D02*
X11128991Y-10968508D01*
X11128991Y-10968508D02*
X11148039Y-10939936D01*
X11148039Y-10939936D02*
X11157563Y-10930412D01*
X11319468Y-11025650D02*
X11319468Y-11158984D01*
X11271848Y-10949460D02*
X11224229Y-11092317D01*
X11224229Y-11092317D02*
X11348039Y-11092317D01*
X11576610Y-11158984D02*
X11576610Y-10958984D01*
X11662325Y-11158984D02*
X11662325Y-11054222D01*
X11662325Y-11054222D02*
X11652801Y-11035174D01*
X11652801Y-11035174D02*
X11633753Y-11025650D01*
X11633753Y-11025650D02*
X11605182Y-11025650D01*
X11605182Y-11025650D02*
X11586134Y-11035174D01*
X11586134Y-11035174D02*
X11576610Y-11044698D01*
X11786134Y-11158984D02*
X11767087Y-11149460D01*
X11767087Y-11149460D02*
X11757563Y-11139936D01*
X11757563Y-11139936D02*
X11748039Y-11120889D01*
X11748039Y-11120889D02*
X11748039Y-11063746D01*
X11748039Y-11063746D02*
X11757563Y-11044698D01*
X11757563Y-11044698D02*
X11767087Y-11035174D01*
X11767087Y-11035174D02*
X11786134Y-11025650D01*
X11786134Y-11025650D02*
X11814706Y-11025650D01*
X11814706Y-11025650D02*
X11833753Y-11035174D01*
X11833753Y-11035174D02*
X11843277Y-11044698D01*
X11843277Y-11044698D02*
X11852801Y-11063746D01*
X11852801Y-11063746D02*
X11852801Y-11120889D01*
X11852801Y-11120889D02*
X11843277Y-11139936D01*
X11843277Y-11139936D02*
X11833753Y-11149460D01*
X11833753Y-11149460D02*
X11814706Y-11158984D01*
X11814706Y-11158984D02*
X11786134Y-11158984D01*
X11967087Y-11158984D02*
X11948039Y-11149460D01*
X11948039Y-11149460D02*
X11938515Y-11130412D01*
X11938515Y-11130412D02*
X11938515Y-10958984D01*
X12119468Y-11149460D02*
X12100420Y-11158984D01*
X12100420Y-11158984D02*
X12062325Y-11158984D01*
X12062325Y-11158984D02*
X12043277Y-11149460D01*
X12043277Y-11149460D02*
X12033753Y-11130412D01*
X12033753Y-11130412D02*
X12033753Y-11054222D01*
X12033753Y-11054222D02*
X12043277Y-11035174D01*
X12043277Y-11035174D02*
X12062325Y-11025650D01*
X12062325Y-11025650D02*
X12100420Y-11025650D01*
X12100420Y-11025650D02*
X12119468Y-11035174D01*
X12119468Y-11035174D02*
X12128991Y-11054222D01*
X12128991Y-11054222D02*
X12128991Y-11073270D01*
X12128991Y-11073270D02*
X12033753Y-11092317D01*
X12205182Y-11149460D02*
X12224230Y-11158984D01*
X12224230Y-11158984D02*
X12262325Y-11158984D01*
X12262325Y-11158984D02*
X12281372Y-11149460D01*
X12281372Y-11149460D02*
X12290896Y-11130412D01*
X12290896Y-11130412D02*
X12290896Y-11120889D01*
X12290896Y-11120889D02*
X12281372Y-11101841D01*
X12281372Y-11101841D02*
X12262325Y-11092317D01*
X12262325Y-11092317D02*
X12233753Y-11092317D01*
X12233753Y-11092317D02*
X12214706Y-11082793D01*
X12214706Y-11082793D02*
X12205182Y-11063746D01*
X12205182Y-11063746D02*
X12205182Y-11054222D01*
X12205182Y-11054222D02*
X12214706Y-11035174D01*
X12214706Y-11035174D02*
X12233753Y-11025650D01*
X12233753Y-11025650D02*
X12262325Y-11025650D01*
X12262325Y-11025650D02*
X12281372Y-11035174D01*
X12357563Y-11235174D02*
X12367087Y-11225650D01*
X12367087Y-11225650D02*
X12386134Y-11197079D01*
X12386134Y-11197079D02*
X12395658Y-11178031D01*
X12395658Y-11178031D02*
X12405182Y-11149460D01*
X12405182Y-11149460D02*
X12414706Y-11101841D01*
X12414706Y-11101841D02*
X12414706Y-11063746D01*
X12414706Y-11063746D02*
X12405182Y-11016127D01*
X12405182Y-11016127D02*
X12395658Y-10987555D01*
X12395658Y-10987555D02*
X12386134Y-10968508D01*
X12386134Y-10968508D02*
X12367087Y-10939936D01*
X12367087Y-10939936D02*
X12357563Y-10930412D01*
M02*
